<?xml version="1.0" encoding="UTF-8"?><svg id="uuid-6f733389-05c8-4bbf-adba-97a7ed3b391e" xmlns="http://www.w3.org/2000/svg" xmlns:xlink="http://www.w3.org/1999/xlink" viewBox="0 0 497 122"><defs><style>.uuid-6143c640-f631-4393-9e5d-6e018496e5f8{fill:#fff;}.uuid-8be20db4-6e57-4bb8-b8dd-0a3650ceb219{fill:url(#uuid-6e96e775-0623-45e9-93ff-2d356b6d1658);}.uuid-be2b9b70-638f-4737-82ea-07abfdd5910f{fill:url(#uuid-9bfd1f6b-feb3-4a66-b179-dc7f655dc291);}.uuid-1653a713-d0b0-4178-9424-03fd8855a010{fill:url(#uuid-b8eee73c-18d8-4b7f-b1f7-fdbf0d486215);}.uuid-bfb9d3b2-2039-46cc-a622-9fabd0817fea{fill:url(#uuid-3077dfef-79e7-47ff-9d31-0e9548fb6374);}.uuid-9e7ff93d-696e-44ff-a495-89c22b5a3918{fill:url(#uuid-1b968cc4-877e-4f25-a42f-be32632a9597);}</style><linearGradient id="uuid-9bfd1f6b-feb3-4a66-b179-dc7f655dc291" x1="196.73" y1="48.97" x2="495.86" y2="48.97" gradientUnits="userSpaceOnUse"><stop offset="0" stop-color="#f38e26"/><stop offset="1" stop-color="#fc644f"/></linearGradient><linearGradient id="uuid-6e96e775-0623-45e9-93ff-2d356b6d1658" x1="225.49" y1="20.2" x2="260.01" y2="20.2" xlink:href="#uuid-9bfd1f6b-feb3-4a66-b179-dc7f655dc291"/><linearGradient id="uuid-1b968cc4-877e-4f25-a42f-be32632a9597" x1="300.27" y1="112.25" x2="334.79" y2="112.25" xlink:href="#uuid-9bfd1f6b-feb3-4a66-b179-dc7f655dc291"/><linearGradient id="uuid-b8eee73c-18d8-4b7f-b1f7-fdbf0d486215" x1="369.31" y1="112.25" x2="380.81" y2="112.25" xlink:href="#uuid-9bfd1f6b-feb3-4a66-b179-dc7f655dc291"/><linearGradient id="uuid-3077dfef-79e7-47ff-9d31-0e9548fb6374" x1="-24.66" y1="78.68" x2="191.11" y2="12.87" xlink:href="#uuid-9bfd1f6b-feb3-4a66-b179-dc7f655dc291"/></defs><path class="uuid-be2b9b70-638f-4737-82ea-07abfdd5910f" d="m460.76,14.46c-6.06.1-11.75,1.77-16.67,4.61-2.06,1.19-3.99,2.59-5.75,4.18-1.38,1.24-2.67,2.58-3.83,4.03-4.8,5.93-7.67,13.47-7.67,21.7v23.01c-12.71,0-23.01-10.3-23.01-23.01V15.04c0-.33-.26-.59-.59-.59h-10.33c-.33,0-.59.26-.59.59v33.93c0,12.71-10.3,23.01-23.01,23.01h-10.92c-.33,0-.59-.26-.59-.59V15.04c0-.33-.26-.59-.59-.59h-10.33c-.33,0-.59.26-.59.59v33.93c0,6.58-2.77,12.52-7.2,16.71-4.12,3.91-9.69,6.3-15.81,6.3h-10.92c-.33,0-.59-.26-.59-.59V15.04c0-.33-.26-.59-.59-.59h-10.33c-.33,0-.59.26-.59.59v33.93c0,6.58-2.77,12.52-7.2,16.71-4.12,3.91-9.69,6.3-15.81,6.3h-46.02c-12.71,0-23.01-10.3-23.01-23.01V15.04c0-.33-.26-.59-.59-.59h-10.33c-.33,0-.59.26-.59.59v33.93c0,8.84,3.32,16.9,8.79,23.01.85.95,1.76,1.86,2.71,2.71,6.11,5.47,14.17,8.79,23.01,8.79h46.02c8.38,0,16.07-2.99,22.05-7.96.38-.32.96-.04.96.46v6.92c0,.33.26.59.59.59h22.42c8.38,0,16.07-2.99,22.05-7.96.38-.32.96-.04.96.46v6.92c0,.33.26.59.59.59h22.42c8.84,0,16.9-3.32,23.01-8.79.95-.85,1.86-1.76,2.71-2.71,1.11-1.23,2.12-2.55,3.04-3.93.92,1.39,1.93,2.7,3.04,3.93.85.95,1.76,1.86,2.71,2.71,6.11,5.47,14.17,8.79,23.01,8.79h34.52c10.23,0,19.41-4.44,25.72-11.51,5.47-6.11,8.79-14.17,8.79-23.01,0-19.11-16-34.83-35.1-34.51Zm.13,57.52h-22.56v-23.01c0-5.83,2.17-11.16,5.75-15.22,2.56-2.91,5.85-5.16,9.58-6.48,2.4-.85,4.99-1.31,7.67-1.31,12.56,0,22.77,10.06,23.01,22.56.25,12.9-10.56,23.46-23.46,23.46Z"/><rect class="uuid-8be20db4-6e57-4bb8-b8dd-0a3650ceb219" x="225.49" y="14.45" width="34.52" height="11.51"/><rect class="uuid-9e7ff93d-696e-44ff-a495-89c22b5a3918" x="300.27" y="106.49" width="34.52" height="11.51"/><rect class="uuid-1653a713-d0b0-4178-9424-03fd8855a010" x="369.31" y="106.49" width="11.51" height="11.51"/><path class="uuid-bfb9d3b2-2039-46cc-a622-9fabd0817fea" d="m139.2,83.48H35.65c-19.06,0-34.52-15.45-34.52-34.52V14.45s138.06,0,138.06,0c19.06,0,34.52,15.45,34.52,34.52h0c0,19.06-15.45,34.52-34.52,34.52Z"/><g id="uuid-80f73533-c433-45c9-959f-7993591b6ee2"><path class="uuid-6143c640-f631-4393-9e5d-6e018496e5f8" d="m137.83,56.05c0-.07,0-.13,0-.2,0-.07,0-.13,0-.2,0-.1,0-.19-.01-.28v-.02s0-.03,0-.04c0-.02,0-.05,0-.07h0c0-.1-.01-.19-.02-.27-.01-.13-.02-.26-.03-.38-.03-.29-.07-.58-.11-.86,0-.01,0-.02,0-.03-.02-.15-.05-.3-.07-.44,0-.02,0-.03,0-.05-.03-.14-.05-.27-.08-.4-.03-.12-.05-.24-.08-.37,0-.04-.02-.08-.03-.12-.03-.13-.06-.26-.1-.39-.04-.17-.09-.33-.13-.49,0,0,0,0,0,0-.03-.12-.07-.24-.11-.36-.03-.1-.06-.2-.1-.3-.03-.09-.06-.18-.09-.27,0,0,0-.02,0-.03,0-.02-.01-.04-.02-.06-.06-.17-.12-.33-.18-.5-.03-.07-.05-.14-.08-.2-.04-.1-.08-.2-.12-.3-.04-.1-.08-.2-.13-.29-.05-.11-.1-.22-.15-.33-.04-.09-.08-.17-.12-.26-.05-.1-.1-.2-.15-.3-.05-.1-.11-.21-.16-.31-.05-.09-.09-.17-.14-.25-.05-.09-.1-.18-.15-.27-.05-.09-.1-.18-.15-.26-.04-.06-.07-.12-.11-.18-.05-.07-.09-.15-.14-.22-.03-.04-.05-.08-.08-.12-.07-.1-.13-.2-.2-.29-.05-.08-.11-.16-.16-.24,0-.01-.02-.03-.03-.04-.04-.06-.08-.12-.13-.18,0,0,0,0,0-.01,0,0-.01-.02-.02-.03-.05-.07-.11-.15-.16-.22,0,0,0,0,0,0-.08-.1-.15-.21-.24-.31-.07-.09-.14-.18-.21-.26-.07-.09-.15-.18-.23-.27-.11-.13-.23-.26-.34-.39-.11-.13-.23-.25-.34-.37-.11-.12-.23-.24-.35-.36-.12-.12-.24-.24-.36-.35-.12-.12-.24-.23-.37-.34-.13-.12-.26-.23-.39-.34-.09-.08-.18-.15-.27-.23-.09-.07-.17-.14-.26-.21-.1-.08-.21-.16-.31-.24,0,0,0,0,0,0-.07-.06-.15-.11-.22-.16-.01,0-.02-.01-.03-.02,0,0,0,0-.01,0-.06-.04-.12-.08-.18-.13-.01-.01-.03-.02-.04-.03-.08-.06-.16-.11-.24-.16-.1-.07-.2-.13-.29-.2-.04-.03-.08-.05-.12-.08-.07-.05-.15-.09-.22-.14-.06-.03-.12-.07-.18-.11-.09-.05-.17-.1-.26-.15-.09-.05-.18-.1-.27-.15-.08-.05-.17-.09-.25-.14-.1-.06-.2-.11-.31-.16-.1-.05-.2-.1-.3-.15-.09-.04-.17-.08-.26-.12-.11-.05-.22-.11-.33-.15-.1-.05-.2-.08-.29-.13-.1-.04-.2-.08-.3-.12-.07-.03-.14-.05-.2-.08-.17-.06-.33-.13-.5-.18-.02,0-.04-.01-.06-.02,0,0-.02,0-.03,0-.09-.03-.18-.06-.27-.09-.1-.03-.2-.07-.3-.1-.12-.04-.24-.07-.36-.11,0,0,0,0,0,0-.16-.05-.33-.09-.49-.13-.13-.03-.26-.07-.39-.1-.04-.01-.08-.02-.12-.03-.12-.03-.24-.06-.37-.08-.13-.03-.27-.05-.4-.08-.02,0-.03,0-.05,0-.15-.03-.29-.05-.44-.07-.01,0-.02,0-.03,0-.28-.04-.57-.08-.86-.11-.13-.01-.26-.02-.38-.03-.09,0-.17-.01-.26-.02-.03,0-.06,0-.09,0-.02,0-.03,0-.05,0h-.02c-.09,0-.19-.01-.28-.01-.07,0-.13,0-.2,0-.07,0-.13,0-.2,0-.13,0-.26,0-.39,0s-.26,0-.39,0c-.07,0-.13,0-.2,0-.07,0-.13,0-.2,0-.1,0-.19,0-.28.01h-.02s-.03,0-.04,0c-.02,0-.05,0-.07,0h-.01c-.09,0-.17.01-.26.02-.13.01-.26.02-.38.03-.29.03-.58.07-.86.11,0,0-.02,0-.03,0-.15.02-.3.05-.44.07-.02,0-.03,0-.05,0-.14.03-.27.05-.4.08-.12.03-.24.05-.37.08-.04,0-.08.02-.12.03-.13.03-.26.06-.39.1-.17.04-.33.08-.49.13,0,0,0,0,0,0-.12.03-.24.07-.36.11-.1.03-.2.06-.3.1-.09.03-.18.06-.27.09,0,0-.02,0-.03,0-.02,0-.04.01-.06.02-.15.05-.3.11-.45.17-.1.03-.19.07-.28.11-.1.04-.19.08-.28.12-.1.04-.2.09-.3.13-.15.07-.3.14-.44.21-.04.02-.08.04-.12.06-.11.05-.21.1-.32.16-.13.07-.26.13-.39.2s-.25.14-.38.21c-.01,0-.03.02-.04.02-.18.1-.36.21-.53.32-.05.03-.09.05-.13.08-.05.03-.09.06-.13.09-.09.06-.18.12-.27.18-.09.06-.17.11-.25.17-.07.05-.14.1-.21.15-.1.07-.2.14-.29.22-.08.06-.17.12-.25.19-.09.07-.19.14-.28.22-.11.09-.22.18-.32.27-.07.06-.15.13-.22.19-.03.02-.05.05-.08.07-.02.02-.04.03-.06.05-.13.11-.25.23-.37.34-.12.11-.24.23-.36.35-.12.12-.24.24-.35.36-.12.12-.23.24-.34.37-.02.02-.03.03-.04.05-.09.1-.17.19-.26.29-.1.11-.2.23-.29.35-.08.1-.16.2-.24.3-.1.12-.19.25-.28.37-.08.11-.16.22-.24.33,0,0,0,0,0,.01-.06.08-.11.16-.17.25-.07.09-.13.19-.19.29-.05.08-.1.16-.15.24-.05.08-.1.16-.15.24-.06.11-.13.22-.19.32-.22.38-.43.78-.62,1.18-.06.11-.11.23-.16.34-.05.11-.1.22-.15.33,0,.01,0,.02-.02.03-.06.14-.12.27-.17.4-.04.09-.07.18-.11.28-.06.14-.11.28-.16.42,0,.02-.01.04-.02.06,0,0,0,.02,0,.03-.03.09-.06.18-.09.27-.03.1-.07.2-.1.3-.04.12-.07.24-.11.36,0,0,0,0,0,0-.05.16-.09.33-.13.49-.03.13-.07.26-.1.39-.01.04-.02.08-.03.12-.03.12-.06.24-.08.37-.03.13-.05.27-.08.4,0,.02,0,.03,0,.05-.03.15-.05.29-.07.44,0,.01,0,.02,0,.03-.04.28-.08.57-.11.86-.01.13-.02.26-.03.38,0,.09-.02.18-.02.26h0s0,.06,0,.08c0,.02,0,.03,0,.04v.02c0,.09-.01.19-.02.28,0,.07,0,.13,0,.2,0,.06,0,.13,0,.2,0,.13,0,.26,0,.39v12c-.15,0-.3,0-.45-.01-.12,0-.23,0-.35-.02-.01,0-.02,0-.04,0-.09,0-.17-.01-.26-.02-.07,0-.14-.01-.21-.02-.06,0-.11-.01-.17-.02-.07,0-.13-.02-.2-.03-.12-.02-.24-.03-.35-.05-.13-.02-.26-.05-.39-.07-.16-.03-.32-.07-.47-.11-.09-.02-.18-.05-.27-.07-.08-.02-.16-.04-.24-.06-.07-.02-.15-.05-.22-.07-.08-.02-.16-.05-.23-.07-.11-.04-.22-.08-.32-.12-.09-.03-.17-.06-.26-.1-.07-.02-.13-.05-.19-.08,0,0,0,0,0,0-.07-.03-.14-.06-.21-.09-.19-.08-.37-.17-.54-.25,0,0-.01,0-.02-.01-.1-.05-.2-.1-.3-.16-.11-.06-.21-.11-.31-.17,0,0-.02-.01-.03-.02-.08-.05-.16-.1-.24-.15-.08-.05-.16-.1-.24-.15-.16-.1-.32-.21-.47-.32-.08-.06-.16-.11-.23-.17-.09-.07-.18-.13-.26-.2-.06-.04-.12-.09-.17-.14-.08-.07-.16-.14-.24-.21-.07-.06-.13-.11-.2-.17h0s-.02-.01-.02-.02c0,0-.01-.01-.02-.02-.06-.06-.13-.11-.19-.17-.15-.14-.29-.28-.43-.43-.06-.06-.12-.12-.17-.19,0,0-.01,0-.02-.02,0,0,0-.01-.02-.02h0c-.06-.07-.12-.13-.17-.2-.07-.08-.14-.16-.21-.24-.05-.06-.1-.12-.14-.17-.07-.09-.14-.17-.2-.26-.06-.08-.12-.16-.17-.23-.11-.15-.22-.31-.32-.47-.05-.08-.1-.16-.15-.24-.05-.08-.1-.16-.15-.24,0,0,0-.02-.02-.03-.06-.1-.12-.21-.17-.31-.06-.1-.11-.2-.16-.3,0,0,0-.01,0-.02-.09-.18-.17-.36-.25-.54-.03-.07-.06-.14-.09-.21,0,0,0,0,0,0-.03-.07-.05-.13-.08-.19-.04-.09-.07-.17-.1-.26-.04-.11-.08-.22-.12-.32-.03-.08-.05-.15-.07-.23-.02-.07-.05-.15-.07-.22-.02-.08-.05-.16-.07-.24-.03-.09-.05-.18-.07-.27-.04-.16-.08-.31-.11-.47-.03-.13-.05-.26-.07-.39-.02-.12-.04-.24-.05-.35-.01-.06-.02-.13-.03-.2,0-.06-.02-.11-.02-.17,0-.07-.02-.14-.02-.21-.01-.08-.02-.17-.02-.26,0-.01,0-.02,0-.04,0-.12-.02-.23-.02-.35,0-.15,0-.3,0-.45,0-.13,0-.26,0-.39,0-.07,0-.13,0-.2,0-.07,0-.13,0-.2,0-.1,0-.19-.02-.28v-.02s0-.03,0-.04c0-.02,0-.05,0-.07h0c0-.1-.01-.19-.02-.27-.01-.13-.02-.26-.03-.38-.03-.29-.07-.58-.11-.86,0-.01,0-.02,0-.03-.02-.15-.05-.3-.07-.44,0-.02,0-.03,0-.05-.03-.14-.05-.27-.08-.4-.03-.12-.05-.24-.08-.37,0-.04-.02-.08-.03-.12-.03-.13-.06-.26-.1-.39-.04-.17-.09-.33-.13-.49,0,0,0,0,0,0-.04-.12-.07-.24-.11-.36-.03-.1-.06-.2-.1-.3-.03-.09-.06-.18-.09-.27,0,0,0-.02,0-.03,0-.02-.01-.04-.02-.06,0-.02-.01-.03-.02-.05-.06-.16-.12-.32-.18-.48-.06-.16-.13-.32-.2-.48,0-.01-.01-.02-.02-.03-.04-.09-.07-.17-.11-.26-.04-.09-.08-.17-.12-.25-.07-.16-.15-.32-.23-.47,0-.01-.02-.03-.02-.05-.08-.16-.16-.32-.25-.47-.08-.14-.16-.29-.24-.43-.01-.02-.02-.04-.03-.06-.09-.16-.19-.32-.29-.47-.1-.16-.2-.31-.3-.46-.12-.18-.24-.36-.36-.53,0-.01-.02-.03-.03-.04-.09-.12-.18-.24-.27-.36-.05-.07-.1-.13-.15-.2-.04-.05-.07-.09-.11-.14,0,0-.01-.02-.02-.02,0,0-.01-.02-.02-.03-.03-.03-.05-.06-.08-.09-.06-.07-.11-.14-.17-.21-.11-.14-.23-.27-.34-.4-.01-.02-.03-.03-.04-.05-.11-.13-.23-.25-.34-.37-.11-.12-.23-.24-.35-.36-.12-.12-.24-.24-.36-.35-.12-.12-.24-.23-.37-.34-.03-.03-.06-.05-.09-.08h0s-.02-.02-.03-.03c-.09-.08-.18-.15-.27-.23-.09-.08-.18-.15-.27-.23-.09-.07-.17-.14-.26-.21-.1-.08-.21-.16-.31-.24,0,0,0,0,0,0-.07-.06-.15-.11-.22-.16-.01,0-.02-.01-.03-.02,0,0,0,0-.01,0-.06-.04-.12-.08-.18-.13-.01-.01-.03-.02-.04-.03-.08-.06-.16-.11-.24-.16-.1-.07-.2-.13-.29-.2-.04-.03-.08-.05-.12-.08-.07-.05-.15-.09-.22-.14-.06-.03-.12-.07-.18-.11-.09-.05-.17-.1-.26-.15-.09-.05-.18-.1-.27-.15-.08-.05-.17-.09-.25-.14-.1-.06-.2-.11-.31-.16-.1-.05-.2-.1-.3-.15-.09-.04-.17-.08-.26-.12-.11-.05-.22-.11-.33-.15-.1-.05-.2-.08-.29-.13-.1-.04-.2-.08-.3-.12-.07-.03-.14-.05-.2-.08-.17-.06-.33-.13-.5-.18-.02,0-.04-.01-.06-.02,0,0-.02,0-.03,0-.09-.03-.18-.06-.27-.09-.1-.03-.2-.07-.3-.1-.12-.04-.24-.07-.36-.11,0,0,0,0,0,0-.16-.05-.33-.09-.49-.13-.13-.03-.26-.07-.39-.1-.04-.01-.08-.02-.12-.03-.12-.03-.24-.06-.37-.08-.13-.03-.27-.05-.4-.08-.02,0-.03,0-.05,0-.15-.03-.29-.05-.44-.07-.01,0-.02,0-.03,0-.28-.04-.57-.08-.86-.11-.13-.01-.26-.02-.38-.03-.09,0-.17-.01-.26-.02-.03,0-.06,0-.09,0-.02,0-.03,0-.05,0h-.02c-.09,0-.19-.01-.28-.01-.07,0-.13,0-.2,0-.07,0-.13,0-.2,0-.13,0-.26,0-.39,0v6c.15,0,.3,0,.45.01.12,0,.23,0,.35.02.01,0,.02,0,.04,0,.09,0,.17,0,.26.02.07,0,.14.01.21.02.06,0,.11.01.17.02.07,0,.13.02.2.03.12.02.24.03.35.05.04,0,.08.01.12.02.09.02.17.03.25.05,0,0,0,0,.02,0,.16.03.32.07.47.11.09.02.18.05.27.07.08.02.16.04.24.07.07.02.15.05.22.07.08.02.16.05.23.07.02,0,.04.01.06.02.08.02.15.05.23.08.01,0,.03.01.04.02.09.03.17.06.26.1.07.02.13.05.19.08,0,0,0,0,0,0,.07.03.14.06.21.09.19.08.37.17.54.25,0,0,.01,0,.02.01.1.05.2.1.3.16.11.06.21.11.31.17,0,0,.02.01.03.02.08.05.16.1.24.15.08.05.16.1.24.15.16.1.32.21.47.32.08.06.16.11.23.17.09.07.18.13.26.2.06.04.12.09.17.14.08.07.16.14.24.21.07.06.13.11.2.17h0s.02.01.02.02c0,0,.01.01.02.02.06.06.13.11.19.17.15.14.29.28.43.43.06.06.12.12.17.19,0,0,.01.01.02.02,0,0,0,.01.02.02h0c.06.07.12.13.17.2.07.08.14.16.21.24.05.06.1.12.14.17.07.09.14.17.2.26.06.08.12.16.17.23.11.15.22.31.32.47.05.08.1.16.15.24.05.08.1.16.15.24,0,0,0,.02.02.03.06.1.12.21.17.31.06.1.11.2.16.3,0,0,0,.01,0,.02.09.18.17.36.25.54.03.07.06.14.09.21,0,0,0,0,0,0,.03.07.05.13.08.19.04.09.07.17.1.26,0,.01,0,.03.02.04.03.07.06.15.08.23,0,.02.01.03.02.06.03.08.05.15.07.23.02.07.05.15.07.22.02.08.05.16.07.24.03.09.05.18.07.27.04.16.08.31.11.47,0,0,0,.01,0,.02.02.08.03.17.05.25,0,.04.02.08.02.12.02.12.04.24.05.35.01.06.02.13.03.2,0,.06.02.11.02.17,0,.07.02.14.02.21.01.09.02.17.02.26,0,.01,0,.02,0,.04,0,.12.02.23.02.35,0,.15,0,.3,0,.45s0,.3,0,.45c0,.12,0,.23-.02.35,0,.01,0,.02,0,.04,0,.08,0,.17-.02.26,0,.11-.02.22-.04.33,0,.02,0,.04,0,.06,0,0,0,.01,0,.02,0,.05,0,.11-.02.16-.02.12-.03.24-.05.35-.02.13-.05.26-.07.39-.03.16-.07.32-.11.47-.02.09-.05.18-.07.27-.02.08-.04.16-.07.24-.02.07-.05.15-.07.22-.02.08-.05.16-.07.23-.04.11-.08.22-.12.32-.03.08-.06.17-.1.26-.03.06-.05.13-.08.19,0,0,0,0,0,0-.03.07-.06.14-.09.21-.08.19-.17.37-.25.54,0,0,0,.01,0,.02-.05.1-.1.2-.16.3-.06.11-.11.21-.17.31,0,0-.01.02-.02.03-.05.08-.1.16-.15.24-.05.08-.1.16-.15.24-.1.16-.21.32-.32.47-.06.08-.11.16-.17.23-.07.09-.13.18-.2.26-.04.06-.09.12-.14.17-.07.08-.14.16-.21.24-.06.07-.11.13-.17.2h0s-.01.02-.02.02c0,0-.01.01-.02.02-.06.06-.11.13-.17.19-.14.15-.28.29-.43.43-.06.06-.12.12-.19.17,0,0-.01.01-.02.02,0,0-.01.01-.02.02h0c-.06.06-.13.12-.2.17-.08.07-.16.14-.24.21-.06.05-.12.1-.17.14-.09.07-.17.14-.26.2-.08.06-.16.12-.23.17-.15.11-.31.22-.47.32-.08.05-.16.1-.24.15-.08.05-.16.1-.24.15,0,0-.02.01-.03.02-.1.06-.21.12-.31.17-.1.06-.2.11-.3.16,0,0-.01,0-.02.01-.18.09-.36.17-.54.25-.07.03-.14.06-.21.09,0,0,0,0,0,0-.07.03-.13.05-.19.08-.09.04-.17.07-.26.1-.11.04-.22.08-.32.12-.08.03-.15.05-.23.07-.07.02-.15.05-.22.07-.08.02-.16.05-.24.06-.09.03-.18.05-.27.07-.16.04-.31.07-.47.11-.13.02-.26.05-.39.07-.12.02-.24.04-.35.05-.07.01-.13.02-.2.03-.06,0-.11.01-.17.02-.07,0-.14.02-.21.02-.09,0-.17.01-.26.02-.01,0-.02,0-.04,0-.12,0-.23.01-.35.02-.15,0-.3.01-.45.01h-24.01c-.15,0-.3,0-.45-.01-.12,0-.23,0-.35-.02-.01,0-.02,0-.04,0-.09,0-.17-.01-.26-.02-.07,0-.14-.01-.21-.02-.06,0-.11-.01-.17-.02-.07,0-.13-.02-.2-.03-.12-.02-.24-.03-.35-.05-.13-.02-.26-.05-.39-.07-.16-.03-.32-.07-.47-.11-.09-.02-.18-.05-.27-.07-.08-.02-.16-.04-.24-.06-.07-.02-.15-.05-.22-.07-.08-.02-.16-.05-.23-.07-.11-.04-.22-.08-.32-.12-.09-.03-.17-.06-.26-.1-.07-.02-.13-.05-.19-.08,0,0,0,0,0,0-.07-.03-.14-.06-.21-.09-.19-.08-.37-.17-.54-.25,0,0-.01,0-.02-.01-.1-.05-.2-.1-.3-.16-.11-.06-.21-.11-.31-.17,0,0-.02-.01-.03-.02-.08-.05-.16-.1-.24-.15-.08-.05-.16-.1-.24-.15-.16-.1-.32-.21-.47-.32-.08-.06-.16-.11-.23-.17-.09-.07-.18-.13-.26-.2-.06-.04-.12-.09-.17-.14-.08-.07-.16-.14-.24-.21-.07-.06-.13-.11-.2-.17h0s-.02-.01-.02-.02c0,0-.01-.01-.02-.02-.06-.06-.13-.11-.19-.17-.15-.14-.29-.28-.43-.43-.06-.06-.12-.12-.17-.19,0,0-.01,0-.02-.02,0,0,0-.01-.02-.02h0c-.06-.07-.12-.13-.17-.2-.07-.08-.14-.16-.21-.24-.05-.06-.1-.12-.14-.17-.07-.09-.14-.17-.2-.26-.06-.08-.12-.16-.17-.23-.11-.15-.22-.31-.32-.47-.05-.08-.1-.16-.15-.24-.05-.08-.1-.16-.15-.24,0,0,0-.02-.02-.03-.06-.1-.12-.21-.17-.31-.06-.1-.11-.2-.16-.3,0,0,0-.01,0-.02-.09-.18-.17-.36-.25-.54-.03-.07-.06-.14-.09-.21,0,0,0,0,0,0-.03-.07-.05-.13-.08-.19-.04-.09-.07-.17-.1-.26-.04-.11-.08-.22-.12-.32-.03-.08-.05-.15-.07-.23-.02-.07-.05-.15-.07-.22-.02-.08-.05-.16-.07-.24-.03-.09-.05-.18-.07-.27-.04-.16-.08-.31-.11-.47-.03-.13-.05-.26-.07-.39-.02-.12-.04-.24-.05-.35-.01-.06-.02-.13-.03-.2,0-.06-.02-.11-.02-.17,0-.07-.02-.14-.02-.21-.01-.08-.02-.17-.02-.26,0-.01,0-.02,0-.04,0-.12-.02-.23-.02-.35,0-.15,0-.3,0-.45v-18.01h-6v18.01c0,.13,0,.26,0,.39,0,.07,0,.13,0,.2,0,.07,0,.13,0,.2,0,.1,0,.19.02.28v.02s0,.03,0,.05c0,.03,0,.06,0,.09,0,.08.01.17.02.26.01.13.02.26.03.38.03.29.07.58.11.86,0,.01,0,.02,0,.03.02.15.05.3.07.44,0,.02,0,.03,0,.05.03.14.05.27.08.4.03.12.05.24.08.37,0,.04.02.08.03.12.03.13.06.26.1.39.04.17.09.33.13.49,0,0,0,0,0,0,.04.12.07.24.11.36.03.1.06.2.1.3.03.09.06.18.09.27,0,0,0,.02,0,.03,0,.02.01.04.02.06.06.17.12.33.18.5.03.07.05.14.08.2.04.1.08.2.12.3.04.1.08.2.13.29.05.11.1.22.15.33.04.09.08.17.12.26.05.1.1.2.15.3.05.1.11.21.16.31.05.09.09.17.14.25.1.18.2.35.31.53.05.08.11.17.16.26.05.09.11.17.16.26.07.1.13.2.2.29.05.08.11.16.16.24,0,.01.02.03.03.04.04.06.08.12.13.18,0,0,0,0,0,.01,0,.01.01.02.02.03.05.07.11.15.16.22,0,0,0,0,0,0,.08.1.16.21.24.31.07.09.14.17.21.26.07.09.15.18.23.27.11.13.23.26.34.39.11.13.23.25.34.37.11.12.23.24.35.36.12.12.24.24.36.35.12.12.24.23.37.34.13.12.26.23.39.34.09.08.18.15.27.23.09.07.17.14.26.21.1.08.2.16.31.24,0,0,0,0,0,0,.07.06.15.11.22.16.01,0,.02.01.03.02,0,0,0,0,.01,0,.06.04.12.08.18.13.01.01.03.02.04.03.08.06.16.11.24.16.1.07.2.13.29.2.09.06.17.11.26.16.09.05.17.11.26.16.18.11.35.21.53.31.08.05.17.09.25.14.1.06.2.11.31.16.1.05.2.1.3.15.09.04.17.08.26.12.11.05.22.11.33.15.1.05.2.08.29.13.1.04.2.08.3.12.07.03.14.05.2.08.17.06.33.13.5.18.02,0,.04.01.06.02,0,0,.02,0,.03,0,.09.03.18.06.27.09.1.03.2.07.3.1.12.04.24.07.36.11,0,0,0,0,0,0,.16.05.33.09.49.13.13.03.26.07.39.1.04.01.08.02.12.03.12.03.24.06.37.08.13.03.27.05.4.08.02,0,.03,0,.05,0,.15.03.29.05.44.07.01,0,.02,0,.03,0,.28.04.57.08.86.11.13.01.26.02.38.03.09,0,.18.02.26.02h.01s.05,0,.07,0c.02,0,.03,0,.04,0h.02c.09,0,.19.01.28.01.07,0,.13,0,.2,0,.07,0,.13,0,.2,0,.13,0,.26,0,.39,0h24.01c.13,0,.26,0,.39,0,.07,0,.13,0,.2,0,.07,0,.13,0,.2,0,.1,0,.19,0,.28-.01h.02s.03,0,.05,0c.03,0,.06,0,.09,0,.09,0,.17-.01.26-.02.13-.01.26-.02.38-.03.29-.03.58-.07.86-.11,0,0,.02,0,.03,0,.15-.02.3-.05.44-.07.02,0,.03,0,.05,0,.14-.03.27-.05.4-.08.12-.03.24-.05.37-.08.04,0,.08-.02.12-.03.13-.03.26-.06.39-.1.17-.04.33-.08.49-.13,0,0,0,0,0,0,.12-.03.24-.07.36-.11.1-.03.2-.06.3-.1.09-.03.18-.06.27-.09,0,0,.02,0,.03,0,.02,0,.04-.01.06-.02.17-.06.33-.12.5-.18.07-.03.14-.05.2-.08.1-.04.2-.08.3-.12.1-.04.2-.08.29-.13.11-.05.22-.1.33-.15.09-.04.17-.08.26-.12.1-.05.2-.1.3-.15.1-.05.21-.11.31-.16.09-.05.17-.09.25-.14.18-.1.35-.2.53-.31.09-.05.17-.11.26-.16.09-.05.17-.11.26-.16.1-.07.2-.13.29-.2.08-.05.16-.11.24-.16.01-.01.03-.02.04-.03.06-.04.12-.08.18-.13,0,0,0,0,.01,0,0,0,.02-.01.03-.02.07-.05.15-.11.22-.16,0,0,0,0,0,0,.1-.08.21-.16.31-.24.09-.07.17-.14.26-.21.09-.07.18-.15.27-.23.13-.11.26-.23.39-.34.13-.11.25-.23.37-.34.12-.11.24-.23.36-.35.12-.12.24-.24.35-.36.12-.12.23-.24.34-.37.02-.02.03-.03.04-.05.12-.13.23-.26.34-.4.06-.07.12-.14.17-.21.03-.03.05-.06.08-.09,0,0,.01-.02.02-.03.04-.05.08-.11.12-.16.05-.07.1-.13.15-.2.09-.12.18-.24.27-.36,0-.02.02-.03.03-.04.13-.17.25-.35.36-.53.12.18.24.36.36.53,0,.02.02.03.03.04.09.12.18.24.27.36.05.07.1.13.15.2.04.05.08.11.12.16,0,0,.01.02.02.03.03.03.05.06.08.09.06.07.11.14.17.21.11.14.23.27.34.4.01.02.03.03.04.05.11.13.23.25.34.37.11.12.23.24.35.36.12.12.24.24.36.35.12.12.24.23.37.34.13.12.26.23.39.34.09.08.18.15.27.23.09.07.17.14.26.21.1.08.2.16.31.24,0,0,0,0,0,0,.07.06.15.11.22.16.01,0,.02.01.03.02,0,0,0,0,.01,0,.06.04.12.08.18.13.01.01.03.02.04.03.08.06.16.11.24.16.1.07.2.13.29.2.09.06.17.11.26.16.09.05.17.11.26.16.18.11.35.21.53.31.08.05.17.09.25.14.1.06.2.11.31.16.1.05.2.1.3.15.09.04.17.08.26.12.11.05.22.11.33.15.1.05.2.08.29.13.1.04.2.08.3.12.07.03.14.05.2.08.17.06.33.13.5.18.02,0,.04.01.06.02,0,0,.02,0,.03,0,.09.03.18.06.27.09.1.03.2.07.3.1.12.04.24.07.36.11,0,0,0,0,0,0,.16.05.33.09.49.13.13.03.26.07.39.1.04.01.08.02.12.03.12.03.24.06.37.08.13.03.27.05.4.08.02,0,.03,0,.05,0,.15.03.29.05.44.07.01,0,.02,0,.03,0,.28.04.57.08.86.11.13.01.26.02.38.03.09,0,.18.02.26.02h.01s.05,0,.07,0c.02,0,.03,0,.04,0h.02c.09,0,.19.01.28.01.07,0,.13,0,.2,0,.07,0,.13,0,.2,0,.13,0,.26,0,.39,0h18.01c.13,0,.26,0,.39,0,.07,0,.13,0,.2,0,.07,0,.13,0,.2,0,.1,0,.19,0,.28-.01h.02s.03,0,.05,0c.03,0,.06,0,.09,0,.09,0,.17-.01.26-.02.13-.01.26-.02.38-.03.29-.03.58-.07.86-.11,0,0,.02,0,.03,0,.15-.02.3-.05.44-.07.02,0,.03,0,.05,0,.14-.03.27-.05.4-.08.12-.03.24-.05.37-.08.04,0,.08-.02.12-.03.13-.03.26-.06.39-.1.17-.04.33-.08.49-.13,0,0,0,0,0,0,.12-.03.24-.07.36-.11.1-.03.2-.06.3-.1.09-.03.18-.06.27-.09,0,0,.02,0,.03,0,.02,0,.04-.01.06-.02.17-.06.33-.12.5-.18.07-.03.14-.05.2-.08.1-.04.2-.08.3-.12.1-.04.2-.08.29-.13.11-.05.22-.1.33-.15.09-.04.17-.08.26-.12.1-.05.2-.1.3-.15.1-.05.21-.11.31-.16.09-.05.17-.09.25-.14.18-.1.35-.2.53-.31.09-.05.17-.11.26-.16.09-.05.17-.11.26-.16.1-.07.2-.13.29-.2.08-.05.16-.11.24-.16.01-.01.03-.02.04-.03.06-.04.12-.08.18-.13,0,0,0,0,.01,0,0,0,.02-.01.03-.02.07-.05.15-.11.22-.16,0,0,0,0,0,0,.1-.08.21-.16.31-.24.09-.07.17-.14.26-.21.09-.07.18-.15.27-.23.13-.11.26-.23.39-.34.13-.11.25-.23.37-.34.12-.11.24-.23.36-.35.12-.12.24-.24.35-.36.12-.12.23-.24.34-.37.12-.13.23-.26.34-.39.08-.09.15-.18.23-.27.07-.09.14-.17.21-.26.08-.1.16-.21.24-.31,0,0,0,0,0,0,.06-.07.11-.15.16-.22,0-.01.01-.02.02-.03,0,0,0,0,0-.01.04-.06.08-.12.13-.18,0-.01.02-.02.03-.04.06-.08.11-.16.16-.24.07-.1.13-.2.2-.29.06-.09.11-.17.16-.26.05-.09.11-.17.16-.26.11-.18.21-.35.31-.53.05-.08.09-.17.14-.25.06-.1.11-.2.16-.31.05-.1.1-.2.15-.3.04-.09.08-.17.12-.26.05-.11.11-.22.15-.33.05-.1.09-.2.13-.29.04-.1.08-.2.12-.3.03-.07.05-.14.08-.2.06-.17.13-.33.18-.5,0-.02.01-.04.02-.06,0,0,0-.02,0-.03.03-.09.06-.18.09-.27.03-.1.07-.2.1-.3.04-.12.07-.24.11-.36,0,0,0,0,0,0,.05-.16.09-.33.13-.49.03-.13.07-.26.1-.39.01-.04.02-.08.03-.12.03-.12.06-.24.08-.37.03-.13.05-.27.08-.4,0-.01,0-.03,0-.05.03-.15.05-.29.07-.44,0-.01,0-.02,0-.03.04-.28.08-.57.11-.86.01-.13.02-.26.03-.38,0-.09.01-.17.02-.26,0-.03,0-.06,0-.09,0-.02,0-.03,0-.05v-.02c0-.09.01-.19.01-.28,0-.07,0-.13,0-.2,0-.06,0-.13,0-.2,0-.13,0-.26,0-.39s0-.26,0-.39Zm-30.01,12.4v-12c0-.15,0-.3,0-.45,0-.12,0-.23.02-.35,0-.01,0-.02,0-.04,0-.09,0-.17.02-.26,0-.07.01-.14.02-.21,0-.06.01-.11.02-.17,0-.07.02-.13.03-.2.02-.12.03-.24.05-.35,0-.04.01-.08.02-.12.02-.09.03-.17.05-.25,0,0,0-.01,0-.02.03-.16.07-.32.11-.47.02-.09.05-.18.07-.27.02-.08.04-.16.07-.24.02-.07.05-.15.07-.22.02-.08.05-.16.07-.23,0-.02.01-.04.02-.06.03-.08.05-.15.08-.23,0-.01,0-.03.02-.04.03-.08.06-.17.1-.26.03-.06.05-.13.08-.19,0,0,0,0,0,0,.03-.07.06-.14.09-.21.08-.19.17-.37.25-.54,0,0,0-.01,0-.02.05-.1.1-.2.16-.3.06-.11.11-.21.17-.31,0,0,.01-.02.02-.03.07-.12.14-.24.22-.35.05-.08.11-.17.16-.25.08-.12.16-.23.24-.34.07-.1.15-.2.22-.3.06-.08.12-.16.18-.23.13-.16.25-.31.39-.46,0,0,0,0,0-.01.21-.24.43-.47.66-.69.11-.11.22-.21.33-.31.05-.04.1-.08.14-.13.07-.06.13-.11.2-.17.03-.03.06-.06.1-.08.01-.01.03-.02.04-.03,0,0,.01,0,.02-.01.06-.05.13-.1.19-.15.05-.04.09-.07.14-.11.09-.07.18-.13.27-.19.06-.04.11-.08.17-.12.02-.01.04-.03.06-.04.08-.05.15-.1.23-.15.04-.03.09-.06.13-.08.11-.07.23-.14.34-.21.16-.09.32-.18.48-.26.06-.03.13-.07.19-.1.01,0,.02-.01.03-.01.08-.04.17-.08.25-.12.09-.05.19-.08.28-.13.07-.03.13-.06.2-.09.1-.04.21-.08.31-.12.09-.04.17-.07.26-.1.14-.05.29-.1.43-.15.12-.04.24-.07.37-.11h0s0,0,0,0c.03,0,.05-.01.08-.02.07-.02.13-.04.19-.05.07-.02.14-.04.22-.05.11-.03.23-.05.34-.08.08-.01.16-.03.24-.05.11-.02.22-.04.32-.05.09-.01.17-.03.26-.04,0,0,.02,0,.03,0,.07-.01.14-.02.21-.02,0,0,.01,0,.02,0,.11-.01.23-.03.34-.03.12-.01.23-.02.35-.02.1,0,.19,0,.29-.01.1,0,.21,0,.31,0,.15,0,.3,0,.45.01.12,0,.23,0,.35.02.01,0,.02,0,.04,0,.09,0,.17,0,.26.02.07,0,.14.01.21.02.06,0,.11.01.17.02.07,0,.13.02.2.03.12.02.24.03.35.05.04,0,.08.01.12.02.09.02.17.03.25.05,0,0,0,0,.02,0,.16.03.32.07.47.11.09.02.18.05.27.07.08.02.16.04.24.07.07.02.15.05.22.07.08.02.16.05.23.07.02,0,.04.01.06.02.08.02.15.05.23.08.01,0,.03.01.04.02.09.03.17.06.26.1.07.02.13.05.19.08,0,0,0,0,0,0,.07.03.14.06.21.09.19.08.37.17.54.25,0,0,.01,0,.02.01.1.05.2.1.3.16.11.06.21.11.31.17,0,0,.02.01.03.02.08.05.16.1.24.15.08.05.16.1.24.15.16.1.32.21.47.32.08.06.16.11.23.17.09.07.18.13.26.2.06.04.12.09.17.14.08.07.16.14.24.21.07.06.13.11.2.17h0s.02.01.02.02c0,0,.01.01.02.02.06.06.13.11.19.17.15.14.29.28.43.43.06.06.12.12.17.19,0,0,.01.01.02.02,0,0,0,.01.02.02h0c.06.07.12.13.17.2.07.08.14.16.21.24.05.06.1.12.14.17.07.09.14.17.2.26.06.08.12.16.17.23.11.15.22.31.32.47.05.08.1.16.15.24.05.08.1.16.15.24,0,0,0,.02.02.03.06.1.12.21.17.31.06.1.11.2.16.3,0,0,0,.01,0,.02.09.18.17.36.25.54.03.07.06.14.09.21,0,0,0,0,0,0,.03.07.05.13.08.19.04.09.07.17.1.26,0,.01,0,.03.02.04.03.07.06.15.08.23,0,.02.01.03.02.06.03.08.05.15.07.23.02.07.05.15.07.22.02.08.05.16.07.24.03.09.05.18.07.27.04.16.08.31.11.47,0,0,0,.01,0,.02.02.08.03.17.05.25,0,.04.02.08.02.12.02.12.04.24.05.35.01.06.02.13.03.2,0,.06.02.11.02.17,0,.07.02.14.02.21.01.09.02.17.02.26,0,.01,0,.02,0,.04,0,.12.02.23.02.35,0,.15,0,.3,0,.45s0,.3,0,.45c0,.12,0,.23-.02.35,0,.01,0,.02,0,.04,0,.08,0,.17-.02.26,0,.07-.01.14-.02.21,0,.06-.01.11-.02.17,0,.06-.02.13-.03.2-.02.12-.03.24-.05.35-.02.13-.05.26-.07.39-.03.16-.07.32-.11.47-.02.09-.05.18-.07.27-.02.08-.04.16-.07.24-.02.07-.05.15-.07.22-.02.08-.05.16-.07.23-.04.11-.08.22-.12.32-.03.08-.06.17-.1.26-.03.06-.05.13-.08.19,0,0,0,0,0,0-.03.07-.06.14-.09.21-.08.19-.17.37-.25.54,0,0,0,.01,0,.02-.05.1-.1.2-.16.3-.06.11-.11.21-.17.31,0,0-.01.02-.02.03-.05.08-.1.16-.15.24-.05.08-.1.16-.15.24-.1.16-.21.32-.32.47-.06.08-.11.16-.17.23-.07.09-.13.18-.2.26-.04.06-.09.12-.14.17-.07.08-.14.16-.21.24-.06.07-.11.13-.17.2h0s-.01.02-.02.02c0,0-.01.01-.02.02-.06.06-.11.13-.17.19-.14.15-.28.29-.43.43-.06.06-.12.12-.19.17,0,0-.01.01-.02.02,0,0-.01.01-.02.02h0c-.06.06-.13.12-.2.17-.08.07-.16.14-.24.21-.06.05-.12.1-.17.14-.09.07-.17.14-.26.2-.08.06-.16.12-.23.17-.15.11-.31.22-.47.32-.08.05-.16.1-.24.15-.08.05-.16.1-.24.15,0,0-.02.01-.03.02-.1.06-.21.12-.31.17-.1.06-.2.11-.3.16,0,0-.01,0-.02.01-.18.09-.36.17-.54.25-.07.03-.14.06-.21.09,0,0,0,0,0,0-.07.03-.13.05-.19.08-.09.04-.17.07-.26.1-.11.04-.22.08-.32.12-.08.03-.15.05-.23.07-.07.02-.15.05-.22.07-.08.02-.16.05-.24.06-.09.03-.18.05-.27.07-.16.04-.31.07-.47.11-.13.02-.26.05-.39.07-.12.02-.24.04-.35.05-.07.01-.13.02-.2.03-.06,0-.11.01-.17.02-.07,0-.14.02-.21.02-.09,0-.17.01-.26.02-.01,0-.02,0-.04,0-.12,0-.23.01-.35.02-.15,0-.3.01-.45.01h-12Z"/><path class="uuid-6143c640-f631-4393-9e5d-6e018496e5f8" d="m89.82,26.43v6h-18.01c-2.19,0-4.24.58-6,1.61-1.82,1.05-3.34,2.57-4.4,4.4-.79,1.36-1.31,2.88-1.51,4.5,0,.05-.01.1-.02.15-.05.44-.08.89-.08,1.35h-6c0-1.64.22-3.23.63-4.74.12-.43.25-.85.39-1.26.79-2.24,2.01-4.27,3.56-6,.45-.5.92-.97,1.42-1.42,1.73-1.55,3.76-2.77,6-3.56,1.88-.67,3.9-1.03,6-1.03h18.01Z"/><rect class="uuid-6143c640-f631-4393-9e5d-6e018496e5f8" x="71.81" y="21.93" width="18.01" height="3"/></g></svg>