<svg xmlns="http://www.w3.org/2000/svg" width="108.164" height="32" viewBox="0 0 108.164 32">
  <g id="Sibapp-Badge-White" transform="translate(-31.732 -16.19)">
    <path id="Path_42427" data-name="Path 42427" d="M34.665,23.315a3.147,3.147,0,0,1-.189.97,2.212,2.212,0,0,1-.485.722,2.035,2.035,0,0,1-.733.461,2.851,2.851,0,0,1-.982.166H31.79v-.97h.485a2.508,2.508,0,0,0,.639-.071.982.982,0,0,0,.45-.248,1.077,1.077,0,0,0,.26-.438,2.768,2.768,0,0,0,.083-.674V20.866h.958Zm-1.183-4.1.7-.71.71.71-.71.71Z" transform="translate(0.011 0.423)"/>
    <path id="Path_42428" data-name="Path 42428" d="M36.08,23.632h-.97V18.06h.97Z" transform="translate(0.618 0.342)"/>
    <path id="Path_42429" data-name="Path 42429" d="M38.86,18.031a.591.591,0,0,1,1.183,0,.532.532,0,0,1-.142.379.662.662,0,0,1-.852,0,.532.532,0,0,1-.189-.379Zm1.065,5.655H38.919v-4.5h1.006Z" transform="translate(1.304 0.229)"/>
    <path id="Path_42430" data-name="Path 42430" d="M45.546,20.812a3.786,3.786,0,0,1-.308,1.562,2.283,2.283,0,0,1-.875,1.029,2.6,2.6,0,0,1-2.626,0,2.26,2.26,0,0,1-.887-1.017,3.549,3.549,0,0,1-.319-1.538v-.39a3.786,3.786,0,0,1,.308-1.562,2.472,2.472,0,0,1,.887-1.041,2.6,2.6,0,0,1,2.626,0,2.366,2.366,0,0,1,.875,1.017,3.608,3.608,0,0,1,.319,1.585Zm-1.053-.355a2.685,2.685,0,0,0-.379-1.538,1.242,1.242,0,0,0-1.077-.532,1.183,1.183,0,0,0-1.065.532,2.626,2.626,0,0,0-.4,1.538V20.8a2.674,2.674,0,0,0,.39,1.538,1.254,1.254,0,0,0,1.088.544,1.183,1.183,0,0,0,1.065-.532,2.674,2.674,0,0,0,.379-1.55Z" transform="translate(1.61 0.24)"/>
    <path id="Path_42431" data-name="Path 42431" d="M48.769,22.115a.722.722,0,0,0-.284-.615,3.029,3.029,0,0,0-1.006-.438,4.98,4.98,0,0,1-1.183-.5,1.538,1.538,0,0,1-.828-1.349,1.467,1.467,0,0,1,.591-1.183,2.366,2.366,0,0,1,1.55-.473,2.484,2.484,0,0,1,1.124.237,1.869,1.869,0,0,1,.781.662,1.763,1.763,0,0,1,.272.946H48.745a.97.97,0,0,0-.3-.745,1.242,1.242,0,0,0-.852-.26,1.289,1.289,0,0,0-.793.213.745.745,0,0,0-.284.615.639.639,0,0,0,.308.556,3.431,3.431,0,0,0,1.006.438,4.732,4.732,0,0,1,1.183.473,1.834,1.834,0,0,1,.627.615,1.668,1.668,0,0,1,.2.816,1.431,1.431,0,0,1-.58,1.183,2.532,2.532,0,0,1-1.573.438,3.088,3.088,0,0,1-1.183-.237,2.165,2.165,0,0,1-.864-.674,1.668,1.668,0,0,1-.3-.994H46.4a.97.97,0,0,0,.331.793,1.514,1.514,0,0,0,.982.284,1.278,1.278,0,0,0,.828-.225.722.722,0,0,0,.225-.58Z" transform="translate(2.492 0.25)"/>
    <path id="Path_42432" data-name="Path 42432" d="M56.046,23.465H55.94a3.111,3.111,0,0,1-.58,0,2.366,2.366,0,0,1-.509-.177,1.715,1.715,0,0,1-.426-.3,1.538,1.538,0,0,1-.3-.438.946.946,0,0,1-.237.248,1.42,1.42,0,0,1-.319.189,1.656,1.656,0,0,1-.343.106h-.355a1.573,1.573,0,0,1-.58-.106,1.36,1.36,0,0,1-.485-.308,1.42,1.42,0,0,1-.331-.485,1.6,1.6,0,0,1-.13-.651,1.632,1.632,0,0,1,.166-.733,2.129,2.129,0,0,1,.414-.556,2.91,2.91,0,0,1,.615-.4,7.266,7.266,0,0,1,.7-.3l-.083-.367.935-.225.71,2.745a.864.864,0,0,0,.2.4.97.97,0,0,0,.308.237.84.84,0,0,0,.331.106h.4Zm-2.366-1.916a.7.7,0,0,0,0-.225,1.455,1.455,0,0,0,0-.225.367.367,0,0,0-.083-.272c-.083-.095,0-.2-.095-.319a3.123,3.123,0,0,0-.935.45.745.745,0,0,0-.319.615.438.438,0,0,0,.071.248.426.426,0,0,0,.166.189.662.662,0,0,0,.225.106.592.592,0,0,0,.248,0,1.183,1.183,0,0,0,.485-.166.627.627,0,0,0,.225-.4Z" transform="translate(3.59 0.509)"/>
    <path id="Path_42433" data-name="Path 42433" d="M60.449,22.1l-.13.083-.284.189a.662.662,0,0,0,.118.177l.166.095H61.3v.958h-.71a1.751,1.751,0,0,1-.828-.2,1.443,1.443,0,0,1-.568-.591l-.639.284a7.476,7.476,0,0,1-.722.26c-.248.071-.509.13-.769.177a4.389,4.389,0,0,1-.793.071H55.09V22.73h1.183a4.068,4.068,0,0,0,.816-.083,6.684,6.684,0,0,0,.84-.2,5.193,5.193,0,0,0,.793-.272,6.045,6.045,0,0,0,.662-.3l-.39-.118-.461-.213-.426-.118-.39-.106-.343-.071a.852.852,0,0,0-.225,0h-.154a.284.284,0,0,0-.13.071.52.52,0,0,0-.095.13.568.568,0,0,0-.095.189l-.887-.272a2.827,2.827,0,0,1,.177-.438,1.526,1.526,0,0,1,.26-.355,1.1,1.1,0,0,1,.355-.237,1.112,1.112,0,0,1,.461-.083l.308.106.414.118.509.154.544.189.521.189.461.166.343.13h.177Zm-4.176-3.4.686-.7.722.71-.71.7Z" transform="translate(4.274 0.333)"/>
    <path id="Path_42434" data-name="Path 42434" d="M61.854,22.007a.154.154,0,0,1,.118,0,.142.142,0,0,1,0,.106v.662a.13.13,0,0,1,0,.118.154.154,0,0,1-.118,0H60.245a.13.13,0,0,1-.154-.154v-.662a.189.189,0,0,1,0-.106.154.154,0,0,1,.118,0Z" transform="translate(5.188 1.056)"/>
    <path id="Path_42435" data-name="Path 42435" d="M63.216,22.007a.2.2,0,0,1,.118,0,.189.189,0,0,1,0,.106v.662a.154.154,0,0,1,0,.118.2.2,0,0,1-.118,0H61.595a.13.13,0,0,1-.154-.154v-.662a.189.189,0,0,1,0-.106.154.154,0,0,1,.118,0Z" transform="translate(5.435 1.056)"/>
    <path id="Path_42436" data-name="Path 42436" d="M62.83,22.271h.5a1.538,1.538,0,0,0,.367,0,.793.793,0,0,0,.225-.118.5.5,0,0,0,.106-.189,1.456,1.456,0,0,0,0-.237V20.544h.958v1.112a.6.6,0,0,0,.154.45.7.7,0,0,0,.485.154h.142a.367.367,0,0,0,.166-.083A.438.438,0,0,0,66.06,22a.686.686,0,0,0,.059-.3V20.52h.958v1.112a.591.591,0,0,0,.154.461.674.674,0,0,0,.532.177.485.485,0,0,0,.189,0,.343.343,0,0,0,.166-.095A.663.663,0,0,0,68.236,22a.769.769,0,0,0,0-.26h0V20.555h.958v1.183a.556.556,0,0,0,.177.438.923.923,0,0,0,.532.13h.379v.958H69.9a2.366,2.366,0,0,1-.686-.083,1.266,1.266,0,0,1-.509-.284,1.29,1.29,0,0,1-.461.272,1.432,1.432,0,0,1-.544.095,2.011,2.011,0,0,1-.627-.083,1.254,1.254,0,0,1-.485-.284,1.751,1.751,0,0,1-.45.272,1.55,1.55,0,0,1-.509.095,1.727,1.727,0,0,1-.639-.095,1.585,1.585,0,0,1-.485-.26,1.881,1.881,0,0,1-1.183.355h-.5Z" transform="translate(5.691 0.792)"/>
    <path id="Path_42437" data-name="Path 42437" d="M71.212,20.35v.367a2.2,2.2,0,0,1,0,.319l.071.367v.651a1.775,1.775,0,0,1-.13.686,1.632,1.632,0,0,1-.343.485,1.5,1.5,0,0,1-.485.272,1.372,1.372,0,0,1-.532.095H69v-.875h1.183a.556.556,0,0,0,.177-.071.757.757,0,0,0,.154-.177.8.8,0,0,0,0-.319,1.431,1.431,0,0,0,0-.213v-.816a.34.34,0,0,0-.059-.237,1.255,1.255,0,0,0,0-.166Zm-1.644-1.562.7-.7.71.71-.71.7Z" transform="translate(6.82 0.348)"/>
    <path id="Path_42438" data-name="Path 42438" d="M80.969,20.764v1.183a.7.7,0,0,0,0,.237.45.45,0,0,0,.106.154.3.3,0,0,0,.142.095.367.367,0,0,0,.142.059h.461v.958H81.3l-.308-.059-.284-.106a.946.946,0,0,1-.248-.177,1.727,1.727,0,0,1-1.183.355H74.9a1.7,1.7,0,0,1-.544-.095,1.313,1.313,0,0,1-.6-.461,1.36,1.36,0,0,1-.26-.568,1.443,1.443,0,0,1,0-.4,1.882,1.882,0,0,1,0-.426.787.787,0,0,1,.083-.426c.083-.142,0-.248.095-.343s0-.166,0-.189l.461.154.461.142a.329.329,0,0,1-.083.248l-.071.3V21.7a2.258,2.258,0,0,0,0,.237.745.745,0,0,0,0,.308.367.367,0,0,0,.13.166.284.284,0,0,0,.154.083h4.59a1.183,1.183,0,0,0,.367,0,.414.414,0,0,0,.225-.118.39.39,0,0,0,.083-.284V20.764Zm-4.6-.319-.651-.651.639-.674.662.674Zm1.621,0-.651-.662.639-.662.674.662Z" transform="translate(7.639 0.536)"/>
    <path id="Path_42439" data-name="Path 42439" d="M82.134,22.007a.154.154,0,0,1,.118,0,.142.142,0,0,1,0,.106v.662a.13.13,0,0,1,0,.118.154.154,0,0,1-.118,0H80.525a.13.13,0,0,1-.154-.154v-.662a.189.189,0,0,1,0-.106.154.154,0,0,1,.118,0Z" transform="translate(8.899 1.056)"/>
    <path id="Path_42440" data-name="Path 42440" d="M83.5,22.007a.2.2,0,0,1,.118,0,.189.189,0,0,1,0,.106v.662a.154.154,0,0,1,0,.118.2.2,0,0,1-.118,0H81.875a.13.13,0,0,1-.154-.154v-.662a.189.189,0,0,1,0-.106.154.154,0,0,1,.118,0Z" transform="translate(9.146 1.056)"/>
    <path id="Path_42441" data-name="Path 42441" d="M83.12,23.778v-.911h1.585a3.549,3.549,0,0,0,.544,0,1.892,1.892,0,0,0,.355-.095.733.733,0,0,0,.2-.13.556.556,0,0,0,.106-.142,4.046,4.046,0,0,1-.923,0,1.739,1.739,0,0,1-.7-.237,1.183,1.183,0,0,1-.438-.473,1.419,1.419,0,0,1-.154-.7,1.5,1.5,0,0,1,.118-.615,1.585,1.585,0,0,1,.343-.568,1.49,1.49,0,0,1,.509-.343,1.455,1.455,0,0,1,.639-.106,1.94,1.94,0,0,1,.556.106,1.632,1.632,0,0,1,.414.26,1.455,1.455,0,0,1,.284.367,2.129,2.129,0,0,1,.189.45,3.891,3.891,0,0,1,.106.509,4.023,4.023,0,0,1,0,.532v.3a2.366,2.366,0,0,1-.213.887,1.585,1.585,0,0,1-.485.556,2.141,2.141,0,0,1-.674.284,4.294,4.294,0,0,1-.793.071Zm1.36-5.808.686-.71.722.722-.71.7Zm.864,2.449a1.017,1.017,0,0,0-.272,0,.556.556,0,0,0-.237.118.5.5,0,0,0-.154.189.473.473,0,0,0-.059.26.5.5,0,0,0,.355.485,1.845,1.845,0,0,0,1.017,0v-.355a1.739,1.739,0,0,0-.095-.355.71.71,0,0,0-.189-.272.7.7,0,0,0-.367-.071Z" transform="translate(9.403 0.196)"/>
    <path id="Path_42442" data-name="Path 42442" d="M88.947,23.632a4.484,4.484,0,0,1-.733,0,1.845,1.845,0,0,1-.509-.154.923.923,0,0,1-.331-.26,1.29,1.29,0,0,1-.2-.379,2.616,2.616,0,0,1-.083-.473c0-.189,0-.379,0-.6v-3.7h.97v3.655a2.874,2.874,0,0,0,0,.5.52.52,0,0,0,.106.3.532.532,0,0,0,.272.13,2.91,2.91,0,0,0,.509,0Z" transform="translate(10.13 0.342)"/>
    <path id="Path_42443" data-name="Path 42443" d="M91.454,20a.343.343,0,0,1,0,.118q0,.106,0,.248V21.7a1.774,1.774,0,0,1-.13.686,1.632,1.632,0,0,1-.343.485,1.5,1.5,0,0,1-.485.272,1.408,1.408,0,0,1-.532.095H88.52v-.875h1.834a.556.556,0,0,0,.177-.071,1.183,1.183,0,0,0,.154-.177.8.8,0,0,0,.059-.319,1.431,1.431,0,0,0,0-.213v-.26a2.369,2.369,0,0,0,0-.284v-.674Zm-2.082,5.347-.71-.615.639-.662.662.662Zm1.621,0-.722-.615.639-.662.662.662Z" transform="translate(10.391 0.697)"/>
    <path id="Path_42444" data-name="Path 42444" d="M94.295,22.949a3.146,3.146,0,0,1-.2.97,2.188,2.188,0,0,1-.473.722,2.082,2.082,0,0,1-.745.461,2.8,2.8,0,0,1-.982.166H91.42V24.3h.473a2.674,2.674,0,0,0,.651-.071.887.887,0,0,0,.438-.248,1.077,1.077,0,0,0,.26-.438,2.283,2.283,0,0,0,.047-.674V20.5h.97Z" transform="translate(10.922 0.789)"/>
    <path id="Path_42445" data-name="Path 42445" d="M95.928,23.409h-.58l-.308-.071-.319-.095L94.26,23.1l.272-.923a6.766,6.766,0,0,0,.7.2,3.975,3.975,0,0,0,.686.118,1.692,1.692,0,0,0,.556,0,.39.39,0,0,0,.308-.225.166.166,0,0,0,0-.13.6.6,0,0,0-.083-.177l-1.443-2.094.8-.532.272.4h0v.083l.118.177.2.3.308.461.544.544a1.609,1.609,0,0,1,.248.615,1.183,1.183,0,0,1-.26.887,1.006,1.006,0,0,1-.26.237,1.763,1.763,0,0,1-.662.26A3.7,3.7,0,0,1,95.928,23.409Z" transform="translate(11.442 0.576)"/>
    <path id="Path_42446" data-name="Path 42446" d="M51.84,39.136l-1.562-3.123a1.668,1.668,0,0,0-1.491-.923H32.4a.674.674,0,0,0-.6.97l1.053,2.047a3.289,3.289,0,0,0,2.934,1.774h15.58a.521.521,0,0,0,.473-.745Z" transform="translate(0 3.458)" fill="#3f434d"/>
    <path id="Path_42447" data-name="Path 42447" d="M41.866,40.52H39.418a.438.438,0,0,0-.438.426v2.366a.438.438,0,0,0,.438.426h2.449a.438.438,0,0,0,.438-.426V40.946a.438.438,0,0,0-.438-.426Z" transform="translate(1.326 4.452)" fill="#3f434d"/>
    <path id="Path_42448" data-name="Path 42448" d="M104.07,36H86.23a.3.3,0,0,1-.284-.4,7.287,7.287,0,0,0,.414-2.449V30.7a.556.556,0,0,0-.556-.556H82.019a.556.556,0,0,0-.556.556V33.18A2.839,2.839,0,0,1,78.624,36H76.979a.3.3,0,0,1-.284-.39,7.287,7.287,0,0,0,.4-2.366V30.755a.556.556,0,0,0-.568-.556H72.709a.568.568,0,0,0-.568.556V33.2a2.827,2.827,0,0,1-2.863,2.816H58.3a1.668,1.668,0,0,0-1.491.923l-1.562,3.123a.521.521,0,0,0,.473.745H69.3a7.855,7.855,0,0,0,6.033-2.792L76.423,40.2a1.053,1.053,0,0,0,.946.58h1.183a7.82,7.82,0,0,0,6.27-3.1l1.112,2.508a1.053,1.053,0,0,0,.958.627h13.794a3.324,3.324,0,0,0,2.946-1.786l1.017-2.058a.662.662,0,0,0-.58-.97Z" transform="translate(4.294 2.553)" fill="#3f434d"/>
    <path id="Path_42449" data-name="Path 42449" d="M80.469,40.52h-6.6a.438.438,0,0,0-.438.426v2.366a.438.438,0,0,0,.438.426h6.6a.438.438,0,0,0,.438-.426V40.946a.438.438,0,0,0-.438-.426Z" transform="translate(7.63 4.452)" fill="#3f434d"/>
    <path id="Path_42450" data-name="Path 42450" d="M49.759,40.52h-6.6a.438.438,0,0,0-.438.426v2.366a.438.438,0,0,0,.438.426h6.6a.438.438,0,0,0,.438-.426V40.946A.438.438,0,0,0,49.759,40.52Z" transform="translate(2.011 4.452)" fill="#3f434d"/>
    <path id="Path_42451" data-name="Path 42451" d="M66.015,40.52H63.578a.426.426,0,0,0-.438.426v2.366a.426.426,0,0,0,.438.426h2.437a.426.426,0,0,0,.438-.426V40.946a.426.426,0,0,0-.438-.426Z" transform="translate(5.747 4.452)" fill="#3f434d"/>
    <path id="Path_42452" data-name="Path 42452" d="M54.4,26.25H50.346a.426.426,0,0,0-.426.414V41.037a.473.473,0,0,0,.473.461h3.963a.461.461,0,0,0,.461-.461V26.664A.414.414,0,0,0,54.4,26.25Z" transform="translate(3.328 1.841)" fill="#3f434d"/>
    <path id="Path_42453" data-name="Path 42453" d="M118.607,28.693a8.281,8.281,0,0,1,1.834,9.925c4.413-7.37,2.745-13.167,2.745-13.167-9.582-4.8-14.965-.71-14.965-.71A15.5,15.5,0,0,1,118.607,28.693Z" transform="translate(13.996 1.267)" fill="#1e5cfc"/>
    <path id="Path_42454" data-name="Path 42454" d="M108.684,29.931a8.163,8.163,0,0,1,9.878-1.845c-7.335-4.436-13.1-2.768-13.1-2.768-4.732,9.641-.71,15.048-.71,15.048a15.651,15.651,0,0,1,3.928-10.434Z" transform="translate(13.071 1.614)" fill="#1e5cfc"/>
    <path id="Path_42455" data-name="Path 42455" d="M110.026,39.783a8.281,8.281,0,0,1-1.845-9.913c-4.389,7.358-2.733,13.167-2.733,13.167,9.582,4.8,14.953.71,14.953.71a15.473,15.473,0,0,1-10.375-3.963Z" transform="translate(13.433 2.503)" fill="#1e5cfc"/>
    <path id="Path_42456" data-name="Path 42456" d="M123.935,28.07A15.627,15.627,0,0,1,120,38.5a8.151,8.151,0,0,1-9.866,1.845c7.323,4.436,13.1,2.756,13.1,2.756C128,33.476,123.935,28.07,123.935,28.07Z" transform="translate(14.346 2.174)" fill="#1e5cfc"/>
    <path id="Path_42457" data-name="Path 42457" d="M120.049,16.19c-6.85.13-7.3,6.116-7.3,6.116C119.635,22.886,120.049,16.19,120.049,16.19Z" transform="translate(14.825)" fill="#1e5cfc"/>
  </g>
</svg>
