<svg xmlns="http://www.w3.org/2000/svg" xmlns:xlink="http://www.w3.org/1999/xlink" width="108.449" height="32" viewBox="0 0 108.449 32">
  <defs>
    <linearGradient id="linear-gradient" x1="1" x2="0.054" y2="1" gradientUnits="objectBoundingBox">
      <stop offset="0" stop-color="#18acf0"/>
      <stop offset="0.465" stop-color="#1b78f1"/>
      <stop offset="1" stop-color="#1c5ff0"/>
    </linearGradient>
  </defs>
  <g id="Sibche-Badge-White" transform="translate(-18.93 -5.656)">
    <circle id="Ellipse_907" data-name="Ellipse 907" cx="0.592" cy="0.592" r="0.592" transform="translate(82.91 13.788)"/>
    <circle id="Ellipse_908" data-name="Ellipse 908" cx="0.592" cy="0.592" r="0.592" transform="translate(84.161 13.788)"/>
    <path id="Path_42310" data-name="Path 42310" d="M21.888,12.187a3.115,3.115,0,0,1-.2.96,2.11,2.11,0,0,1-.48.737,2.233,2.233,0,0,1-.748.469,2.925,2.925,0,0,1-.982.156H18.93v-.871h.547a2.512,2.512,0,0,0,.692-.078,1.116,1.116,0,0,0,.469-.268.994.994,0,0,0,.279-.469,2.233,2.233,0,0,0,.1-.714V9.63h.871Z" transform="translate(0 0.463)"/>
    <path id="Path_42311" data-name="Path 42311" d="M23.341,12.682H22.47V7h.871Z" transform="translate(0.412 0.156)"/>
    <path id="Path_42312" data-name="Path 42312" d="M28.288,12.477H27.25V7.9h1.038Z" transform="translate(0.968 0.261)"/>
    <path id="Path_42313" data-name="Path 42313" d="M34.268,9.756a3.773,3.773,0,0,1-.313,1.6,2.356,2.356,0,0,1-.9,1.061,2.661,2.661,0,0,1-2.7,0,2.411,2.411,0,0,1-.915-1.049,3.718,3.718,0,0,1-.324-1.585V9.433a3.863,3.863,0,0,1,.324-1.608,2.423,2.423,0,0,1,.9-1.116,2.5,2.5,0,0,1,1.351-.368,2.356,2.356,0,0,1,2.233,1.407,3.829,3.829,0,0,1,.324,1.608Zm-1.116-.335a2.691,2.691,0,0,0-.391-1.585,1.384,1.384,0,0,0-2.233,0,2.612,2.612,0,0,0-.4,1.563v.357a2.713,2.713,0,0,0,.391,1.585,1.306,1.306,0,0,0,1.116.558,1.284,1.284,0,0,0,1.116-.547,2.791,2.791,0,0,0,.38-1.6Z" transform="translate(1.185 0.079)"/>
    <path id="Path_42314" data-name="Path 42314" d="M37.987,11.09a.781.781,0,0,0-.29-.636,3.639,3.639,0,0,0-1.038-.447,4.465,4.465,0,0,1-1.195-.5,1.6,1.6,0,0,1-.848-1.4,1.518,1.518,0,0,1,.6-1.239,2.512,2.512,0,0,1,1.6-.48,2.769,2.769,0,0,1,1.116.234,1.887,1.887,0,0,1,.793.681,1.719,1.719,0,0,1,.29.982H37.9a.938.938,0,0,0-.313-.759,1.217,1.217,0,0,0-.871-.279,1.34,1.34,0,0,0-.815.223.759.759,0,0,0-.3.636.692.692,0,0,0,.324.569,3.6,3.6,0,0,0,1.038.447,4.588,4.588,0,0,1,1.116.491,1.753,1.753,0,0,1,.648.625,1.73,1.73,0,0,1,.212.837,1.462,1.462,0,0,1-.514,1.239,2.6,2.6,0,0,1-1.619.458,3.037,3.037,0,0,1-1.239-.246,2.132,2.132,0,0,1-.882-.692,1.7,1.7,0,0,1-.313-1.027h1.116a1.016,1.016,0,0,0,.346.826,1.563,1.563,0,0,0,1,.29,1.306,1.306,0,0,0,.848-.234A.726.726,0,0,0,37.987,11.09Z" transform="translate(1.797 0.085)"/>
    <path id="Path_42315" data-name="Path 42315" d="M46.5,12.566h-.179a2.6,2.6,0,0,1-.592-.067,2.769,2.769,0,0,1-.536-.19,2.032,2.032,0,0,1-.424-.324,1.5,1.5,0,0,1-.3-.447,1.116,1.116,0,0,1-.246.3,2.021,2.021,0,0,1-.368.223,1.864,1.864,0,0,1-.536.123h-.156a1.675,1.675,0,0,1-.391,0,1.451,1.451,0,0,1-.413-.179A1.641,1.641,0,0,1,42,11.684a1.34,1.34,0,0,1-.246-.447,1.831,1.831,0,0,1-.089-.558,1.686,1.686,0,0,1,.167-.759,2.311,2.311,0,0,1,.435-.6,2.836,2.836,0,0,1,.625-.435,5.4,5.4,0,0,1,.737-.313,1.52,1.52,0,0,1,0-.19V8.19l.8-.19.7,2.858a1.038,1.038,0,0,0,.223.458,1.217,1.217,0,0,0,.324.268,1.116,1.116,0,0,0,.357.112H46.5Zm-2.456-1.931a.983.983,0,0,0,0-.179s0-.1,0-.179a.524.524,0,0,0-.056-.268c-.056-.112,0-.212-.078-.324a2.993,2.993,0,0,1-.078-.3A2.668,2.668,0,0,0,42.8,9.92a.971.971,0,0,0-.357.726.614.614,0,0,0,.1.357.714.714,0,0,0,.614.346h0a.793.793,0,0,0,.324-.056.871.871,0,0,0,.368-.234.748.748,0,0,0,.246-.424Z" transform="translate(2.647 0.273)"/>
    <path id="Path_42316" data-name="Path 42316" d="M51.483,11.235a.48.48,0,0,0,.134.19.447.447,0,0,0,.179.089h1.061v.871H52.1a1.9,1.9,0,0,1-.569-.089,1.585,1.585,0,0,1-.469-.257h0a1.228,1.228,0,0,1-.346-.435h-.056a9.088,9.088,0,0,1-.882.368,9.277,9.277,0,0,1-.994.279,4.6,4.6,0,0,1-1.027.112H45.89v-.871h1.864a3.483,3.483,0,0,0,.581,0l.592-.1a1.816,1.816,0,0,0,.581-.167c.19-.067.38-.123.558-.19l.514-.212a4.611,4.611,0,0,0,.413-.223l-1.976-.692a1.317,1.317,0,0,0-.324,0,.569.569,0,0,0-.246,0,.659.659,0,0,0-.2.212,1.306,1.306,0,0,0-.145.279l-.793-.279a2.143,2.143,0,0,1,.234-.514,1.351,1.351,0,0,1,.346-.4,1.116,1.116,0,0,1,.5-.223h.179a1.786,1.786,0,0,1,.458.078l.4.134.357.134.368.134.447.167.592.223.793.29.1.737-.212.134Z" transform="translate(3.138 0.387)"/>
    <path id="Path_42317" data-name="Path 42317" d="M52,11.506h.491a1.362,1.362,0,0,0,.413,0,.569.569,0,0,0,.246-.134.469.469,0,0,0,.123-.2,2.231,2.231,0,0,0,0-.279V9.63h.871v1.195a.659.659,0,0,0,.179.514.737.737,0,0,0,.536.167h.156a.447.447,0,0,0,.19-.1.681.681,0,0,0,.145-.246.971.971,0,0,0,.056-.346V9.63h.871v1.195a.681.681,0,0,0,.167.514.793.793,0,0,0,.558.167.636.636,0,0,0,.2,0,.413.413,0,0,0,.19-.112.525.525,0,0,0,.134-.2.737.737,0,0,0,.067-.29V9.63h.871v1.239a.558.558,0,0,0,.2.48.96.96,0,0,0,.592.156h.413v.871h-.413a2.356,2.356,0,0,1-.714-.1,1.206,1.206,0,0,1-.514-.313,1.116,1.116,0,0,1-.447.313,1.6,1.6,0,0,1-.558.1,1.943,1.943,0,0,1-.659-.1,1.44,1.44,0,0,1-.5-.3,1.518,1.518,0,0,1-.514.3,1.474,1.474,0,0,1-.525.112h0a1.675,1.675,0,0,1-.648-.112A1.462,1.462,0,0,1,53.7,12a1.384,1.384,0,0,1-.581.279,2.233,2.233,0,0,1-.714.1H52Z" transform="translate(3.849 0.463)"/>
    <path id="Path_42318" data-name="Path 42318" d="M60.98,9.12v.134a.4.4,0,0,0,.067.257c.067.1,0,.212.067.346s0,.246.056.368,0,.257,0,.368v.313a1.607,1.607,0,0,1-.134.681,1.4,1.4,0,0,1-.346.48,1.418,1.418,0,0,1-.469.279,1.675,1.675,0,0,1-.525.089H58.58v-.871h1.262a.5.5,0,0,0,.2-.078.636.636,0,0,0,.179-.2.748.748,0,0,0,.067-.357,1.742,1.742,0,0,0,0-.223v-.592l-.067-.3q-.006-.123,0-.246V9.4Z" transform="translate(4.615 0.403)"/>
    <path id="Path_42319" data-name="Path 42319" d="M72.082,11.536v.871H71.49l-.3-.1a.826.826,0,0,1-.268-.123A.915.915,0,0,1,70.675,12a1.719,1.719,0,0,1-1.217.4H64.2a1.451,1.451,0,0,1-.547-.1,1.273,1.273,0,0,1-.469-.29l-.156-.179a1.117,1.117,0,0,1-.145-.257,1.228,1.228,0,0,1-.112-.324,1.618,1.618,0,0,1,0-.413,2.087,2.087,0,0,1,0-.447,1.957,1.957,0,0,1,.089-.458c.033-.145.067-.268.1-.38a1.05,1.05,0,0,1,0-.19l.413.134.413.134a1.519,1.519,0,0,1-.067.223.516.516,0,0,1-.078.324,2.1,2.1,0,0,0-.067.346,1.764,1.764,0,0,0,0,.313.77.77,0,0,0,.078.38.525.525,0,0,0,.179.2.4.4,0,0,0,.2.089h5.381a1.306,1.306,0,0,0,.469-.067.581.581,0,0,0,.246-.156.391.391,0,0,0,.089-.179V9.649h.871v1.306a.525.525,0,0,0,.078.313.614.614,0,0,0,.2.179.737.737,0,0,0,.223.067h.167Z" transform="translate(5.101 0.432)"/>
    <path id="Path_42320" data-name="Path 42320" d="M71,12.55v-.871h1.585a3.349,3.349,0,0,0,.648-.056,1.262,1.262,0,0,0,.38-.123.7.7,0,0,0,.212-.167.681.681,0,0,0,.078-.19h-.5a3.416,3.416,0,0,1-.7-.067,1.619,1.619,0,0,1-.569-.234,1.116,1.116,0,0,1-.368-.435,1.429,1.429,0,0,1-.145-.681,1.63,1.63,0,0,1,.078-.625,1.53,1.53,0,0,1,.335-.5,1.273,1.273,0,0,1,.491-.346,1.351,1.351,0,0,1,.558-.112h.078a1.585,1.585,0,0,1,.547.112,1.462,1.462,0,0,1,.413.268,1.7,1.7,0,0,1,.29.391,2.935,2.935,0,0,1,.19.469,3.485,3.485,0,0,1,.1.514,4.321,4.321,0,0,1,0,.536v.547a1.351,1.351,0,0,1-.089.536,1.306,1.306,0,0,1-.234.4,1.261,1.261,0,0,1-.346.29,2.076,2.076,0,0,1-.458.19,2.467,2.467,0,0,1-.514.112,4.365,4.365,0,0,1-.547,0Zm2.233-3.528h-.324a.525.525,0,0,0-.223.112.692.692,0,0,0-.167.223.938.938,0,0,0-.056.324.525.525,0,0,0,.089.313.592.592,0,0,0,.223.179,1.44,1.44,0,0,0,.313.089h.86V9.87a1.686,1.686,0,0,0-.078-.413.782.782,0,0,0-.212-.324.67.67,0,0,0-.5-.112Z" transform="translate(6.06 0.289)"/>
    <path id="Path_42321" data-name="Path 42321" d="M77.317,12.682a4.321,4.321,0,0,1-.714-.056,1.5,1.5,0,0,1-.491-.156.927.927,0,0,1-.5-.625,2.043,2.043,0,0,1-.089-.48V7h.871v4.365a.581.581,0,0,0,.123.313.491.491,0,0,0,.279.156,3.159,3.159,0,0,0,.525,0Z" transform="translate(6.587 0.156)"/>
    <path id="Path_42322" data-name="Path 42322" d="M79.121,9.12v.391a.7.7,0,0,0,.067.346l.067.368v.681a1.608,1.608,0,0,1-.134.681,1.541,1.541,0,0,1-.335.48,1.686,1.686,0,0,1-.469.279,1.786,1.786,0,0,1-.525.089H77v-.871h1.15a.48.48,0,0,0,.368-.279.625.625,0,0,0,.078-.357,2.135,2.135,0,0,0,0-.223v-.592l-.067-.3a1.584,1.584,0,0,0,0-.246.837.837,0,0,0,0-.167Z" transform="translate(6.759 0.403)"/>
    <path id="Path_42323" data-name="Path 42323" d="M82.307,12.187a2.824,2.824,0,0,1-.2.96,1.965,1.965,0,0,1-.48.737,2.088,2.088,0,0,1-.737.469,3.025,3.025,0,0,1-.982.156H79.36v-.871h.547a2.478,2.478,0,0,0,.681-.078,1.116,1.116,0,0,0,.48-.268,1.217,1.217,0,0,0,.279-.469,2.658,2.658,0,0,0,.089-.714V9.63h.871Z" transform="translate(7.033 0.463)"/>
    <path id="Path_42324" data-name="Path 42324" d="M84.385,12.574h-.726l-.279-.134-.313-.067L82.8,12.25l-.38-.212.435-.759.38.212a1.228,1.228,0,0,0,.324.134l.424.067h.86a1.117,1.117,0,0,0,.38-.1.161.161,0,0,0,.145-.112.145.145,0,0,0,0-.067.5.5,0,0,0,0-.156,1.809,1.809,0,0,0-.167-.313l-.625-.938-.391-.581-.19-.279V9.068L83.749,8.7l.726-.48.246.368v.078s.1.134.19.279l.368.558.625.938a2.289,2.289,0,0,1,.3.659,1.363,1.363,0,0,1,0,.29,1,1,0,0,1-.078.413,1.116,1.116,0,0,1-.48.5,1.853,1.853,0,0,1-.714.223,1.418,1.418,0,0,1-.313,0Z" transform="translate(7.39 0.298)"/>
    <circle id="Ellipse_909" data-name="Ellipse 909" cx="0.592" cy="0.592" r="0.592" transform="translate(20.415 7.793)"/>
    <circle id="Ellipse_910" data-name="Ellipse 910" cx="0.592" cy="0.592" r="0.592" transform="translate(28.151 6.185)"/>
    <circle id="Ellipse_911" data-name="Ellipse 911" cx="0.592" cy="0.592" r="0.592" transform="translate(50.144 7.793)"/>
    <circle id="Ellipse_912" data-name="Ellipse 912" cx="0.592" cy="0.592" r="0.592" transform="translate(64.021 7.793)"/>
    <circle id="Ellipse_913" data-name="Ellipse 913" cx="0.592" cy="0.592" r="0.592" transform="translate(70.44 8.976)"/>
    <circle id="Ellipse_914" data-name="Ellipse 914" cx="0.592" cy="0.592" r="0.592" transform="translate(71.691 8.976)"/>
    <circle id="Ellipse_915" data-name="Ellipse 915" cx="0.592" cy="0.592" r="0.592" transform="translate(77.172 6.844)"/>
    <g id="Artboard" transform="translate(18.93 19.626)">
      <g id="Group-2" transform="translate(0 0)">
        <g id="sibche-typo-2">
          <g id="sibche-typo">
            <path id="Path_42325" data-name="Path 42325" d="M56.15,31.734a2.233,2.233,0,1,1-2.233,2.233A2.233,2.233,0,0,1,56.15,31.734Zm5.828,0a2.233,2.233,0,0,1,2.233,2.233h0a2.233,2.233,0,1,1-2.233-2.233Zm4.466,0a2.233,2.233,0,1,1-2.233,2.233A2.233,2.233,0,0,1,66.444,31.734Zm-25.041,0a2.233,2.233,0,0,1,2.233,2.233h0A2.233,2.233,0,1,1,41.4,31.734Zm-4.466,0a2.233,2.233,0,0,1,2.233,2.233h0a2.233,2.233,0,1,1-2.233-2.233Zm8.931,0a2.226,2.226,0,1,1-.011,0Zm11.99-13.553a.525.525,0,0,1,.525.514v9.433h0v.056a2.233,2.233,0,0,1-2.132,2.177h-1.82a.525.525,0,0,1-.514-.514V18.684a.525.525,0,0,1,.514-.514Zm5.839,0a.525.525,0,0,1,.514.514h0v6.7a.525.525,0,0,0,.525.514H92.857a.514.514,0,0,1,.525.514h0v1.7h0v.067a2.233,2.233,0,0,1-2.121,2.177H60.091a.335.335,0,0,1-.335-.346v-11.3a.514.514,0,0,1,.514-.514Zm-37.544,0a7.234,7.234,0,0,1,6.977,5.493c.357,1.418.335,2.233,1.541,2.233H47.7a.346.346,0,0,0,.335-.335q0-.5,0-.636v-.067A2.233,2.233,0,0,0,45.8,22.636H40.007a4.466,4.466,0,0,1-3.438-1.451,5.381,5.381,0,0,1-.636-2.333v-.089a.514.514,0,0,1,.469-.547h9.277a7.346,7.346,0,0,1,4.678,1.217,6.363,6.363,0,0,1,2.233,4.957v5.47a.525.525,0,0,1-.514.514H33.343a4.577,4.577,0,0,1-4.466-4.633v-.681a2.534,2.534,0,0,0-2.746-2.4A2.568,2.568,0,0,0,23.4,25.092v.648c0,3.941-2.065,4.633-3.952,4.633-.491,0-.514-.156-.514-.614V25.293a7.234,7.234,0,0,1,7.223-7.111Z" transform="translate(-18.93 -18.17)"/>
          </g>
        </g>
      </g>
    </g>
    <g id="logo" transform="translate(103.219 5.656)">
      <path id="Path_42326" data-name="Path 42326" d="M113.632,15.82a11.968,11.968,0,0,1,4.756,7.67A11.7,11.7,0,0,1,115.92,33.1l-.078.1a.625.625,0,0,1-.871.1.77.77,0,0,1-.123-.145,18.443,18.443,0,0,1-2.534-4.789,16.021,16.021,0,0,1-.357-3.26,5.37,5.37,0,0,0-2.847-4.4,5.5,5.5,0,1,0-4.2,10.114,5.749,5.749,0,0,0,4.131-.413.625.625,0,0,1,.793.246l2.69,4.644a.614.614,0,0,1-.223.837h0a12.515,12.515,0,0,1-8.931,1.116,12.37,12.37,0,0,1-7.19-5.381,12.113,12.113,0,0,1-1.6-8.205C95.848,14.971,106.487,10.416,113.632,15.82Zm1.753-10.048h.134a.6.6,0,0,1,.558.659.525.525,0,0,1,0,.19,8.507,8.507,0,0,1-3.349,4.086A9.132,9.132,0,0,1,107,11.823h-.134a.6.6,0,0,1-.558-.67.929.929,0,0,1,0-.167,8.418,8.418,0,0,1,3.271-4.1,9.132,9.132,0,0,1,5.805-1.15Z" transform="translate(-94.431 -5.656)" fill="url(#linear-gradient)"/>
    </g>
  </g>
</svg>
