<svg xmlns="http://www.w3.org/2000/svg" width="296" height="296" viewBox="0 0 296 296">
  <g id="Group_14896" data-name="Group 14896" transform="translate(-632 -520.057)">
    <rect id="Rectangle_873" data-name="Rectangle 873" width="296" height="296" transform="translate(632 520.057)" fill="none"/>
    <g id="Forms-cuate" transform="translate(646.302 529.026)">
      <g id="freepik--background-complete--inject-2" transform="translate(1.737 0)">
        <rect id="Rectangle_6623" data-name="Rectangle 6623" width="21.76" height="7.562" transform="translate(12.144 245.135)" fill="#ebebeb"/>
        <rect id="Rectangle_6624" data-name="Rectangle 6624" width="21.76" height="7.562" transform="translate(0 254.67)" fill="#ebebeb"/>
        <rect id="Rectangle_6625" data-name="Rectangle 6625" width="21.76" height="7.562" transform="translate(125.663 185.679)" fill="#ebebeb"/>
        <rect id="Rectangle_6626" data-name="Rectangle 6626" width="21.76" height="7.562" transform="translate(113.525 195.215)" fill="#ebebeb"/>
        <rect id="Rectangle_6627" data-name="Rectangle 6627" width="21.76" height="7.562" transform="translate(101.436 185.679)" fill="#ebebeb"/>
        <rect id="Rectangle_6628" data-name="Rectangle 6628" width="21.76" height="7.562" transform="translate(242.155 254.67)" fill="#ebebeb"/>
        <rect id="Rectangle_6629" data-name="Rectangle 6629" width="21.76" height="7.562" transform="translate(230.018)" fill="#ebebeb"/>
        <rect id="Rectangle_6630" data-name="Rectangle 6630" width="21.76" height="7.562" transform="translate(242.155 9.535)" fill="#ebebeb"/>
        <rect id="Rectangle_6631" data-name="Rectangle 6631" width="21.76" height="7.562" transform="translate(0)" fill="#ebebeb"/>
        <path id="Path_48170" data-name="Path 48170" d="M155.562,410.738H281.5l2.622-51.678H152.94Z" transform="translate(-86.571 -150.309)" fill="#ebebeb"/>
        <path id="Path_48171" data-name="Path 48171" d="M308.624,385.462H255.973L255,367.52h54.8Zm-52.035-.635h51.454l1.068-16.672H255.676Z" transform="translate(-119.66 -153.052)" fill="#dbdbdb"/>
        <path id="Path_48172" data-name="Path 48172" d="M308.717,416.829H259.1l-.811-16.219h51.441Zm-49.015-.635h48.4l.932-14.921H258.959Z" transform="translate(-120.727 -163.78)" fill="#dbdbdb"/>
        <path id="Path_48173" data-name="Path 48173" d="M298.387,381.6h-8.853l-.554-4.325h9.961Zm-8.292-.635h7.731l.392-3.055H289.7Z" transform="translate(-130.677 -156.213)" fill="#dbdbdb"/>
        <path id="Path_48174" data-name="Path 48174" d="M298.387,413.752h-8.853l-.554-4.332h9.961Zm-8.292-.635h7.731l.392-3.055H289.7Z" transform="translate(-130.677 -166.637)" fill="#dbdbdb"/>
        <path id="Path_48175" data-name="Path 48175" d="M216.967,385.462H164.317l-.987-17.942h54.793Zm-52.036-.635h51.454l1.068-16.672H164Z" transform="translate(-89.939 -153.052)" fill="#dbdbdb"/>
        <path id="Path_48176" data-name="Path 48176" d="M217.077,416.829H167.454l-.8-16.219h51.434Zm-49.015-.635h48.413l.933-14.921H167.319Z" transform="translate(-91.016 -163.78)" fill="#dbdbdb"/>
        <path id="Path_48177" data-name="Path 48177" d="M206.737,381.6h-8.846l-.561-4.325h9.961Zm-8.278-.635h7.731l.392-3.055h-8.528Z" transform="translate(-100.963 -156.213)" fill="#dbdbdb"/>
        <path id="Path_48178" data-name="Path 48178" d="M206.737,413.752h-8.846l-.561-4.332h9.961Zm-8.278-.635h7.731l.392-3.055h-8.528Z" transform="translate(-100.963 -166.637)" fill="#dbdbdb"/>
        <path id="Path_48179" data-name="Path 48179" d="M170.894,435.53l-.791,5.629-1.588,11.313H165.4V435.53Z" transform="translate(-90.611 -175.102)" fill="#ebebeb"/>
        <path id="Path_48180" data-name="Path 48180" d="M170.894,435.53l-.791,5.629h-4.7V435.53Z" transform="translate(-90.611 -175.102)" fill="#dbdbdb"/>
        <path id="Path_48181" data-name="Path 48181" d="M326.47,435.53l.791,5.629,1.588,11.313h3.115V435.53Z" transform="translate(-142.832 -175.102)" fill="#ebebeb"/>
        <path id="Path_48182" data-name="Path 48182" d="M326.47,435.53l.791,5.629h4.7V435.53Z" transform="translate(-142.832 -175.102)" fill="#dbdbdb"/>
      </g>
      <g id="freepik--Form--inject-2" transform="translate(18.692 5.758)">
        <rect id="Rectangle_6632" data-name="Rectangle 6632" width="243.236" height="171.319" transform="translate(0.189 0.176)" fill="#fff"/>
        <path id="Path_48183" data-name="Path 48183" d="M323.225,230.175c-.041.054-243.283.068-243.337.108s0-171.393-.068-171.427V58.68h.169s243.283.122,243.283.1S323.225,230.12,323.225,230.175Zm0,0s-.162-171.65,0-171.244l-243.216.095.176-.169s.047,171.758-.176,171.211l243.236.108Z" transform="translate(-79.82 -58.68)" fill="#263238"/>
        <rect id="Rectangle_6633" data-name="Rectangle 6633" width="243.236" height="6.19" transform="translate(0.189 0.176)" fill="#263238"/>
        <path id="Path_48184" data-name="Path 48184" d="M97.25,62.913a1.25,1.25,0,1,1-1.243-1.243A1.25,1.25,0,0,1,97.25,62.913Z" transform="translate(-84.661 -59.649)" fill="#377dff"/>
        <path id="Path_48185" data-name="Path 48185" d="M104.8,62.913a1.25,1.25,0,1,1-1.25-1.243,1.25,1.25,0,0,1,1.25,1.243Z" transform="translate(-87.108 -59.649)" fill="#fff"/>
        <path id="Path_48186" data-name="Path 48186" d="M112.32,62.913a1.25,1.25,0,1,1-1.243-1.243A1.25,1.25,0,0,1,112.32,62.913Z" transform="translate(-89.546 -59.649)" fill="#455a64"/>
        <rect id="Rectangle_6634" data-name="Rectangle 6634" width="243.168" height="20.267" transform="translate(0.189 6.359)" fill="#377dff"/>
        <path id="Path_48187" data-name="Path 48187" d="M104.209,89.257a.4.4,0,1,1-.791,0v-4.2h0a.392.392,0,0,1,.71-.25l2.338,3.237V85.053a.4.4,0,0,1,.392-.392.406.406,0,0,1,.4.392v4.2a.405.405,0,0,1-.4.4.4.4,0,0,1-.3-.149v-.041l-2.352-3.23Z" transform="translate(-87.47 -67.098)" fill="#fff"/>
        <path id="Path_48188" data-name="Path 48188" d="M111,89.23V84.959a.392.392,0,0,1,.4-.4h2.365a.405.405,0,0,1,.4.4.412.412,0,0,1-.4.405H111.8v1.352h1.683a.405.405,0,0,1,0,.8H111.8v1.352h1.96a.405.405,0,0,1,0,.8h-2.345A.4.4,0,0,1,111,89.23Z" transform="translate(-89.928 -67.071)" fill="#fff"/>
        <path id="Path_48189" data-name="Path 48189" d="M123.872,85.188,122.1,89.4a.224.224,0,0,1-.041.068h0v.041h-.054l-.061.041h-.277a.128.128,0,0,1-.068-.041h-.054v-.041h0V89.4l-.946-2.244-.946,2.244v.068h0l-.047.041h-.041l-.061.041h0a.081.081,0,0,0-.061,0h-.48l-.068-.041h-.047a.228.228,0,0,1-.041-.041h0a.085.085,0,0,0-.034-.068l-1.791-4.217a.4.4,0,0,1,.737-.3l1.412,3.379.939-2.223a.4.4,0,0,1,.372-.243.419.419,0,0,1,.378.243l.892,2.223,1.412-3.379a.4.4,0,0,1,.527-.209.392.392,0,0,1,.216.514Z" transform="translate(-91.86 -67.097)" fill="#fff"/>
        <path id="Path_48190" data-name="Path 48190" d="M132.329,89.23V84.959a.392.392,0,0,1,.4-.4h2.365a.405.405,0,0,1,0,.8h-1.96v1.352h1.676a.405.405,0,0,1,0,.8h-1.683v1.737a.406.406,0,0,1-.405.4.392.392,0,0,1-.392-.426Z" transform="translate(-96.844 -67.071)" fill="#fff"/>
        <path id="Path_48191" data-name="Path 48191" d="M142.478,85.12a2.663,2.663,0,0,1,0,3.663,2.359,2.359,0,0,1-1.73.777,2.426,2.426,0,0,1-1.771-.777,2.7,2.7,0,0,1,0-3.663,2.419,2.419,0,0,1,1.771-.77A2.352,2.352,0,0,1,142.478,85.12Zm-.095,1.831a1.865,1.865,0,0,0-.493-1.264,1.554,1.554,0,0,0-2.311,0,1.832,1.832,0,0,0-.493,1.264,1.8,1.8,0,0,0,.493,1.257,1.527,1.527,0,0,0,2.311,0A1.831,1.831,0,0,0,142.383,86.952Z" transform="translate(-98.768 -67.003)" fill="#fff"/>
        <path id="Path_48192" data-name="Path 48192" d="M151,89.027a.405.405,0,0,1-.257.507.672.672,0,0,1-.155,0h0a.506.506,0,0,1-.284-.081.634.634,0,0,1-.23-.25,1.858,1.858,0,0,1-.155-.872.581.581,0,0,0-.088-.311.674.674,0,0,0-.216-.21,1.5,1.5,0,0,0-.405-.176h-.852v1.575a.405.405,0,0,1-.405.4.4.4,0,0,1-.4-.4V84.959a.392.392,0,0,1,.4-.4h1.257a1.548,1.548,0,0,1,.987,2.744,1.232,1.232,0,0,1,.257.27,1.352,1.352,0,0,1,.237.777,1.913,1.913,0,0,0,0,.426A.426.426,0,0,1,151,89.027Zm-1.014-2.913a.75.75,0,0,0-.777-.75h-.885v1.521h.885a.75.75,0,0,0,.777-.77Z" transform="translate(-101.779 -67.071)" fill="#fff"/>
        <path id="Path_48193" data-name="Path 48193" d="M158.739,84.958v4.271a.412.412,0,0,1-.405.4.392.392,0,0,1-.4-.4V86.208l-1.041,1.419a.405.405,0,0,1-.331.169h0a.412.412,0,0,1-.331-.169l-1.047-1.419v3.048a.405.405,0,0,1-.8,0v-4.3a.405.405,0,0,1,.4-.4h0a.4.4,0,0,1,.318.169l1.439,2.027,1.439-2.027a.4.4,0,0,1,.324-.169h0a.412.412,0,0,1,.439.4Z" transform="translate(-103.993 -67.07)" fill="#fff"/>
        <path id="Path_48194" data-name="Path 48194" d="M112.69,115.2v-2.561a.236.236,0,0,1,.237-.236h1.419a.243.243,0,0,1,0,.48H113.17v.791h1.014a.243.243,0,0,1,0,.487H113.17V115.2a.243.243,0,0,1-.243.237A.237.237,0,0,1,112.69,115.2Z" transform="translate(-90.477 -76.097)" fill="#263238"/>
        <path id="Path_48195" data-name="Path 48195" d="M116.975,112.74a.237.237,0,1,1-.466,0v-.095a.237.237,0,0,1,.466,0Zm0,.784v1.689a.237.237,0,1,1-.466,0V113.5a.237.237,0,1,1,.466,0Z" transform="translate(-91.714 -76.113)" fill="#263238"/>
        <path id="Path_48196" data-name="Path 48196" d="M119.641,113.88a.23.23,0,0,1-.23.23.433.433,0,0,0-.257.081.751.751,0,0,0-.2.21,1.393,1.393,0,0,0-.176.365v.824a.237.237,0,0,1-.237.23.23.23,0,0,1-.23-.23v-1.71a.223.223,0,0,1,.23-.223.23.23,0,0,1,.237.223h0a.547.547,0,0,1,.095-.081.919.919,0,0,1,.541-.169.216.216,0,0,1,.23.25Z" transform="translate(-92.299 -76.495)" fill="#263238"/>
        <path id="Path_48197" data-name="Path 48197" d="M120.977,115.274a.23.23,0,0,1,.324,0,.8.8,0,0,0,.48.189.568.568,0,0,0,.3-.081.169.169,0,0,0,.074-.128.054.054,0,0,0,0-.047l-.054-.047a.865.865,0,0,0-.345-.122h0a1.647,1.647,0,0,1-.378-.115.675.675,0,0,1-.3-.25A.547.547,0,0,1,121,114.4a.608.608,0,0,1,.257-.473.892.892,0,0,1,.534-.162,1.108,1.108,0,0,1,.676.237.237.237,0,0,1,.068.324.23.23,0,0,1-.318.061.737.737,0,0,0-.4-.162.439.439,0,0,0-.264.081.122.122,0,0,0-.068.095.075.075,0,0,0,0,.041l.047.041a.913.913,0,0,0,.318.1h0a1.5,1.5,0,0,1,.405.128.636.636,0,0,1,.311.257.514.514,0,0,1,.081.284.615.615,0,0,1-.27.5,1.007,1.007,0,0,1-.568.176,1.277,1.277,0,0,1-.77-.3.243.243,0,0,1-.068-.351Z" transform="translate(-93.148 -76.538)" fill="#263238"/>
        <path id="Path_48198" data-name="Path 48198" d="M125.256,113.471a.243.243,0,0,1-.243.243H124.9v1.21a.237.237,0,0,1,.237.243.23.23,0,0,1-.237.237.487.487,0,0,1-.487-.48v-1.21H124.3a.237.237,0,0,1-.237-.243.23.23,0,0,1,.237-.237h.122v-.628a.243.243,0,0,1,.243-.237.237.237,0,0,1,.243.237v.628h.108a.243.243,0,0,1,.243.237Z" transform="translate(-94.163 -76.087)" fill="#263238"/>
        <path id="Path_48199" data-name="Path 48199" d="M129.433,115.214a.237.237,0,0,1-.473,0v-2.521h0a.237.237,0,0,1,.095-.2.25.25,0,0,1,.331.054l1.4,1.939V112.7a.237.237,0,0,1,.473,0v2.521a.237.237,0,0,1-.419.149h0l-1.385-1.926Z" transform="translate(-95.752 -76.113)" fill="#263238"/>
        <path id="Path_48200" data-name="Path 48200" d="M135.558,114.768v.852a.23.23,0,0,1-.23.23.237.237,0,0,1-.23-.189.946.946,0,0,1-.574.189.993.993,0,0,1-.737-.318,1.129,1.129,0,0,1,0-1.527.987.987,0,0,1,1.311-.135.232.232,0,0,1,.46.047Zm-.46,0a.675.675,0,0,0-.169-.446.561.561,0,0,0-.405-.176.534.534,0,0,0-.406.176.676.676,0,0,0,0,.892.554.554,0,0,0,.406.169.581.581,0,0,0,.405-.169A.676.676,0,0,0,135.1,114.768Z" transform="translate(-97.22 -76.512)" fill="#263238"/>
        <path id="Path_48201" data-name="Path 48201" d="M139.628,114.562V115.6a.23.23,0,0,1-.23.23.236.236,0,0,1-.237-.23v-1.041a.446.446,0,0,0-.885,0v1.061h0a.264.264,0,0,1-.216.135h-.047a.223.223,0,0,1-.182-.223v-.973h0v-.676a.232.232,0,0,1,.439-.108,1.712,1.712,0,0,0,1.818-.128.906.906,0,0,1,.9.912v1.027a.237.237,0,0,1-.466,0v-1.027a.446.446,0,1,0-.892,0Z" transform="translate(-98.628 -76.502)" fill="#263238"/>
        <path id="Path_48202" data-name="Path 48202" d="M143.69,114.768a1.074,1.074,0,0,1,1.061-1.088,1.041,1.041,0,0,1,1.047,1.007h0v.041a.209.209,0,0,1-.223.176H144.19a.613.613,0,0,0,.568.48.716.716,0,0,0,.453-.108.25.25,0,0,1,.324,0,.2.2,0,0,1,0,.284,1.108,1.108,0,0,1-.777.284A1.081,1.081,0,0,1,143.69,114.768Zm.473-.216h1.23a.716.716,0,0,0-.676-.46.608.608,0,0,0-.554.48Z" transform="translate(-100.527 -76.512)" fill="#263238"/>
        <path id="Path_48203" data-name="Path 48203" d="M148.177,113.225l-.3.237a.169.169,0,0,1-.108.041.149.149,0,0,1-.142-.149.176.176,0,0,1,.1-.135l.378-.162-.378-.169a.143.143,0,1,1,.149-.237l.324.243-.041-.392a.138.138,0,1,1,.27,0l-.047.392.331-.243a.169.169,0,0,1,.108-.041.142.142,0,0,1,.041.277l-.378.169.378.162a.162.162,0,0,1,.1.142.142.142,0,0,1-.149.142.163.163,0,0,1-.1-.041l-.331-.243.047.392a.138.138,0,1,1-.27,0Z" transform="translate(-101.805 -76.077)" fill="#377dff"/>
        <rect id="Rectangle_6635" data-name="Rectangle 6635" width="93.211" height="9.252" transform="translate(21.76 42.392)" fill="#ebebeb"/>
        <path id="Path_48204" data-name="Path 48204" d="M112.69,147.038v-2.561a.23.23,0,0,1,.236-.237h1.419a.237.237,0,0,1,.237.237.243.243,0,0,1-.237.243H113.17v.8h1.014a.243.243,0,0,1,0,.48H113.17v.784h1.176a.243.243,0,0,1,0,.48H112.9A.237.237,0,0,1,112.69,147.038Z" transform="translate(-90.477 -86.42)" fill="#263238"/>
        <path id="Path_48205" data-name="Path 48205" d="M118.248,146.39v1.041a.23.23,0,0,1-.23.23.236.236,0,0,1-.237-.23V146.39a.446.446,0,0,0-.885,0v1.074h0a.264.264,0,0,1-.216.135h-.047a.237.237,0,0,1-.182-.23v-1.027h0v-.676a.23.23,0,0,1,.23-.237.216.216,0,0,1,.2.128.945.945,0,0,1,.466-.128.9.9,0,0,1,.676.3.885.885,0,0,1,.676-.3.906.906,0,0,1,.9.912v1.027a.23.23,0,0,1-.46,0v-1.027a.447.447,0,1,0-.892.047Z" transform="translate(-91.696 -86.805)" fill="#263238"/>
        <path id="Path_48206" data-name="Path 48206" d="M124.258,146.608v.852a.23.23,0,0,1-.453.047,1.02,1.02,0,0,1-.581.182,1.007,1.007,0,0,1-.737-.318,1.129,1.129,0,0,1,0-1.527,1.007,1.007,0,0,1,.737-.324,1.027,1.027,0,0,1,.581.189.223.223,0,0,1,.223-.189.237.237,0,0,1,.23.237Zm-.46,0a.676.676,0,0,0-.169-.446.547.547,0,0,0-.405-.176.534.534,0,0,0-.405.176.7.7,0,0,0,0,.9.554.554,0,0,0,.405.169.568.568,0,0,0,.405-.169A.676.676,0,0,0,123.8,146.608Z" transform="translate(-93.557 -86.835)" fill="#263238"/>
        <path id="Path_48207" data-name="Path 48207" d="M126.985,144.58a.237.237,0,1,1-.466,0v-.095a.237.237,0,0,1,.466,0Zm0,.784v1.7a.237.237,0,0,1-.466,0v-1.7a.237.237,0,1,1,.466,0Z" transform="translate(-94.959 -86.436)" fill="#263238"/>
        <path id="Path_48208" data-name="Path 48208" d="M128.463,144.24a.243.243,0,0,1,.243.237v2.561a.243.243,0,0,1-.487,0v-2.561A.243.243,0,0,1,128.463,144.24Z" transform="translate(-95.512 -86.42)" fill="#263238"/>
        <path id="Path_48209" data-name="Path 48209" d="M130.244,145.075l-.324.236a.182.182,0,0,1-.108.041.149.149,0,0,1-.142-.142.156.156,0,0,1,.1-.135l.378-.169-.378-.169a.142.142,0,0,1,.047-.277.142.142,0,0,1,.1.047l.324.237-.041-.385a.142.142,0,0,1,.135-.169.135.135,0,0,1,.135.162l-.047.392.331-.237a.142.142,0,0,1,.108-.047.149.149,0,0,1,.142.142.142.142,0,0,1-.1.135l-.385.169.385.169a.142.142,0,0,1-.047.277.162.162,0,0,1-.1-.04l-.331-.237.047.385a.138.138,0,1,1-.27,0Z" transform="translate(-95.982 -86.403)" fill="#377dff"/>
        <rect id="Rectangle_6636" data-name="Rectangle 6636" width="200.006" height="9.252" transform="translate(21.76 63.909)" fill="#ebebeb"/>
        <path id="Path_48210" data-name="Path 48210" d="M112.49,176.988a1.588,1.588,0,0,1,1.588-1.568,1.656,1.656,0,0,1,1.007.338.264.264,0,0,1,.041.351.257.257,0,0,1-.345.047,1.088,1.088,0,0,0-.676-.236,1.149,1.149,0,0,0-.777.311,1.061,1.061,0,0,0-.318.757,1.048,1.048,0,0,0,.318.75,1.115,1.115,0,0,0,.777.311,1.1,1.1,0,0,0,.676-.236.251.251,0,1,1,.3.4,1.655,1.655,0,0,1-1.007.338,1.588,1.588,0,0,1-1.588-1.561Z" transform="translate(-90.412 -96.529)" fill="#263238"/>
        <path id="Path_48211" data-name="Path 48211" d="M117.657,178.692a1.068,1.068,0,0,1-.3-.764,1.115,1.115,0,0,1,.3-.764,1.014,1.014,0,0,1,.743-.324.973.973,0,0,1,.73.324,1.088,1.088,0,0,1,.3.764,1.041,1.041,0,0,1-.3.764.98.98,0,0,1-.73.331,1.021,1.021,0,0,1-.743-.331Zm.176-.764a.676.676,0,0,0,.155.46.6.6,0,0,0,.412.162.574.574,0,0,0,.4-.162.676.676,0,0,0,.176-.46.622.622,0,0,0-.176-.453.608.608,0,0,0-.4-.162.629.629,0,0,0-.412.162A.676.676,0,0,0,117.833,177.928Z" transform="translate(-91.991 -96.989)" fill="#263238"/>
        <path id="Path_48212" data-name="Path 48212" d="M123.334,177.739v1.041a.23.23,0,0,1-.23.23.236.236,0,0,1-.23-.23v-1.041a.446.446,0,0,0-.453-.439.432.432,0,0,0-.433.439v1.041a.087.087,0,0,1,0,.041.231.231,0,0,1-.46-.041v-1.71a.23.23,0,0,1,.23-.23.223.223,0,0,1,.21.135.831.831,0,0,1,.459-.135.912.912,0,0,1,.906.9Z" transform="translate(-93.343 -96.989)" fill="#263238"/>
        <path id="Path_48213" data-name="Path 48213" d="M126.326,176.658a.243.243,0,0,1-.243.236h-.108v1.21a.243.243,0,0,1,0,.487.48.48,0,0,1-.48-.487v-1.21h-.128a.236.236,0,0,1-.237-.236.23.23,0,0,1,.237-.237h.128v-.635a.243.243,0,0,1,.243-.237.237.237,0,0,1,.237.237v.635h.108A.243.243,0,0,1,126.326,176.658Z" transform="translate(-94.51 -96.571)" fill="#263238"/>
        <path id="Path_48214" data-name="Path 48214" d="M129.558,177.928v.851a.23.23,0,0,1-.23.23.237.237,0,0,1-.23-.189.994.994,0,0,1-.574.189,1.007,1.007,0,0,1-.737-.318,1.115,1.115,0,0,1-.3-.764,1.088,1.088,0,0,1,.3-.764.987.987,0,0,1,1.311-.135.236.236,0,0,1,.23-.189.23.23,0,0,1,.23.23Zm-.46,0a.676.676,0,0,0-.169-.446.528.528,0,0,0-.405-.182.52.52,0,0,0-.405.182.694.694,0,0,0,0,.892.554.554,0,0,0,.406.169.568.568,0,0,0,.405-.169A.676.676,0,0,0,129.1,177.928Z" transform="translate(-95.275 -96.989)" fill="#263238"/>
        <path id="Path_48215" data-name="Path 48215" d="M131.58,177.928a1.1,1.1,0,0,1,1.108-1.088,1.162,1.162,0,0,1,.676.236.243.243,0,0,1,.047.318.23.23,0,0,1-.324.047.722.722,0,0,0-.412-.142.628.628,0,1,0,0,1.25.723.723,0,0,0,.412-.142.237.237,0,0,1,.324.047.25.25,0,0,1-.047.324,1.2,1.2,0,0,1-.676.23A1.1,1.1,0,0,1,131.58,177.928Z" transform="translate(-96.601 -96.989)" fill="#263238"/>
        <path id="Path_48216" data-name="Path 48216" d="M136.346,176.658a.243.243,0,0,1-.243.236h-.108v1.21a.243.243,0,0,1,0,.487.48.48,0,0,1-.48-.487v-1.21h-.128a.236.236,0,0,1-.237-.236.23.23,0,0,1,.237-.237h.128v-.635a.243.243,0,0,1,.243-.237.237.237,0,0,1,.237.237v.635h.108A.243.243,0,0,1,136.346,176.658Z" transform="translate(-97.759 -96.571)" fill="#263238"/>
        <path id="Path_48217" data-name="Path 48217" d="M140.523,178.375a.243.243,0,0,1-.237.243.237.237,0,0,1-.237-.243v-2.494h0a.23.23,0,0,1,.095-.2.237.237,0,0,1,.331.054l1.4,1.94v-1.791a.237.237,0,1,1,.473,0V178.4a.243.243,0,0,1-.237.243.223.223,0,0,1-.176-.088h0l-1.412-2Z" transform="translate(-99.347 -96.598)" fill="#263238"/>
        <path id="Path_48218" data-name="Path 48218" d="M145.766,179.009a.912.912,0,0,1-.906-.906V177.07a.23.23,0,0,1,.46,0V178.1a.439.439,0,0,0,.446.446.453.453,0,0,0,.453-.446V177.07a.23.23,0,0,1,.223-.23.243.243,0,0,1,.237.23V178.1A.919.919,0,0,1,145.766,179.009Z" transform="translate(-100.907 -96.989)" fill="#263238"/>
        <path id="Path_48219" data-name="Path 48219" d="M150.688,177.716h0v1.034a.237.237,0,0,1-.23.23.243.243,0,0,1-.237-.23v-1.034h0a.446.446,0,0,0-.885,0v1.075h0a.236.236,0,0,1-.216.142h-.041a.236.236,0,0,1-.189-.223v-1.034h0V177a.23.23,0,0,1,.23-.23.216.216,0,0,1,.209.128.933.933,0,0,1,.466-.128.905.905,0,0,1,.676.3.872.872,0,0,1,.676-.3.906.906,0,0,1,.906.906v1.034a.23.23,0,0,1-.23.23.236.236,0,0,1-.236-.23v-1.034a.446.446,0,0,0-.885,0Z" transform="translate(-102.213 -96.966)" fill="#263238"/>
        <path id="Path_48220" data-name="Path 48220" d="M155,177.51h0v-1.723a.237.237,0,0,1,.473,0v.818a1.02,1.02,0,0,1,.581-.182,1.088,1.088,0,0,1,0,2.169,1.035,1.035,0,0,1-.588-.189.23.23,0,0,1-.23.189.237.237,0,0,1-.237-.237Zm.473,0a.607.607,0,0,0,.176.426.54.54,0,0,0,.405.182.554.554,0,0,0,.406-.182.581.581,0,0,0,.176-.426.588.588,0,0,0-.176-.439.547.547,0,0,0-.406-.176.534.534,0,0,0-.405.176.615.615,0,0,0-.2.439Z" transform="translate(-104.194 -96.571)" fill="#263238"/>
        <path id="Path_48221" data-name="Path 48221" d="M159,177.921a1.068,1.068,0,0,1,1.054-1.081,1.034,1.034,0,0,1,1.048,1.007h0a.1.1,0,0,1,0,.04.2.2,0,0,1-.223.169h-1.352a.547.547,0,0,0,.149.291.676.676,0,0,0,.412.2.723.723,0,0,0,.453-.115.237.237,0,0,1,.324,0,.2.2,0,0,1,0,.277,1.088,1.088,0,0,1-.777.291A1.075,1.075,0,0,1,159,177.921Zm.473-.21H160.7a.676.676,0,0,0-.642-.459.6.6,0,0,0-.588.459Z" transform="translate(-105.491 -96.989)" fill="#263238"/>
        <path id="Path_48222" data-name="Path 48222" d="M164.358,177.057a.236.236,0,0,1-.236.23.432.432,0,0,0-.257.081.751.751,0,0,0-.2.209,1.3,1.3,0,0,0-.176.365v.824a.237.237,0,0,1-.236.23.23.23,0,0,1-.23-.23v-1.71a.23.23,0,0,1,.23-.23.237.237,0,0,1,.236.23h0a.581.581,0,0,1,.095-.088.966.966,0,0,1,.541-.169.23.23,0,0,1,.236.257Z" transform="translate(-106.795 -96.976)" fill="#263238"/>
        <path id="Path_48223" data-name="Path 48223" d="M166.4,176.389l-.324.236a.189.189,0,0,1-.108.047.149.149,0,0,1-.047-.284l.385-.162-.385-.169a.169.169,0,0,1-.095-.135.149.149,0,0,1,.142-.149.155.155,0,0,1,.108.047l.324.237-.04-.385a.135.135,0,0,1,.135-.162.129.129,0,0,1,.128.155l-.041.392.324-.237a.155.155,0,0,1,.108-.047.142.142,0,0,1,.142.149.156.156,0,0,1-.095.135l-.385.169.385.162a.147.147,0,0,1-.047.284.189.189,0,0,1-.108-.047l-.324-.236.041.385a.135.135,0,1,1-.264.007Z" transform="translate(-107.706 -96.558)" fill="#377dff"/>
        <rect id="Rectangle_6637" data-name="Rectangle 6637" width="200.006" height="9.252" transform="translate(21.76 85.068)" fill="#ebebeb"/>
        <path id="Path_48224" data-name="Path 48224" d="M114.168,208.344h-1.054l-.216.568a.237.237,0,0,1-.223.149h-.081a.237.237,0,0,1-.142-.311l.96-2.555a.243.243,0,0,1,.23-.155.257.257,0,0,1,.23.155l.973,2.521a.243.243,0,0,1-.149.311h-.081a.243.243,0,0,1-.223-.149Zm-.176-.473-.351-.939-.351.939Z" transform="translate(-90.394 -106.456)" fill="#263238"/>
        <path id="Path_48225" data-name="Path 48225" d="M118.5,208.818a.236.236,0,0,1-.23.236.23.23,0,0,1-.23-.189,1.075,1.075,0,1,1-.595-1.98.993.993,0,0,1,.581.182v-.818a.236.236,0,0,1,.243-.23.23.23,0,0,1,.23.23v1.723h0Zm-1.02-1.46a.574.574,0,0,0-.405.176.628.628,0,0,0-.176.439.615.615,0,0,0,.176.432.561.561,0,0,0,.818,0,.609.609,0,0,0,.169-.433.622.622,0,0,0-.169-.439A.574.574,0,0,0,117.476,207.358Z" transform="translate(-91.675 -106.45)" fill="#263238"/>
        <path id="Path_48226" data-name="Path 48226" d="M122.178,207.533a.23.23,0,0,1-.23.23.419.419,0,0,0-.257.081.677.677,0,0,0-.2.209,1.391,1.391,0,0,0-.176.365v.824a.237.237,0,0,1-.243.23.23.23,0,0,1-.23-.23v-1.71a.237.237,0,0,1,.473,0v.034a.54.54,0,0,1,.088-.088.939.939,0,0,1,.547-.169.223.223,0,0,1,.23.223Z" transform="translate(-93.119 -106.868)" fill="#263238"/>
        <path id="Path_48227" data-name="Path 48227" d="M123.12,208.388a1.075,1.075,0,0,1,1.054-1.088,1.034,1.034,0,0,1,1.047,1.007v.061a.216.216,0,0,1-.23.176H123.64a.554.554,0,0,0,.149.284.693.693,0,0,0,.865.088.25.25,0,0,1,.324,0,.2.2,0,0,1,0,.284,1.095,1.095,0,0,1-1.831-.8Zm.473-.216h1.23a.723.723,0,0,0-.676-.46A.608.608,0,0,0,123.593,208.172Z" transform="translate(-93.858 -106.865)" fill="#263238"/>
        <path id="Path_48228" data-name="Path 48228" d="M127.081,208.848a.23.23,0,0,1,.324-.034.8.8,0,0,0,.48.189.568.568,0,0,0,.3-.081.169.169,0,0,0,.074-.128.054.054,0,0,0,0-.041l-.054-.054a.866.866,0,0,0-.351-.122h0a1.648,1.648,0,0,1-.378-.115.676.676,0,0,1-.3-.25.547.547,0,0,1-.074-.277.6.6,0,0,1,.257-.473.892.892,0,0,1,.534-.162,1.128,1.128,0,0,1,.676.237.243.243,0,0,1,.068.324.23.23,0,0,1-.318.061.737.737,0,0,0-.4-.162.419.419,0,0,0-.264.081.122.122,0,0,0-.068.095.075.075,0,0,0,0,.041l.047.041a.751.751,0,0,0,.318.1h0a1.665,1.665,0,0,1,.405.128.676.676,0,0,1,.311.257.582.582,0,0,1,.081.284.622.622,0,0,1-.277.5.987.987,0,0,1-.561.176,1.277,1.277,0,0,1-.77-.3A.23.23,0,0,1,127.081,208.848Z" transform="translate(-95.13 -106.864)" fill="#263238"/>
        <path id="Path_48229" data-name="Path 48229" d="M130.18,208.848a.23.23,0,0,1,.324-.034.777.777,0,0,0,.473.189.534.534,0,0,0,.3-.081c.061-.054.081-.095.081-.128a.054.054,0,0,0,0-.041.121.121,0,0,0-.061-.054.865.865,0,0,0-.345-.122h0a1.5,1.5,0,0,1-.372-.115.723.723,0,0,1-.3-.25.547.547,0,0,1-.074-.277.608.608,0,0,1,.257-.473.919.919,0,0,1,.534-.162,1.149,1.149,0,0,1,.676.237.25.25,0,0,1,.068.324.236.236,0,0,1-.324.061.676.676,0,0,0-.4-.162.4.4,0,0,0-.257.081c-.061.034-.074.074-.074.095v.041c0,.041,0,0,.047.041a.751.751,0,0,0,.318.1h0a1.665,1.665,0,0,1,.405.128.675.675,0,0,1,.3.257.513.513,0,0,1,.081.284.615.615,0,0,1-.27.5.994.994,0,0,1-.568.176,1.3,1.3,0,0,1-.77-.3A.236.236,0,0,1,130.18,208.848Z" transform="translate(-96.134 -106.864)" fill="#263238"/>
        <path id="Path_48230" data-name="Path 48230" d="M133.981,206.849l-.331.243a.169.169,0,0,1-.108.04.149.149,0,0,1-.142-.149.175.175,0,0,1,.1-.135l.378-.162-.378-.169a.143.143,0,1,1,.149-.237l.331.243-.047-.392a.138.138,0,1,1,.27,0l-.041.392.324-.243a.169.169,0,0,1,.108-.041.142.142,0,0,1,.041.277l-.379.169.379.162a.162.162,0,0,1,.1.142.142.142,0,0,1-.149.142.162.162,0,0,1-.1-.04l-.324-.243.041.392a.138.138,0,1,1-.27,0Z" transform="translate(-97.191 -106.433)" fill="#377dff"/>
        <rect id="Rectangle_6638" data-name="Rectangle 6638" width="200.006" height="9.252" transform="translate(21.76 105.659)" fill="#ebebeb"/>
        <path id="Path_48231" data-name="Path 48231" d="M270.72,115.2v-2.561a.236.236,0,0,1,.237-.237.243.243,0,0,1,.243.237v2.318h1.176a.243.243,0,0,1,0,.48h-1.419a.237.237,0,0,1-.237-.237Z" transform="translate(-141.712 -76.097)" fill="#263238"/>
        <path id="Path_48232" data-name="Path 48232" d="M276.008,114.768v.851a.228.228,0,0,1-.453.041.98.98,0,0,1-.581.189,1.014,1.014,0,0,1-.737-.318,1.129,1.129,0,0,1,0-1.527.993.993,0,0,1,1.318-.135.23.23,0,0,1,.453.047Zm-.459,0a.676.676,0,0,0-.169-.446.534.534,0,0,0-.405-.176.514.514,0,0,0-.4.176.676.676,0,0,0,0,.892.527.527,0,0,0,.4.169.554.554,0,0,0,.405-.169.676.676,0,0,0,.156-.446Z" transform="translate(-142.756 -76.512)" fill="#263238"/>
        <path id="Path_48233" data-name="Path 48233" d="M278.063,115.274a.23.23,0,0,1,.324,0,.764.764,0,0,0,.473.189.534.534,0,0,0,.3-.081c.061-.054.081-.095.081-.128a.091.091,0,0,0,0-.047.176.176,0,0,0-.061-.047.865.865,0,0,0-.345-.122h0a1.646,1.646,0,0,1-.378-.115.751.751,0,0,1-.3-.25.548.548,0,0,1-.074-.277.608.608,0,0,1,.257-.473.919.919,0,0,1,.534-.162,1.108,1.108,0,0,1,.676.237.243.243,0,0,1,.074.324.237.237,0,0,1-.324.061.676.676,0,0,0-.4-.162.4.4,0,0,0-.257.081c-.061,0-.074.074-.074.095v.041c0,.041,0,0,.047.041a.866.866,0,0,0,.318.1h0a1.671,1.671,0,0,1,.405.128.676.676,0,0,1,.3.257.513.513,0,0,1,.081.284.615.615,0,0,1-.27.5.993.993,0,0,1-.568.176,1.3,1.3,0,0,1-.77-.3.237.237,0,0,1-.054-.351Z" transform="translate(-144.075 -76.538)" fill="#263238"/>
        <path id="Path_48234" data-name="Path 48234" d="M282.366,113.471a.243.243,0,0,1-.243.243h-.108v1.21a.243.243,0,0,1,.243.243.237.237,0,0,1-.243.237.48.48,0,0,1-.48-.48v-1.21h-.128a.236.236,0,0,1-.236-.243.23.23,0,0,1,.236-.237h.128v-.628a.236.236,0,0,1,.243-.236.23.23,0,0,1,.236.236v.628h.108a.236.236,0,0,1,.243.237Z" transform="translate(-145.1 -76.087)" fill="#263238"/>
        <path id="Path_48235" data-name="Path 48235" d="M286.543,115.214a.237.237,0,0,1-.473,0v-2.521h0a.236.236,0,0,1,.095-.2.25.25,0,0,1,.331.054l1.4,1.939V112.7a.237.237,0,0,1,.473,0v2.521a.237.237,0,0,1-.237.237.223.223,0,0,1-.176-.088h0l-1.392-1.926Z" transform="translate(-146.689 -76.113)" fill="#263238"/>
        <path id="Path_48236" data-name="Path 48236" d="M292.671,114.774v.852a.23.23,0,0,1-.23.23.237.237,0,0,1-.223-.189.98.98,0,0,1-.581.189,1.014,1.014,0,0,1-.737-.318,1.149,1.149,0,0,1,0-1.527.993.993,0,0,1,1.325-.108.236.236,0,0,1,.223-.189.23.23,0,0,1,.23.237Zm-.46,0a.615.615,0,0,0-.169-.446.534.534,0,0,0-.405-.176.514.514,0,0,0-.4.176.676.676,0,0,0,0,.892.527.527,0,0,0,.4.169.554.554,0,0,0,.405-.169.614.614,0,0,0,.182-.446Z" transform="translate(-148.161 -76.518)" fill="#263238"/>
        <path id="Path_48237" data-name="Path 48237" d="M296.747,114.562V115.6a.23.23,0,0,1-.23.23.237.237,0,0,1-.237-.23v-1.041a.446.446,0,0,0-.446-.432.439.439,0,0,0-.439.446V115.6h0a.244.244,0,0,1-.216.135h-.041a.223.223,0,0,1-.189-.223v-.953h0v-.676a.237.237,0,0,1,.23-.237.216.216,0,0,1,.209.128.926.926,0,0,1,1.149.169.892.892,0,0,1,.676-.3.905.905,0,0,1,.906.912v1.027a.23.23,0,0,1-.23.23.236.236,0,0,1-.237-.23v-1.027a.439.439,0,0,0-.439-.446.446.446,0,0,0-.466.446Z" transform="translate(-149.568 -76.502)" fill="#263238"/>
        <path id="Path_48238" data-name="Path 48238" d="M300.81,114.768a1.068,1.068,0,0,1,1.054-1.088,1.034,1.034,0,0,1,1.047,1.007h0v.041a.21.21,0,0,1-.223.176h-1.352a.554.554,0,0,0,.149.284.676.676,0,0,0,.412.2.716.716,0,0,0,.453-.108.25.25,0,0,1,.324,0,.2.2,0,0,1,0,.284,1.081,1.081,0,0,1-.777.284,1.068,1.068,0,0,1-1.088-1.074Zm.466-.216h1.23a.676.676,0,0,0-.642-.46.622.622,0,0,0-.588.48Z" transform="translate(-151.468 -76.512)" fill="#263238"/>
        <path id="Path_48239" data-name="Path 48239" d="M305.281,113.229l-.324.243a.2.2,0,0,1-.108.041.149.149,0,0,1-.149-.149.176.176,0,0,1,.1-.135l.385-.162-.385-.169a.149.149,0,0,1-.1-.135.155.155,0,0,1,.149-.142.182.182,0,0,1,.108.041l.324.243-.047-.392a.142.142,0,0,1,.135-.162.135.135,0,0,1,.135.162l-.041.392.324-.243a.182.182,0,0,1,.108-.041.142.142,0,0,1,.142.142.149.149,0,0,1-.1.135l-.378.169.378.162a.162.162,0,0,1,.1.142.142.142,0,0,1-.149.142.176.176,0,0,1-.1-.041l-.324-.243.041.392a.135.135,0,0,1-.27,0Z" transform="translate(-152.729 -76.081)" fill="#377dff"/>
        <rect id="Rectangle_6639" data-name="Rectangle 6639" width="93.211" height="9.252" transform="translate(128.555 42.392)" fill="#ebebeb"/>
        <path id="Path_48240" data-name="Path 48240" d="M112.49,238.621a1.588,1.588,0,0,1,1.588-1.561,1.615,1.615,0,0,1,1.007.338.248.248,0,0,1-.3.392,1.089,1.089,0,0,0-.676-.237,1.149,1.149,0,0,0-.777.311,1.061,1.061,0,0,0,0,1.514,1.149,1.149,0,0,0,.777.311,1.075,1.075,0,0,0,.676-.243.263.263,0,0,1,.345.054.25.25,0,0,1-.041.345,1.656,1.656,0,0,1-1.007.338A1.581,1.581,0,0,1,112.49,238.621Z" transform="translate(-90.412 -116.513)" fill="#263238"/>
        <path id="Path_48241" data-name="Path 48241" d="M118.043,237.511a.237.237,0,1,1-.473,0v-.095a.237.237,0,1,1,.473,0Zm0,.784v1.689a.23.23,0,0,1-.236.237.236.236,0,0,1-.237-.237V238.3a.237.237,0,1,1,.473,0Z" transform="translate(-92.059 -116.552)" fill="#263238"/>
        <path id="Path_48242" data-name="Path 48242" d="M120.246,238.279a.25.25,0,0,1-.243.243h-.108v1.23a.237.237,0,0,1,.237.243.23.23,0,0,1-.237.237.48.48,0,0,1-.48-.48v-1.21h-.128a.243.243,0,0,1-.237-.243.23.23,0,0,1,.237-.236h.128v-.629a.243.243,0,1,1,.48,0v.629H120A.243.243,0,0,1,120.246,238.279Z" transform="translate(-92.539 -116.542)" fill="#263238"/>
        <path id="Path_48243" data-name="Path 48243" d="M123.491,238.7v1.642a1.027,1.027,0,0,1-1.034,1.034.988.988,0,0,1-.446-.108.23.23,0,0,1-.115-.311.243.243,0,0,1,.311-.095.548.548,0,0,0,.25.061.561.561,0,0,0,.541-.392.866.866,0,0,1-.412.1.912.912,0,0,1-.906-.912V238.7a.23.23,0,0,1,.223-.23.223.223,0,0,1,.23.23v1.02a.446.446,0,0,0,.453.446.439.439,0,0,0,.446-.446V238.7a.223.223,0,0,1,.23-.23A.23.23,0,0,1,123.491,238.7Z" transform="translate(-93.392 -116.97)" fill="#263238"/>
        <path id="Path_48244" data-name="Path 48244" d="M126.184,238.018l-.324.243a.209.209,0,0,1-.108.041.149.149,0,0,1-.142-.149.176.176,0,0,1,.1-.135l.378-.162-.378-.169a.148.148,0,0,1-.1-.135.142.142,0,0,1,.149-.142.149.149,0,0,1,.1.041l.324.243-.041-.392a.138.138,0,1,1,.27,0l-.047.392.331-.243a.17.17,0,0,1,.108-.041.142.142,0,0,1,.142.142.149.149,0,0,1-.1.135l-.378.169.378.162a.162.162,0,0,1,.1.142.149.149,0,0,1-.149.142.215.215,0,0,1-.1-.041l-.331-.243.047.385a.142.142,0,0,1-.135.169.135.135,0,0,1-.135-.162Z" transform="translate(-94.666 -116.539)" fill="#377dff"/>
        <rect id="Rectangle_6640" data-name="Rectangle 6640" width="93.211" height="9.252" transform="translate(21.76 126.724)" fill="#ebebeb"/>
        <path id="Path_48245" data-name="Path 48245" d="M272.84,237.711l-1.595,2.2h1.4a.243.243,0,0,1,.243.243.237.237,0,0,1-.243.237h-2.007v-.041h0v-.054h0l1.588-2.176h-1.4a.243.243,0,0,1-.237-.243.237.237,0,0,1,.237-.243h1.966v.047h0Z" transform="translate(-141.67 -116.698)" fill="#263238"/>
        <path id="Path_48246" data-name="Path 48246" d="M275.05,237.423a.237.237,0,0,1,.237-.243.243.243,0,0,1,.243.243v2.561a.243.243,0,0,1-.243.237.23.23,0,0,1-.237-.237Z" transform="translate(-143.116 -116.552)" fill="#263238"/>
        <path id="Path_48247" data-name="Path 48247" d="M277.98,239.037h-.534v.946a.243.243,0,0,1-.486,0v-2.561a.243.243,0,0,1,.243-.243h.777a.933.933,0,1,1,0,1.858Zm-.534-.48h.534a.446.446,0,1,0,0-.892h-.534Z" transform="translate(-143.735 -116.55)" fill="#263238"/>
        <path id="Path_48248" data-name="Path 48248" d="M282.43,238.621a1.608,1.608,0,0,1,2.6-1.223.257.257,0,0,1,.047.345.25.25,0,0,1-.345.047,1.1,1.1,0,0,0-.676-.237,1.149,1.149,0,0,0-.777.311,1.061,1.061,0,0,0,0,1.514,1.149,1.149,0,0,0,.777.311,1.074,1.074,0,0,0,.676-.243.264.264,0,0,1,.345.054.25.25,0,0,1-.047.345,1.621,1.621,0,0,1-1,.338A1.588,1.588,0,0,1,282.43,238.621Z" transform="translate(-145.509 -116.513)" fill="#263238"/>
        <path id="Path_48249" data-name="Path 48249" d="M287.6,240.322a1.074,1.074,0,0,1-.3-.764,1.1,1.1,0,0,1,.3-.757.994.994,0,0,1,.743-.331.933.933,0,0,1,.723.331,1.075,1.075,0,0,1,.3.757,1.041,1.041,0,0,1-.3.764.953.953,0,0,1-.723.331A1.021,1.021,0,0,1,287.6,240.322Zm.169-.764a.676.676,0,0,0,.162.46.568.568,0,0,0,.412.162.547.547,0,0,0,.4-.162.7.7,0,0,0,0-.912.608.608,0,0,0-.4-.162.629.629,0,0,0-.412.162A.676.676,0,0,0,287.773,239.558Z" transform="translate(-147.088 -116.97)" fill="#263238"/>
        <path id="Path_48250" data-name="Path 48250" d="M293.39,240a.237.237,0,0,1-.237.237.23.23,0,0,1-.23-.189,1.055,1.055,0,0,1-.595.189,1.088,1.088,0,0,1,0-2.169.994.994,0,0,1,.581.183v-.818a.243.243,0,0,1,.48,0v1.716h0Zm-1.061-1.46a.575.575,0,0,0-.406.176.615.615,0,0,0-.176.439.629.629,0,0,0,.176.433.561.561,0,0,0,.818,0,.621.621,0,0,0,.169-.432.615.615,0,0,0-.169-.439A.574.574,0,0,0,292.329,238.541Z" transform="translate(-148.393 -116.568)" fill="#263238"/>
        <path id="Path_48251" data-name="Path 48251" d="M295.38,239.551a1.074,1.074,0,0,1,1.061-1.081,1.034,1.034,0,0,1,1.048,1.034h0v.041a.21.21,0,0,1-.223.176h-1.352a.594.594,0,0,0,.142.284.676.676,0,0,0,.872.088.25.25,0,0,1,.324,0,.2.2,0,0,1,0,.284,1.115,1.115,0,0,1-.777.284,1.081,1.081,0,0,1-1.095-1.108Zm.473-.209h1.23a.676.676,0,0,0-.642-.46A.615.615,0,0,0,295.853,239.342Z" transform="translate(-149.707 -116.97)" fill="#263238"/>
        <path id="Path_48252" data-name="Path 48252" d="M299.861,238.018l-.324.243a.271.271,0,0,1-.108.041.149.149,0,0,1-.148-.149.175.175,0,0,1,.1-.135l.385-.162-.385-.169a.142.142,0,0,1,.047-.277.184.184,0,0,1,.108.041l.324.243-.047-.392a.138.138,0,1,1,.27,0l-.04.392.324-.243a.183.183,0,0,1,.108-.041.142.142,0,0,1,.142.142.148.148,0,0,1-.1.135l-.379.169.379.162a.162.162,0,0,1,.1.142.149.149,0,0,1-.149.142.243.243,0,0,1-.1-.041l-.324-.243.04.385a.142.142,0,0,1-.135.169.135.135,0,0,1-.135-.162Z" transform="translate(-150.972 -116.539)" fill="#377dff"/>
        <rect id="Rectangle_6641" data-name="Rectangle 6641" width="93.211" height="9.252" transform="translate(128.555 126.724)" fill="#ebebeb"/>
        <path id="Path_48253" data-name="Path 48253" d="M113.7,270.107h-.534v.939a.243.243,0,1,1-.48,0v-2.561a.236.236,0,0,1,.236-.237h.777a.933.933,0,1,1,0,1.858Zm-.534-.48h.534a.453.453,0,1,0,0-.9h-.534Z" transform="translate(-90.475 -126.624)" fill="#263238"/>
        <path id="Path_48254" data-name="Path 48254" d="M118.088,270.578v.851a.236.236,0,0,1-.23.23.243.243,0,0,1-.23-.189.993.993,0,0,1-1.311-.128,1.115,1.115,0,0,1-.3-.764,1.081,1.081,0,0,1,.3-.764.973.973,0,0,1,.737-.324.946.946,0,0,1,.574.189.237.237,0,0,1,.23-.189.23.23,0,0,1,.23.23Zm-.46,0a.676.676,0,0,0-.169-.446.541.541,0,0,0-.405-.183.52.52,0,0,0-.405.183.694.694,0,0,0,0,.892.554.554,0,0,0,.405.169.581.581,0,0,0,.405-.169A.676.676,0,0,0,117.628,270.578Z" transform="translate(-91.556 -127.027)" fill="#263238"/>
        <path id="Path_48255" data-name="Path 48255" d="M120.154,271.054a.216.216,0,0,1,.324,0,.8.8,0,0,0,.48.189.678.678,0,0,0,.3-.081.17.17,0,0,0,.074-.135v-.041c0-.041,0-.034-.054-.054a1.153,1.153,0,0,0-.345-.122h0a2.043,2.043,0,0,1-.378-.108.722.722,0,0,1-.3-.257.507.507,0,0,1-.074-.27.615.615,0,0,1,.257-.48.94.94,0,0,1,.534-.155,1.109,1.109,0,0,1,.676.237.23.23,0,0,1,.068.318.223.223,0,0,1-.318.061A.778.778,0,0,0,121,270a.485.485,0,0,0-.264.074.142.142,0,0,0-.068.1.061.061,0,0,0,0,.034.158.158,0,0,0,.047.041.894.894,0,0,0,.318.108h0a1.5,1.5,0,0,1,.405.128.676.676,0,0,1,.311.257.547.547,0,0,1,.081.284.629.629,0,0,1-.27.507,1.008,1.008,0,0,1-.568.176,1.243,1.243,0,0,1-.77-.3.23.23,0,0,1-.068-.351Z" transform="translate(-92.879 -127.044)" fill="#263238"/>
        <path id="Path_48256" data-name="Path 48256" d="M123.249,271.054a.216.216,0,0,1,.324,0,.8.8,0,0,0,.48.189.6.6,0,0,0,.291-.081c.061-.054.081-.095.081-.135a.074.074,0,0,0,0-.041.128.128,0,0,0-.054-.054,1.2,1.2,0,0,0-.351-.122h0a1.911,1.911,0,0,1-.378-.108.744.744,0,0,1-.3-.257.5.5,0,0,1-.068-.27.608.608,0,0,1,.25-.48.967.967,0,0,1,.534-.155,1.136,1.136,0,0,1,.676.237.237.237,0,0,1,.068.318.223.223,0,0,1-.318.061.777.777,0,0,0-.405-.155.446.446,0,0,0-.257.074.121.121,0,0,0-.068.1.061.061,0,0,0,0,.034l.047.041a.846.846,0,0,0,.318.108h0a1.667,1.667,0,0,1,.405.128.675.675,0,0,1,.3.257.561.561,0,0,1,.088.284.635.635,0,0,1-.277.507.987.987,0,0,1-.561.176,1.278,1.278,0,0,1-.777-.3.223.223,0,0,1-.047-.352Z" transform="translate(-93.879 -127.043)" fill="#263238"/>
        <path id="Path_48257" data-name="Path 48257" d="M129.233,269.849l-.716,1.683v.034H128.3a.065.065,0,0,1-.034,0h0v-.034l-.318-.75-.311.75a.061.061,0,0,1,0,.034h-.264v-.034l-1.034-1.683a.223.223,0,0,1,.122-.3.216.216,0,0,1,.291.129l.514,1.169.3-.73a.223.223,0,0,1,.209-.135.23.23,0,0,1,.216.135l.3.73.514-1.169a.216.216,0,0,1,.291-.129A.23.23,0,0,1,129.233,269.849Z" transform="translate(-94.897 -127.042)" fill="#263238"/>
        <path id="Path_48258" data-name="Path 48258" d="M132.017,271.342a1.108,1.108,0,0,1-.3-.764,1.149,1.149,0,0,1,.3-.764,1.014,1.014,0,0,1,.75-.324.953.953,0,0,1,.723.324,1.089,1.089,0,0,1,.3.764,1.054,1.054,0,0,1-.3.764.959.959,0,0,1-.723.331A1.02,1.02,0,0,1,132.017,271.342Zm.176-.764a.676.676,0,0,0,.155.46.6.6,0,0,0,.419.162.588.588,0,0,0,.4-.162.7.7,0,0,0,0-.912.6.6,0,0,0-.818,0A.675.675,0,0,0,132.193,270.578Z" transform="translate(-96.647 -127.027)" fill="#263238"/>
        <path id="Path_48259" data-name="Path 48259" d="M137.088,269.707a.237.237,0,0,1-.23.23.365.365,0,0,0-.257.081.547.547,0,0,0-.2.209,1.3,1.3,0,0,0-.176.365v.824a.237.237,0,0,1-.473,0v-1.71a.23.23,0,0,1,.23-.23.236.236,0,0,1,.243.23h0a.541.541,0,0,1,.088-.088.993.993,0,0,1,.547-.169.23.23,0,0,1,.23.257Z" transform="translate(-97.953 -127.014)" fill="#263238"/>
        <path id="Path_48260" data-name="Path 48260" d="M140.333,271a.237.237,0,0,1-.236.237.243.243,0,0,1-.23-.189,1.034,1.034,0,0,1-.588.189,1.088,1.088,0,0,1,0-2.169,1.055,1.055,0,0,1,.581.176v-.811a.237.237,0,0,1,.473,0v1.716h0Zm-1.054-1.46a.547.547,0,0,0-.405.176.615.615,0,0,0-.176.439.608.608,0,0,0,.176.426.553.553,0,0,0,.405.182.54.54,0,0,0,.405-.182.608.608,0,0,0,.176-.426.615.615,0,0,0-.176-.439.534.534,0,0,0-.405-.176Z" transform="translate(-98.772 -126.609)" fill="#263238"/>
        <path id="Path_48261" data-name="Path 48261" d="M143.121,269.038l-.331.237a.176.176,0,0,1-.108.047.145.145,0,0,1-.041-.284l.378-.162-.378-.176a.142.142,0,0,1-.1-.128.149.149,0,0,1,.149-.149.129.129,0,0,1,.1.047l.331.236-.047-.385a.135.135,0,0,1,.135-.162.129.129,0,0,1,.135.155l-.041.392.324-.236a.142.142,0,0,1,.108-.047.149.149,0,0,1,.142.149.135.135,0,0,1-.1.128l-.379.176.379.162a.145.145,0,0,1-.047.284.177.177,0,0,1-.1-.047l-.324-.237.041.385a.135.135,0,0,1-.135.162.129.129,0,0,1-.135-.156Z" transform="translate(-100.155 -126.596)" fill="#377dff"/>
        <rect id="Rectangle_6642" data-name="Rectangle 6642" width="93.211" height="9.252" transform="translate(21.76 147.68)" fill="#ebebeb"/>
        <path id="Path_48262" data-name="Path 48262" d="M388.1,286.637H345.61V276.71H388.1Zm-41.811-.676h41.135v-8.576H346.286Z" transform="translate(-165.992 -129.368)" fill="#377dff"/>
        <rect id="Rectangle_6643" data-name="Rectangle 6643" width="41.811" height="9.252" transform="translate(128.737 147.68)" fill="#377dff"/>
        <path id="Path_48263" data-name="Path 48263" d="M290.289,283.578a.216.216,0,0,1,.311,0,1.432,1.432,0,0,0,.831.331.932.932,0,0,0,.541-.155.4.4,0,0,0,.189-.318.23.23,0,0,0-.041-.135.33.33,0,0,0-.128-.128,1.632,1.632,0,0,0-.595-.209h0a2.025,2.025,0,0,1-.561-.169.9.9,0,0,1-.406-.338.676.676,0,0,1-.1-.351.8.8,0,0,1,.352-.635,1.263,1.263,0,0,1,.75-.23,1.708,1.708,0,0,1,.946.345.23.23,0,0,1,.061.311.216.216,0,0,1-.311.061,1.305,1.305,0,0,0-.676-.277.817.817,0,0,0-.487.149.351.351,0,0,0-.162.277.252.252,0,0,0,0,.122.357.357,0,0,0,.115.108,1.529,1.529,0,0,0,.547.2h0a2.236,2.236,0,0,1,.6.182.979.979,0,0,1,.433.358.715.715,0,0,1,.1.365.845.845,0,0,1-.372.676,1.352,1.352,0,0,1-.8.25,1.871,1.871,0,0,1-1.108-.439.23.23,0,0,1-.027-.345Z" transform="translate(-148.035 -130.837)" fill="#fff"/>
        <path id="Path_48264" data-name="Path 48264" d="M295.509,284.8a.905.905,0,0,1-.9-.9V282.89a.23.23,0,0,1,.459,0v1.041a.439.439,0,0,0,.439.439.453.453,0,0,0,.46-.439V282.89a.23.23,0,0,1,.223-.23.243.243,0,0,1,.236.23v1.041A.919.919,0,0,1,295.509,284.8Z" transform="translate(-149.458 -131.297)" fill="#fff"/>
        <path id="Path_48265" data-name="Path 48265" d="M298.61,283.283h0V281.56a.237.237,0,0,1,.473,0v.818a1.007,1.007,0,0,1,.581-.182,1.088,1.088,0,1,1-.588,1.987.236.236,0,0,1-.466-.054Zm.473,0a.615.615,0,0,0,.176.433.534.534,0,0,0,.405.176.548.548,0,0,0,.406-.176.615.615,0,0,0,.176-.433.628.628,0,0,0-.176-.439.575.575,0,0,0-.406-.176.56.56,0,0,0-.405.176A.629.629,0,0,0,299.083,283.283Z" transform="translate(-150.755 -130.866)" fill="#fff"/>
        <path id="Path_48266" data-name="Path 48266" d="M304.671,283.522v1.041a.23.23,0,1,1-.46,0v-1.041a.453.453,0,0,0-.453-.433.439.439,0,0,0-.432.446v1.027h0a.263.263,0,0,1-.216.135h-.047a.237.237,0,0,1-.182-.23v-.906h0v-.676a.23.23,0,0,1,.23-.237.223.223,0,0,1,.21.128,1.712,1.712,0,0,0,1.818-.128.905.905,0,0,1,.906.912v1.027a.237.237,0,0,1-.466,0v-1.027a.446.446,0,0,0-.439-.446A.453.453,0,0,0,304.671,283.522Z" transform="translate(-152.139 -131.294)" fill="#fff"/>
        <path id="Path_48267" data-name="Path 48267" d="M309.433,281.654a.237.237,0,1,1-.473,0v-.095a.236.236,0,0,1,.237-.23.229.229,0,0,1,.236.23Zm0,.784v1.69a.229.229,0,0,1-.236.237.236.236,0,0,1-.237-.237v-1.669a.236.236,0,0,1,.237-.236.23.23,0,0,1,.236.236Z" transform="translate(-154.11 -130.866)" fill="#fff"/>
        <path id="Path_48268" data-name="Path 48268" d="M311.613,282.468a.243.243,0,0,1-.243.243h-.108v1.21a.236.236,0,0,1,.237.243.23.23,0,0,1-.237.236.486.486,0,0,1-.487-.48v-1.21h-.122a.243.243,0,1,1,0-.48h.142V281.6a.243.243,0,1,1,.486,0v.629h.108A.243.243,0,0,1,311.613,282.468Z" transform="translate(-154.567 -130.876)" fill="#fff"/>
        <path id="Path_48269" data-name="Path 48269" d="M366.57,282.761a1.608,1.608,0,0,1,2.6-1.223.25.25,0,1,1-.3.392,1.073,1.073,0,0,0-.676-.236,1.177,1.177,0,0,0-.784.311,1.075,1.075,0,0,0-.318.757,1.048,1.048,0,0,0,.318.757,1.175,1.175,0,0,0,.784.311,1.081,1.081,0,0,0,.676-.237.264.264,0,0,1,.352.047.25.25,0,0,1-.047.345,1.608,1.608,0,0,1-2.595-1.223Z" transform="translate(-172.788 -130.824)" fill="#377dff"/>
        <path id="Path_48270" data-name="Path 48270" d="M373.378,283.7v.852a.23.23,0,0,1-.23.23.237.237,0,0,1-.23-.182.985.985,0,0,1-.574.182,1.007,1.007,0,0,1-.737-.318,1.128,1.128,0,0,1,0-1.527,1.007,1.007,0,0,1,.737-.324.993.993,0,0,1,.574.189.232.232,0,0,1,.46.047Zm-.46,0a.674.674,0,0,0-.169-.446.546.546,0,0,0-.405-.176.534.534,0,0,0-.406.176.676.676,0,0,0,0,.892.554.554,0,0,0,.406.169.567.567,0,0,0,.405-.169A.675.675,0,0,0,372.918,283.7Z" transform="translate(-174.325 -131.281)" fill="#377dff"/>
        <path id="Path_48271" data-name="Path 48271" d="M377.374,283.565V284.6a.226.226,0,1,1-.453,0v-1.034a.446.446,0,0,0-.453-.439.433.433,0,0,0-.432.439V284.6a.135.135,0,0,1,0,.047.243.243,0,0,1-.23.182.23.23,0,0,1-.237-.23v-1.71a.234.234,0,0,1,.446-.094.872.872,0,0,1,.46-.135A.906.906,0,0,1,377.374,283.565Z" transform="translate(-175.706 -131.297)" fill="#377dff"/>
        <path id="Path_48272" data-name="Path 48272" d="M379.28,283.7a1.1,1.1,0,0,1,1.1-1.088,1.163,1.163,0,0,1,.676.237.243.243,0,0,1,.047.324.23.23,0,0,1-.325.041.674.674,0,0,0-.412-.135.622.622,0,0,0,0,1.243.715.715,0,0,0,.412-.135.23.23,0,0,1,.324.047.237.237,0,0,1-.047.318,1.2,1.2,0,0,1-.676.23A1.1,1.1,0,0,1,379.28,283.7Z" transform="translate(-176.909 -131.281)" fill="#377dff"/>
        <path id="Path_48273" data-name="Path 48273" d="M382.85,283.7a1.075,1.075,0,0,1,1.061-1.088,1.034,1.034,0,0,1,1.068,1.007v.061a.21.21,0,0,1-.23.176H383.4a.525.525,0,0,0,.149.284.7.7,0,0,0,.865.088.258.258,0,0,1,.331,0,.21.21,0,0,1,0,.284,1.11,1.11,0,0,1-.777.284,1.075,1.075,0,0,1-1.115-1.095Zm.473-.216h1.23a.723.723,0,0,0-.642-.46A.608.608,0,0,0,383.323,283.482Z" transform="translate(-178.066 -131.281)" fill="#377dff"/>
        <path id="Path_48274" data-name="Path 48274" d="M387.267,281.33a.243.243,0,0,1,.243.236v2.561a.243.243,0,0,1-.48,0v-2.561A.236.236,0,0,1,387.267,281.33Z" transform="translate(-179.421 -130.866)" fill="#377dff"/>
      </g>
      <g id="freepik--Floor--inject-2" transform="translate(0 277.058)">
        <path id="Path_48275" data-name="Path 48275" d="M52.16,460.45c85.656-.412,181.739-.419,267.4,0C233.9,460.869,137.816,460.863,52.16,460.45Z" transform="translate(-52.16 -460.139)" fill="#263238"/>
      </g>
      <g id="freepik--Character--inject-2" transform="translate(173.933 24.956)">
        <path id="Path_48276" data-name="Path 48276" d="M310.292,437.775c1.649.541,48.778-.061,50.556-1.23.676-.426,1-7.3,1.135-15.611v-.264c.034-1.71.061-3.48.061-5.264v-.737l-2.277-24.45-31.526.3,3.109,24.22.034.96.189,5.014v.513s-17.942,8.3-19.76,9.785S308.636,437.255,310.292,437.775Z" transform="translate(-309.54 -185.368)" fill="#eb9481"/>
        <path id="Path_48277" data-name="Path 48277" d="M310.292,449.505c1.649.541,48.778-.061,50.556-1.23.676-.426,1-7.3,1.135-15.611V432.4c.034-1.71.061-3.48.061-5.264V426.4l-30.694.074.034.96.189,5.014v.514s-17.942,8.3-19.76,9.786S308.636,448.985,310.292,449.505Z" transform="translate(-309.54 -197.098)" fill="#ebebeb"/>
        <path id="Path_48278" data-name="Path 48278" d="M310.283,452.381c.852.277,13.658.25,26.173,0,2.514-.054,5.014-.108,7.4-.176,8.927-.243,16.3-.608,16.989-1.054s.987-7.109,1.122-15.266v-.615h-.041l-30.37.054v.514s-17.935,8.3-19.753,9.779S308.634,451.854,310.283,452.381Z" transform="translate(-309.539 -199.974)" fill="#377dff"/>
        <path id="Path_48279" data-name="Path 48279" d="M311.34,457.622c7.941-.3,40-.743,47.873-.432.068,0,.068.047,0,.054-7.859.466-39.925.676-47.873.507C311.178,457.75,311.172,457.629,311.34,457.622Z" transform="translate(-310.083 -207.046)" fill="#263238"/>
        <path id="Path_48280" data-name="Path 48280" d="M337.044,435.416c3.122-.622,6.947-.189,9.366,2.027.095.088,0,.216-.128.189a44.057,44.057,0,0,0-9.218-1.8.21.21,0,0,1-.02-.419Z" transform="translate(-318.392 -199.937)" fill="#263238"/>
        <path id="Path_48281" data-name="Path 48281" d="M333.733,437.475c3.115-.622,6.947-.2,9.366,2.027.095.088-.034.223-.135.189a43.949,43.949,0,0,0-9.218-1.8.21.21,0,1,1-.013-.419Z" transform="translate(-317.317 -200.604)" fill="#263238"/>
        <path id="Path_48282" data-name="Path 48282" d="M330.423,439.526c3.115-.622,6.947-.189,9.36,2.027.094.088,0,.216-.129.189a43.621,43.621,0,0,0-9.218-1.8.21.21,0,1,1-.013-.419Z" transform="translate(-316.244 -201.27)" fill="#263238"/>
        <path id="Path_48283" data-name="Path 48283" d="M349.37,452.381c2.514-.054,5.014-.108,7.4-.176,8.927-.243,16.3-.608,16.99-1.054s.987-7.109,1.122-15.266v-.615h-.04C370.7,438.189,356.033,447.927,349.37,452.381Z" transform="translate(-322.452 -199.974)" opacity="0.1"/>
        <path id="Path_48284" data-name="Path 48284" d="M337.492,357.462h33.945s-6.819-79.27-6.548-80.655c.345-1.771,2.352-9.792,5.021-20.274.831-3.284,1.737-6.8,2.7-10.448,2.528-9.86,5.325-20.639,7.751-30.018a207.26,207.26,0,0,1,6.5-21.287h-28.8s-23.652,67.7-24.585,81.689C332.66,288.667,337.492,357.462,337.492,357.462Z" transform="translate(-317.272 -122.004)" fill="#263238"/>
        <path id="Path_48285" data-name="Path 48285" d="M341.654,426.827c5.183-.108,3.7-.149,8.88-.2,2.534,0,19.206-.162,21.578.23.054,0,.054.095,0,.108-2.372.392-19.044.243-21.578.216-5.183-.054-3.7-.095-8.88-.2a.074.074,0,1,1,0-.148Z" transform="translate(-319.927 -197.16)" fill="#37474f"/>
        <path id="Path_48286" data-name="Path 48286" d="M370.151,275.426c1.115-4.906,2.778-9.711,4.224-14.529q4.42-14.678,8.887-29.336c1.487-4.886,8.386-23.173,9.069-25.606.277-.987.426-.446.074.811-.716,2.534-12.509,38.783-15.489,48.717l-4.5,14.935a60.471,60.471,0,0,0-1.831,7.224,33.237,33.237,0,0,0-.3,7.731c.324,5.19.926,10.38,1.406,15.543s.953,10.387,1.433,15.543q1.439,15.5,2.838,31c.115,1.311.23,2.615.331,3.926.034.439-.628.406-.676,0-1.115-10.218-1.967-20.47-2.926-30.7s-1.906-20.362-2.852-30.546c-.237-2.554-.514-5.116-.514-7.684A31.865,31.865,0,0,1,370.151,275.426Z" transform="translate(-328.92 -125.462)" fill="#37474f"/>
        <path id="Path_48287" data-name="Path 48287" d="M374.74,194.77c1.994,15.449,5.8,40.743,8.569,61.76,6.488-25.464,16.929-61.753,16.929-61.753Z" transform="translate(-330.678 -122)" fill="#37474f"/>
        <path id="Path_48288" data-name="Path 48288" d="M362.232,438.553c1.649.541,48.778.108,50.562-1.048.676-.426,1.021-7.3,1.189-15.611v-.263c.034-1.71.068-3.474.074-5.265v-.737c.108-12-.75-24.45-.75-24.45l-30.809.2.858,24.22.034.96.169,5.014v.514s-17.962,8.238-19.794,9.711S360.576,438.019,362.232,438.553Z" transform="translate(-326.38 -185.679)" fill="#eb9481"/>
        <path id="Path_48289" data-name="Path 48289" d="M362.232,450.267c1.649.541,48.778.108,50.562-1.048.676-.426,1.021-7.3,1.189-15.611v-.263c.034-1.71.068-3.474.074-5.264v-.737l-30.7-.034.034.96.169,5.014v.513s-17.962,8.238-19.794,9.711S360.576,449.733,362.232,450.267Z" transform="translate(-326.38 -197.393)" fill="#ebebeb"/>
        <path id="Path_48290" data-name="Path 48290" d="M362.233,453.133c1.649.541,48.778.108,50.562-1.048.676-.426,1.021-7.3,1.189-15.611v-.264l-30.41-.061v.514s-17.962,8.238-19.794,9.711S360.578,452.6,362.233,453.133Z" transform="translate(-326.382 -200.259)" fill="#377dff"/>
        <path id="Path_48291" data-name="Path 48291" d="M363.289,458.377c7.941-.27,40.007-.595,47.873-.257.068,0,.068.047,0,.047-7.866.439-39.925.507-47.873.338C363.12,458.5,363.12,458.384,363.289,458.377Z" transform="translate(-326.924 -207.335)" fill="#263238"/>
        <path id="Path_48292" data-name="Path 48292" d="M389.108,436.2c3.122-.608,6.947-.162,9.36,2.027.095.088,0,.216-.135.189a43.484,43.484,0,0,0-9.2-1.831.2.2,0,0,1-.02-.385Z" transform="translate(-335.294 -200.195)" fill="#263238"/>
        <path id="Path_48293" data-name="Path 48293" d="M385.751,438.249c3.122-.615,6.947-.169,9.36,2.027.095.088-.034.216-.135.189a43.87,43.87,0,0,0-9.211-1.791.213.213,0,0,1-.013-.426Z" transform="translate(-334.181 -200.857)" fill="#263238"/>
        <path id="Path_48294" data-name="Path 48294" d="M382.438,440.289c3.122-.615,6.947-.169,9.36,2.027.095.081-.034.216-.135.182a43.889,43.889,0,0,0-9.211-1.811.2.2,0,1,1-.014-.4Z" transform="translate(-333.111 -201.519)" fill="#263238"/>
        <path id="Path_48295" data-name="Path 48295" d="M370.2,194.76a111.612,111.612,0,0,0,3.8,20.99c.257.9.527,1.784.825,2.636a86.129,86.129,0,0,1,7.555,4.237s.331,11.076.676,23.423c.365,13.806.743,29.207.676,32.472-.291,12.218,1.514,79.4,1.514,79.4l33.931.149s-6.116-75.012-6.082-79.513c.068-7.2-1.791-32.188-3.109-55.381-.108-1.946,1.061-6.19.953-7.88-.676-10.691-2.257-20.557-2.257-20.557Z" transform="translate(-329.206 -121.991)" fill="#263238"/>
        <path id="Path_48296" data-name="Path 48296" d="M394.106,427.242c5.183-.081,3.7-.135,8.88-.155,2.541,0,19.213-.088,21.578.318a.054.054,0,0,1,0,.1c-2.372.385-19.044.162-21.578.128-5.183-.074-3.7-.108-8.88-.237C394.011,427.39,394.011,427.242,394.106,427.242Z" transform="translate(-336.933 -197.318)" fill="#37474f"/>
        <path id="Path_48297" data-name="Path 48297" d="M412.879,214.929c-.838-.216-1.73-.284-2.581-.419-.676-.108-1.352-.23-2.028-.378a8.975,8.975,0,0,1-3.622-1.527c-1.689-1.352-3.636-8.022-3.872-8.447-.405-.737-.284-.054-.284,0a37.346,37.346,0,0,0,2.223,7.7c1.257,2.027,3.514,2.811,5.764,3.1.676.081,1.291.128,1.94.162a13.592,13.592,0,0,0,2.46,0,.115.115,0,0,0,0-.189Z" transform="translate(-339.021 -124.934)" fill="#37474f"/>
        <path id="Path_48298" data-name="Path 48298" d="M363.231,212.989a6.247,6.247,0,0,1,1.156-.419,8.8,8.8,0,0,0,.919-.378,3.6,3.6,0,0,0,1.622-1.527c.757-1.352,1.629-8.022,1.737-8.447.182-.737.122-.054.122,0a74.889,74.889,0,0,1-.993,7.718c-.561,2.027-1.575,2.811-2.582,3.1a6.41,6.41,0,0,1-.872.169,2.847,2.847,0,0,1-1.095,0C363.184,213.2,363.17,213.023,363.231,212.989Z" transform="translate(-326.934 -124.305)" fill="#37474f"/>
        <path id="Path_48299" data-name="Path 48299" d="M377.069,229.992a60.494,60.494,0,0,1,9.555,4.453.108.108,0,0,1-.088.2c-3.217-1.352-6.5-2.7-9.637-4.264a.21.21,0,1,1,.169-.385Z" transform="translate(-331.337 -133.414)" fill="#37474f"/>
        <path id="Path_48300" data-name="Path 48300" d="M375.669,197.3c0-.108.2-.135.2,0a106.328,106.328,0,0,0,.541,10.752c.149,1.662,1.48,10.813,4.359,10.137.48-.108.723-.588.8-1.311a11.84,11.84,0,0,0-.385-2.811c-.318-1.919-.574-3.845-.737-5.778a52.43,52.43,0,0,1,.115-10.846.095.095,0,0,1,.182,0,99.87,99.87,0,0,0,.878,14.969c.358,2.379,1.561,5.967-.932,6.339s-4.183-5.643-4.494-7.285A54.779,54.779,0,0,1,375.669,197.3Z" transform="translate(-330.904 -122.79)" fill="#37474f"/>
        <path id="Path_48301" data-name="Path 48301" d="M382.906,228.521a15.271,15.271,0,0,1,.642,1.9,4.293,4.293,0,0,1,.27,1.561.108.108,0,0,1-.2.041,5.488,5.488,0,0,1-.676-1.52c-.223-.588-.453-1.169-.676-1.764a.335.335,0,1,1,.635-.216Z" transform="translate(-333.114 -132.869)" fill="#37474f"/>
        <path id="Path_48302" data-name="Path 48302" d="M420.45,197.19c.568,3.122,1.108,6.251,1.595,9.387a61.949,61.949,0,0,1,1.122,9.556,38.016,38.016,0,0,0-.993,6.947c2.46,39.682,3.6,86.44,6.467,125.98-1.75-12.576-2.331-25.288-3.224-37.952-1.8-29.262-3-58.652-4.055-87.96a36.723,36.723,0,0,1,1.156-7.17c-.041-5.481-1.446-13.293-2.068-18.807Z" transform="translate(-345.498 -122.779)" fill="#37474f"/>
        <path id="Path_48303" data-name="Path 48303" d="M363.419,133.032c-14.5,12.772-27.951,26.781-29.059,34-1.554,9.995,4.568,12.84,7.326,12.894,7.508.162,21.5-30.12,26.356-41.683C372.772,127.01,366.6,130.227,363.419,133.032Z" transform="translate(-317.506 -101.113)" fill="#377dff"/>
        <path id="Path_48304" data-name="Path 48304" d="M364.176,152.393a1.19,1.19,0,0,1-1.19-1.189,1.48,1.48,0,0,0-1.473-1.473h-.926v.284h.926A1.189,1.189,0,0,1,362.7,151.2a1.48,1.48,0,0,0,1.48,1.48h.872v-.291Zm-11.1,23.2a1.189,1.189,0,0,1-1.189-1.189,1.48,1.48,0,0,0-1.48-1.473h-.919v.291h.919A1.183,1.183,0,0,1,351.6,174.4a1.48,1.48,0,0,0,1.48,1.48h.872v-.291Zm-11.1-5.508a1.189,1.189,0,0,1,0-1.683,1.473,1.473,0,0,0,0-2.088l-.676-.676-.2.21.676.676a1.2,1.2,0,0,1,0,1.683,1.467,1.467,0,0,0,0,2.088l.615.615.2-.2Zm3.589,11.3-.676.676a1.189,1.189,0,0,1-1.683,0,1.48,1.48,0,0,0-2.088,0l-.615.615.2.2.615-.615a1.2,1.2,0,0,1,1.683,0,1.473,1.473,0,0,0,2.088,0l.676-.676Zm9.076-21.179-.676.676a1.19,1.19,0,0,1-1.683,0,1.48,1.48,0,0,0-2.088,0l-.615.615.2.209.615-.622a1.2,1.2,0,0,1,1.683,0,1.473,1.473,0,0,0,2.088,0l.676-.676Z" transform="translate(-319.58 -107.398)" fill="#fff"/>
        <path id="Path_48305" data-name="Path 48305" d="M370.888,138.33c-4.873,11.563-18.861,41.845-26.356,41.683a5.972,5.972,0,0,1-1.642-.291l29.133-49.042C372.942,131.329,372.936,133.484,370.888,138.33Z" transform="translate(-320.352 -101.222)" opacity="0.1"/>
        <path id="Path_48306" data-name="Path 48306" d="M408.979,177.659c-.095.115-41.622-.574-42.02-.973-.149-.155,3.906-36.79,9.542-45.886,2.318-3.751,8.785-5.677,13.191-.081C403.309,147.965,409.093,177.517,408.979,177.659Z" transform="translate(-328.154 -100.098)" fill="#377dff"/>
        <path id="Path_48307" data-name="Path 48307" d="M386.8,166.046a1.189,1.189,0,0,1-1.189-1.189,1.48,1.48,0,0,0-1.48-1.48h-.919v.291h.919a1.189,1.189,0,0,1,1.189,1.189,1.48,1.48,0,0,0,1.48,1.473h.872v-.284Zm-12.624-18.922a1.163,1.163,0,0,1-.838-.351,1.405,1.405,0,0,1-.074.324,1.426,1.426,0,0,0,.912.318h.872v-.291Zm1.858,27.031a1.176,1.176,0,0,1,0-1.676,1.493,1.493,0,0,0,.433-1.047,1.466,1.466,0,0,0-.433-1.041l-.676-.676-.2.2.676.676a1.176,1.176,0,0,1,0,1.676,1.487,1.487,0,0,0,0,2.095l.622.615.2-.2Zm8.6-21.078a1.19,1.19,0,0,1,0-1.676,1.48,1.48,0,0,0,0-2.088l-.676-.676-.2.21.676.676a1.189,1.189,0,0,1,0,1.683,1.48,1.48,0,0,0,0,2.088l.615.615.21-.2Zm22.3,19.037a1.19,1.19,0,0,1,0-1.683,1.479,1.479,0,0,0,0-2.088l-.676-.676-.2.2.676.676a1.189,1.189,0,0,1,0,1.683,1.48,1.48,0,0,0,0,2.088l.622.615.2-.2Zm-20.767,6.758-.439.439h.405l.237-.237Zm-3.994.358h1.3a1.507,1.507,0,0,0-1.331.02Zm18.5-30.282-.48.48.2.2.4-.4ZM395.2,171.013v.872a1.189,1.189,0,0,1-1.189,1.189,1.48,1.48,0,0,0-1.48,1.473v.926h.291v-.946a1.183,1.183,0,0,1,1.19-1.183,1.48,1.48,0,0,0,1.473-1.48v-.851ZM374,157.619v.872a1.19,1.19,0,0,1-1.189,1.189,1.48,1.48,0,0,0-1.473,1.48v.919h.284v-.919a1.189,1.189,0,0,1,1.189-1.189,1.48,1.48,0,0,0,1.48-1.48v-.872ZM384.4,133.561v.872a1.189,1.189,0,0,1-1.189,1.189,1.48,1.48,0,0,0-1.473,1.473v.926h.284v-.926a1.189,1.189,0,0,1,1.189-1.223,1.487,1.487,0,0,0,1.48-1.48v-.872Zm13.07,23.166v.872a1.189,1.189,0,0,1-1.189,1.189,1.48,1.48,0,0,0-1.48,1.48v.919h.291v-.919a1.189,1.189,0,0,1,1.189-1.189,1.48,1.48,0,0,0,1.473-1.48v-.872Zm-3.183-11.536A1.189,1.189,0,0,1,393.094,144a1.48,1.48,0,0,0-1.48-1.48h-.906v.291h.919A1.189,1.189,0,0,1,392.816,144a1.487,1.487,0,0,0,1.48,1.48h.872v-.291Z" transform="translate(-329.575 -102.142)" fill="#fff"/>
        <path id="Path_48308" data-name="Path 48308" d="M400.408,131.718c13.516,10.6,26.741,28.91,26.842,39.148.095,10.137-3.426,9.13-4.426,9.062-6.082-.4-20.49-28.532-24.869-40S397.07,129.1,400.408,131.718Z" transform="translate(-337.539 -101.043)" fill="#377dff"/>
        <path id="Path_48309" data-name="Path 48309" d="M419.963,165.674a1.189,1.189,0,0,1-1.189-1.189A1.48,1.48,0,0,0,417.3,163h-.926v.291h.926a1.189,1.189,0,0,1,1.183,1.189,1.48,1.48,0,0,0,1.48,1.473h.872v-.284Zm-3.744,10.759a1.189,1.189,0,0,1,0-1.683,1.48,1.48,0,0,0,0-2.088l-.676-.676-.2.2.676.676a1.19,1.19,0,0,1,0,1.683,1.48,1.48,0,0,0,0,2.088l.622.615.2-.2Zm-1.7-23.93-.676.676a1.2,1.2,0,0,1-1.683,0,1.48,1.48,0,0,0-2.088,0l-.615.615.2.2.615-.615a1.2,1.2,0,0,1,1.683,0,1.48,1.48,0,0,0,2.088,0l.676-.676Zm13.063,18.246a1.473,1.473,0,0,0-1.352,1.473v.919h.29v-.919a1.183,1.183,0,0,1,1.156-1.183,1.912,1.912,0,0,1-.128-.311Zm-20.821-9.7v.541l.27.52a1.746,1.746,0,0,0,0-.189v-.872Zm19.524,19.186v.872a1.189,1.189,0,0,1-1.189,1.189,1.48,1.48,0,0,0-1.48,1.473v.919h.291v-.919a1.189,1.189,0,0,1,1.189-1.189,1.48,1.48,0,0,0,1.473-1.473v-.872Zm-22.707-30.721a1.19,1.19,0,0,1-1.189-1.189,1.48,1.48,0,0,0-1.48-1.48H400v.291h.919a1.189,1.189,0,0,1,1.189,1.189,1.487,1.487,0,0,0,1.48,1.48h.872v-.291Z" transform="translate(-338.867 -106.461)" fill="#fff"/>
        <path id="Path_48310" data-name="Path 48310" d="M415.929,177.324c-.709-1.277-1.433-2.534-2.122-3.818l-2.1-3.825c-1.392-2.561-2.8-5.1-4.149-7.684s-2.7-5.129-4.055-7.717q-1.007-1.933-1.96-3.893c-.676-1.3-1.257-2.622-1.872-3.947a79.5,79.5,0,0,0,3.379,8.109c1.237,2.642,2.581,5.231,3.933,7.812s2.8,5.109,4.3,7.609S414.254,174.931,415.929,177.324Z" transform="translate(-338.76 -106.331)" fill="#263238"/>
        <path id="Path_48311" data-name="Path 48311" d="M400.914,150.221a11.881,11.881,0,0,0-.838-1.351c-.149-.2-.291-.419-.453-.622s-.311-.412-.493-.608a3.859,3.859,0,0,0,.676,1.433A4.32,4.32,0,0,0,400.914,150.221Z" transform="translate(-338.585 -106.72)" fill="#263238"/>
        <path id="Path_48312" data-name="Path 48312" d="M340.72,151.9c.676-4.731,2.122-11.36,3.839-12.732s8.326-6.238,10.2-6.866,10.245-3.7,11.765-2.8c1.216.723-.27,3.933-4.251,5.406a58.155,58.155,0,0,0-6.312,2.987c-1.021.426-3.508,3.69-2.852,5.156.385.865,2.872,1.9,4.433,1.216s1.973-3.757,3.764-5.19,4.927-1.223,5.1-.372-.865,1.23-2.5,4.055c-1.054,1.831-1.169,6.264-3.541,9.421a55.608,55.608,0,0,0-3.284,5.812Z" transform="translate(-319.648 -100.787)" fill="#eb9481"/>
        <path id="Path_48313" data-name="Path 48313" d="M373.662,140.868a3.089,3.089,0,0,0,1.561-.676,1.3,1.3,0,0,0,.358-.628,1.128,1.128,0,0,0,0-.4.588.588,0,0,0-.149-.378s0-.061.034,0,.1.122.142.189a1.147,1.147,0,0,1,.088.183.928.928,0,0,1,.061.385,1.25,1.25,0,0,1-.318.784,2.129,2.129,0,0,1-1.791.629S373.635,140.875,373.662,140.868Z" transform="translate(-330.323 -103.841)" fill="#263238"/>
        <path id="Path_48314" data-name="Path 48314" d="M346.4,139.977c1.534-2.352,5.447-6.589,9.292-8.022,2.6-.96,11.489,3.467,11.178,5.17s-1.8,1.689-4.055,1.4c-.818-.108-5.143-1.717-5.893-.811-1.075,1.3-2.473,5.758-2.473,5.758Z" transform="translate(-321.49 -101.591)" fill="#eb9481"/>
        <path id="Path_48315" data-name="Path 48315" d="M373.537,136.942c-1.081-1.831-3.494-2.832-5.893-3.622-.034,0-.054.041,0,.054.615.2,4.514,2.027,5.886,3.6C373.523,136.99,373.544,136.962,373.537,136.942Z" transform="translate(-328.366 -102.078)" fill="#263238"/>
        <path id="Path_48316" data-name="Path 48316" d="M346.4,139.989c1.534-2.352,5.447-6.589,9.292-8.022,2.6-.96,9.583,4.663,9.306,6.359s-2.467,1.818-4.872.946c-.777-.277-3.379-2.149-4.122-1.243-1.081,1.3-3.7,4.521-3.7,4.521Z" transform="translate(-321.49 -101.604)" fill="#eb9481"/>
        <path id="Path_48317" data-name="Path 48317" d="M357.237,140.429l.581-.872c.257-.365.514-.723.791-1.074a3.376,3.376,0,0,1,.811-.831,1.723,1.723,0,0,1,1.068-.2,6.082,6.082,0,0,1,2.3,1.048,7.221,7.221,0,0,0,3.683,1.095,2.55,2.55,0,0,0,1-.257,1.561,1.561,0,0,0,.6-.473c.554-.919-.115-1.987-.8-2.744a16.278,16.278,0,0,0-4.731-3.291c-.412-.209-.838-.406-1.257-.6a3.643,3.643,0,0,0-1.52-.453,7.36,7.36,0,0,0-2.771,1.122s-.061,0,0-.054a6.149,6.149,0,0,1,3.3-1.352,4.429,4.429,0,0,1,1.46.514c.493.216.98.446,1.453.676a18.927,18.927,0,0,1,2.7,1.622,8.29,8.29,0,0,1,2.183,2.1,2.454,2.454,0,0,1,.128,2.521,2.149,2.149,0,0,1-1.6.831,4.05,4.05,0,0,1-1.108,0,17.686,17.686,0,0,1-2.419-.737c-.764-.311-1.446-.838-2.23-1.081a1.473,1.473,0,0,0-1.149.061,4.054,4.054,0,0,0-.858.77,12.2,12.2,0,0,0-1.446,1.676C357.251,140.619,357.136,140.619,357.237,140.429Z" transform="translate(-324.913 -101.483)" fill="#263238"/>
        <path id="Path_48318" data-name="Path 48318" d="M344.71,140.572c.561-1.122,1.548-5.765,2.46-7.184s5.062-6.305,6.974-6.082c2.406.3-.148,4.609-1.426,6.379s-1.095,4.8-1.095,4.8Z" transform="translate(-320.942 -100.125)" fill="#eb9481"/>
        <path id="Path_48319" data-name="Path 48319" d="M357.814,132.393c-.453.561-.852,1.183-1.25,1.791a14.7,14.7,0,0,0-1.095,1.757,6.221,6.221,0,0,0-.487,1.973c-.034.338-.047.676-.054,1.007s0,.737,0,1.1a.03.03,0,1,0,.061,0,15.411,15.411,0,0,1,.284-1.994,8.869,8.869,0,0,1,.622-1.98c.574-1.25,1.412-2.365,2.027-3.615A.07.07,0,0,0,357.814,132.393Z" transform="translate(-324.254 -101.773)" fill="#263238"/>
        <path id="Path_48320" data-name="Path 48320" d="M354.989,144.63a6.893,6.893,0,0,0,.581,3.379A11.41,11.41,0,0,0,357.307,151a13.685,13.685,0,0,1,1.723,2.825,13.873,13.873,0,0,1,.885,3.237,8.93,8.93,0,0,0-.392-3.419,10.447,10.447,0,0,0-1.656-3.055,16.145,16.145,0,0,1-1.771-2.818A10.136,10.136,0,0,1,354.989,144.63Z" transform="translate(-324.267 -105.744)" fill="#263238"/>
        <path id="Path_48321" data-name="Path 48321" d="M342.29,185.176c4.69-.635,7.758-8.474,13.11-22.267.939-2.419-11.313-17.3-12.975-15.077-2.1,2.8-7.758,18.368-8.346,22.612C332.9,178.81,336.816,185.912,342.29,185.176Z" transform="translate(-317.427 -106.709)" fill="#eb9481"/>
        <path id="Path_48322" data-name="Path 48322" d="M352.42,174.595,337.31,159.91s-4.3,12.637-3.892,17.935,2.244,11.333,8.623,11.664C346.818,189.759,352.42,174.595,352.42,174.595Z" transform="translate(-317.272 -110.698)" fill="#377dff"/>
        <path id="Path_48323" data-name="Path 48323" d="M351.89,182.065a1.48,1.48,0,0,0-1.48-1.473h-.919v.291h.919a1.183,1.183,0,0,1,1.189,1.183,1.48,1.48,0,0,0,1.2,1.453c.047-.095.088-.189.128-.284A1.176,1.176,0,0,1,351.89,182.065Zm-9.907-4.318a1.189,1.189,0,0,1,0-1.683,1.473,1.473,0,0,0,0-2.088l-.676-.676-.2.21.676.676a1.2,1.2,0,0,1,0,1.683,1.466,1.466,0,0,0,0,2.088l.615.615.2-.2Zm3.588,11.279-.676.676a1.19,1.19,0,0,1-1.683,0,1.48,1.48,0,0,0-2.088,0l-.615.615.2.2.615-.615a1.2,1.2,0,0,1,1.683,0,1.473,1.473,0,0,0,2.088,0l.676-.676Z" transform="translate(-319.58 -115.04)" fill="#fff"/>
        <path id="Path_48324" data-name="Path 48324" d="M354.32,191.8c.547-.77,1.034-1.581,1.507-2.392s.912-1.656,1.351-2.494a25.958,25.958,0,0,0,1.162-2.582,15.541,15.541,0,0,0,.878-2.7c-.4.858-.818,1.689-1.25,2.527l-1.264,2.514c-.412.845-.831,1.683-1.223,2.541S354.672,190.922,354.32,191.8Z" transform="translate(-324.057 -117.74)" fill="#263238"/>
        <path id="Path_48325" data-name="Path 48325" d="M350.778,179.969c-.73-.8-1.534-1.554-2.311-2.311s-1.568-1.514-2.365-2.257c-1.595-1.487-3.2-2.967-4.818-4.42l-1.352-1.189c-.486-.419-1.02-.777-1.5-1.2a.036.036,0,1,0-.047.054c.385.372.716.8,1.095,1.183s.791.777,1.189,1.162l2.379,2.244c1.595,1.487,3.2,2.967,4.832,4.4.933.811,1.838,1.656,2.811,2.413a.06.06,0,1,0,.088-.081Z" transform="translate(-318.887 -113.511)" fill="#263238"/>
        <path id="Path_48326" data-name="Path 48326" d="M383.556,133.742c2.446.243,6.515-4.3,7.731-7.434.081-.216-.514-2.3-1.115-4.859-.358-1.561-.716-3.3-.933-4.92l-9.8,3.818a25.835,25.835,0,0,1,1.811,6.082,3.832,3.832,0,0,1,0,.676.562.562,0,0,0,0,.108C381.231,128.458,381.17,133.5,383.556,133.742Z" transform="translate(-332.202 -96.634)" fill="#eb9481"/>
        <path id="Path_48327" data-name="Path 48327" d="M381.271,127.172a.592.592,0,0,0,0,.108,6.52,6.52,0,0,0,1.048-.081c5.839-.912,6.258-8.265,6.258-10.319l-2.446.953-6.69,2.6a25.61,25.61,0,0,1,1.8,6.082,3.2,3.2,0,0,1,.027.656Z" transform="translate(-332.202 -96.747)" fill="#263238"/>
        <path id="Path_48328" data-name="Path 48328" d="M386.814,96.863c1.412,3.507.426,14.1-1.933,16.645-3.426,3.7-9.461,4.555-12.739.338-3.156-4.055-1.629-17.868,1.054-20.233C377.144,90.132,384.72,91.673,386.814,96.863Z" transform="translate(-329.264 -88.597)" fill="#eb9481"/>
        <path id="Path_48329" data-name="Path 48329" d="M381.227,112.49s.054.034.047.068c-.068.676,0,1.541.6,1.818v.041C381.085,114.254,381.044,113.152,381.227,112.49Z" transform="translate(-332.752 -95.324)" fill="#263238"/>
        <path id="Path_48330" data-name="Path 48330" d="M381.909,111.45c1.156,0,1.095,2.3,0,2.311S380.942,111.457,381.909,111.45Z" transform="translate(-332.751 -94.987)" fill="#263238"/>
        <path id="Path_48331" data-name="Path 48331" d="M374.755,112.14a.06.06,0,0,0-.061.061c0,.716-.108,1.541-.764,1.764h0C374.727,113.911,374.869,112.823,374.755,112.14Z" transform="translate(-330.415 -95.211)" fill="#263238"/>
        <path id="Path_48332" data-name="Path 48332" d="M373.773,111c-1.149-.115-1.3,2.19-.236,2.3S374.739,111.106,373.773,111Z" transform="translate(-330.055 -94.839)" fill="#263238"/>
        <path id="Path_48333" data-name="Path 48333" d="M383.086,108.251a8.345,8.345,0,0,1-.919-.243,1.561,1.561,0,0,1-.885-.426.5.5,0,0,1,0-.6,1.216,1.216,0,0,1,1.21-.216,1.764,1.764,0,0,1,1.081.676.52.52,0,0,1-.487.811Z" transform="translate(-332.766 -93.443)" fill="#263238"/>
        <path id="Path_48334" data-name="Path 48334" d="M372.583,107.387a9.127,9.127,0,0,0,.926-.209,1.568,1.568,0,0,0,.9-.4.5.5,0,0,0,0-.6,1.2,1.2,0,0,0-1.2-.257,1.784,1.784,0,0,0-1.108.676.52.52,0,0,0,.48.791Z" transform="translate(-329.798 -93.174)" fill="#263238"/>
        <path id="Path_48335" data-name="Path 48335" d="M382.035,121.443c-.162.169-.331.405-.588.432a1.933,1.933,0,0,1-.777-.162s-.047,0,0,.041a.96.96,0,0,0,.919.365.784.784,0,0,0,.547-.676A.092.092,0,0,0,382.035,121.443Z" transform="translate(-332.594 -98.222)" fill="#263238"/>
        <path id="Path_48336" data-name="Path 48336" d="M379.519,114.629a2.439,2.439,0,0,1-1.6,1.129,3.426,3.426,0,0,1-.872.061.674.674,0,0,1-.169,0,.709.709,0,0,1-.162,0,.169.169,0,0,1-.142-.155h0v-.074h0V114.17c-.2.1-1.216.588-1.2.3a36.51,36.51,0,0,1,.765-7.441.067.067,0,0,1,.134.007c0,2.3-.385,4.589-.412,6.893a4.617,4.617,0,0,1,1.142-.378c.074,0-.095,1.622-.061,1.872h0a3.379,3.379,0,0,0,2.507-.845C379.506,114.528,379.56,114.575,379.519,114.629Z" transform="translate(-330.882 -93.537)" fill="#263238"/>
        <path id="Path_48337" data-name="Path 48337" d="M376.775,99.607a4.049,4.049,0,0,0,6.88.027h.054a4.054,4.054,0,0,1-3.541,2.2,4.135,4.135,0,0,1-3.48-2.2C376.66,99.6,376.741,99.546,376.775,99.607Z" transform="translate(-331.307 -91.138)" fill="#263238"/>
        <path id="Path_48338" data-name="Path 48338" d="M382.925,87.9a4.312,4.312,0,0,1,4.176,2.345,5.861,5.861,0,0,1,.608,2.892h-.061a5.407,5.407,0,0,0-2.149-4.224,3.615,3.615,0,0,0-4.2-.054,3.7,3.7,0,0,0-1.419,1.987c0,.088-.155.054-.135-.041a3.751,3.751,0,0,1,3.176-2.906Z" transform="translate(-332.301 -87.349)" fill="#263238"/>
        <path id="Path_48339" data-name="Path 48339" d="M365.07,89.674a4.832,4.832,0,0,1,2.453-2.237,6.714,6.714,0,0,1,4.406.155c.041,0,0,.074,0,.061a6.622,6.622,0,0,0-3.8-.182A4.73,4.73,0,0,0,365.59,89.4a4.622,4.622,0,0,0,.966,5.988,4.731,4.731,0,0,0,3.6.973c.047,0,.074.068,0,.074a4.731,4.731,0,0,1-5.1-6.758Z" transform="translate(-327.38 -87.098)" fill="#263238"/>
        <path id="Path_48340" data-name="Path 48340" d="M385.839,97.645s.277-3.217-.412-4.318a4.768,4.768,0,0,0-2.48-1.568s-.676-2.859-3.23-3.379a5.012,5.012,0,0,0-4.149,1.352s-2.744-3.649-6.663-2.372c-3.724,1.21-4.055,6.569-.932,8.745,2.189,1.527,5.744-.061,5.744-.061.3.095,3.169,2.507,6.015.054,0,0,1.919,2.027,3.345,1C383.075,97.017,384.623,98.051,385.839,97.645Z" transform="translate(-327.795 -87.089)" fill="#263238"/>
        <path id="Path_48341" data-name="Path 48341" d="M393.832,108.558a31.485,31.485,0,0,1-2.156-4.839c-.48-1.2-.23-6.325-.074-8.589a7.431,7.431,0,0,1,2.027,2.838C394.467,100.05,394.46,104.638,393.832,108.558Z" transform="translate(-336.078 -89.696)" fill="#263238" opacity="0.2"/>
        <path id="Path_48342" data-name="Path 48342" d="M392.315,110.789s2.129-3.541,3.717-2.8.149,5.751-1.608,6.542a1.831,1.831,0,0,1-2.514-.818Z" transform="translate(-336.245 -93.832)" fill="#eb9481"/>
        <path id="Path_48343" data-name="Path 48343" d="M396.055,110.15v.047a4.644,4.644,0,0,0-2.189,3.055,1.014,1.014,0,0,1,1.494-.378c.034,0,0,.074-.034.068a1.135,1.135,0,0,0-1.21.473,5.413,5.413,0,0,0-.527,1.048c-.047.115-.257.068-.223-.068h0C393.237,112.752,394.338,110.427,396.055,110.15Z" transform="translate(-336.713 -94.565)" fill="#263238"/>
        <path id="Path_48344" data-name="Path 48344" d="M376.625,162.581l-1.966-21.112-1.291-1.034-28.957-.176.669,20.078,1.291,1.034Z" transform="translate(-320.844 -104.328)" fill="#37474f"/>
        <path id="Path_48345" data-name="Path 48345" d="M374.715,161.051l-1.966-21.112L342.5,138.73l1.96,21.112Z" transform="translate(-320.225 -103.832)" fill="#455a64"/>
        <path id="Path_48346" data-name="Path 48346" d="M361.8,153.136a2.027,2.027,0,0,1,2.514-.885A1.6,1.6,0,0,1,365.4,154.4a2.027,2.027,0,0,1-2.507.879,1.595,1.595,0,0,1-1.1-2.142Z" transform="translate(-326.444 -108.169)" fill="#fff"/>
        <path id="Path_48347" data-name="Path 48347" d="M425.757,189.051c-4.521.622-10.137-2.892-24.761-13.556-2.027-1.473,4.555-18.544,6.792-17.077,2.825,1.845,13.367,9.616,14.07,10.285C427.758,174.325,428.819,188.632,425.757,189.051Z" transform="translate(-339.066 -110.185)" fill="#eb9481"/>
        <path id="Path_48348" data-name="Path 48348" d="M402.561,159.9s-4.156-5.839-7.292-8.231a25.436,25.436,0,0,0-11.238-4.541c-4.379-.676-15.408.824-15.543,4.055-.122,2.94,11.083.872,11.083.872s-11.772.223-11.259,3.8,13.374.426,13.374.426-12.09.5-10.981,4.1c.838,2.7,12.651.527,12.651.527s-10.387.507-9.65,3.338c.818,3.136,11.847,1.8,11.847,1.8,3.1,6.886,7.528,8.826,10.752,9.894C397.047,176.21,402.561,159.9,402.561,159.9Z" transform="translate(-328.588 -106.501)" fill="#eb9481"/>
        <path id="Path_48349" data-name="Path 48349" d="M384.456,153.991c-1.352,0-2.784-.061-4.163.041s-2.757.25-4.122.473a23.811,23.811,0,0,0-5.231,1.392,51.4,51.4,0,0,1,9.393-1.487c1.379-.1,2.751-.27,4.129-.372C384.5,154.052,384.5,153.991,384.456,153.991Z" transform="translate(-329.446 -108.774)" fill="#263238"/>
        <path id="Path_48350" data-name="Path 48350" d="M386.56,161.38c-1.771.047-3.521.034-5.291.155s-3.379.4-5.156.642c-.135,0-.081.081.054.068,1.75-.176,3.379-.2,5.143-.351s3.5-.378,5.257-.466Z" transform="translate(-331.097 -111.175)" fill="#263238"/>
        <path id="Path_48351" data-name="Path 48351" d="M389.416,167.6a39.533,39.533,0,0,0-8.069.858c-.135,0-.054.1.081.081,2.7-.331,4.778-.615,7.988-.845C389.463,167.695,389.47,167.607,389.416,167.6Z" transform="translate(-332.797 -113.192)" fill="#263238"/>
        <path id="Path_48352" data-name="Path 48352" d="M416.238,162.67l-5.758,20.949s15.448,9.089,18.861,6.684,1.176-14.516-2.7-19.132C425.023,169.272,416.238,162.67,416.238,162.67Z" transform="translate(-342.265 -111.593)" fill="#377dff"/>
        <path id="Path_48353" data-name="Path 48353" d="M433.648,187.986v.872a1.189,1.189,0,0,1-1.189,1.189,1.48,1.48,0,0,0-1.48,1.473v.919h.291v-.919a1.189,1.189,0,0,1,1.189-1.189,1.48,1.48,0,0,0,1.473-1.473v-.872Zm-.074-8.278a1.366,1.366,0,0,0,0,.236v.919h.291v-.277C433.756,180.309,433.668,180.011,433.573,179.707Zm-9.995,4.48a1.19,1.19,0,0,1,0-1.683,1.48,1.48,0,0,0,0-2.088l-.676-.676-.2.2.676.676a1.189,1.189,0,0,1,0,1.683,1.48,1.48,0,0,0,0,2.088l.622.615.2-.2Zm3.778-10.759a1.189,1.189,0,0,1-1.189-1.189,1.48,1.48,0,0,0-1.473-1.48h-.926v.291h.926a1.189,1.189,0,0,1,1.183,1.189,1.48,1.48,0,0,0,1.48,1.473h.872v-.284Z" transform="translate(-346.227 -114.216)" fill="#fff"/>
        <path id="Path_48354" data-name="Path 48354" d="M418.67,163.363l.223-.676h-.054c1.46,1.189,2.926,2.372,4.366,3.575s2.892,2.4,4.264,3.67a20.82,20.82,0,0,1,1.96,1.98,15.618,15.618,0,0,1,1.561,2.3,17.645,17.645,0,0,1,1.859,5.264,14.907,14.907,0,0,0-1.507-5.454,13.281,13.281,0,0,0-1.541-2.413,21.938,21.938,0,0,0-1.973-2.027c-1.4-1.27-2.865-2.46-4.352-3.622s-3.021-2.25-4.6-3.3h-.041v.047Z" transform="translate(-344.92 -111.59)" fill="#263238"/>
        <path id="Path_48355" data-name="Path 48355" d="M422.068,170.347c-.351,1.027-.622,2.095-.912,3.142s-.568,2.1-.838,3.163c-.534,2.108-1.061,4.224-1.554,6.346-.135.581-.27,1.162-.4,1.75s-.189,1.264-.324,1.885c0,.047.061.061.074,0,.142-.514.351-1.014.507-1.527s.3-1.068.439-1.6c.284-1.054.554-2.108.824-3.169.534-2.108,1.068-4.224,1.534-6.352.264-1.2.568-2.406.757-3.622a.055.055,0,0,0-.108-.014Z" transform="translate(-344.716 -114.067)" fill="#263238"/>
        <path id="Path_48356" data-name="Path 48356" d="M410.869,190.94c-.115.642-.257,1.271-.385,1.906l-.061-.149c1.575.865,3.879,2.027,5.487,2.886,1.838.946,3.683,1.852,5.562,2.744a26.543,26.543,0,0,1-2.94-1.027,46.475,46.475,0,0,1-8.332-4.44c.223-.635.433-1.284.676-1.919Z" transform="translate(-342.174 -120.759)" fill="#263238"/>
      </g>
      <g id="freepik--Plant--inject-2" transform="translate(0 153.349)">
        <path id="Path_48357" data-name="Path 48357" d="M94.9,341.009a48.9,48.9,0,0,0-1.554,8.785c.081.149.068.676,0,.547,0,.48-.757.392-.757-.081v-.926c-1.723-2.135-4.217-3.487-6.238-5.345a11.665,11.665,0,0,1-3.392-5.427c-1.676-5.765-.1-11.88-2.115-17.638-1.737-4.96-4.852-9.279-7.488-13.773-2.777-4.731-4.832-9.752-5.041-15.32-.162-4.264.345-9.948,3.6-13.144,3.44-3.379,7.711-.845,10.346,2.176,7.643,8.785,11.184,19.855,12.61,31.194a122.378,122.378,0,0,1,1.419,18.922A50.741,50.741,0,0,1,94.9,341.009Z" transform="translate(-57.39 -277.079)" fill="#ffa726"/>
        <path id="Path_48358" data-name="Path 48358" d="M97.242,359.48a107.639,107.639,0,0,0-.21-17.773.1.1,0,0,0,0-.061c.1-4.8.48-9.589.291-14.4A84.991,84.991,0,0,0,95.208,311.8a.047.047,0,1,0-.095,0,100.4,100.4,0,0,1,1.676,15.1q.142,4.055-.068,8.143c-.047.878-.128,1.771-.182,2.663h0a94.948,94.948,0,0,0-14.293-37.844c-.095-.155-.372,0-.277.169a98.807,98.807,0,0,1,11.637,28.045c-3.676-6.812-9.231-12.407-13.347-18.956,0-.034-.081,0-.061.041,3.7,7.285,9.812,13.029,13.705,20.206.676,2.926,1.23,5.879,1.642,8.846a98.562,98.562,0,0,1,.885,12.292,141.33,141.33,0,0,1-6.393-12.61c-.047-.122-.216-.041-.176.081a49.076,49.076,0,0,0,6.582,13.468q0,4.359-.243,8.724c-.453,7.758-1.784,15.415-2.392,23.152a.177.177,0,0,0,.351.034A176.712,176.712,0,0,0,97.242,359.48Z" transform="translate(-61.249 -284.447)" fill="#263238"/>
        <path id="Path_48359" data-name="Path 48359" d="M93.186,299.557a.048.048,0,1,0-.088.041c1.419,3.92,2.217,7.886,3.244,11.907a.149.149,0,0,0,.291-.054A42.652,42.652,0,0,0,93.186,299.557Z" transform="translate(-65.431 -284.357)" fill="#263238"/>
        <path id="Path_48360" data-name="Path 48360" d="M133.06,321.757a59.476,59.476,0,0,1-3.257,6.7c-2.555,4.636-5.217,8.88-5.7,14.279a33.069,33.069,0,0,1-1.027,7.15,21.339,21.339,0,0,1-2.852,5.6c-2.764,4.055-6.217,7.5-8.785,11.684a49.235,49.235,0,0,0-5.832,14.076c-.068.27-.493.2-.432-.074a.216.216,0,0,0,0-.061.068.068,0,0,1,0-.054c-.405-11.57.514-23.234,4.055-34.316a118.627,118.627,0,0,1,5.6-14.273,33.754,33.754,0,0,1,7.569-10.887c2.156-1.94,6.825-5.616,9.887-3.67C133.75,318.838,133.642,320.318,133.06,321.757Z" transform="translate(-69.32 -290.136)" fill="#ffa726"/>
        <path id="Path_48361" data-name="Path 48361" d="M120.023,352.73a93.118,93.118,0,0,1-6.758,9.664c-1.115,1.46-2.25,2.913-3.379,4.379a26.411,26.411,0,0,0-1.608,2.122c.311-1.216.608-2.433.919-3.649a143.478,143.478,0,0,1,5.15-17.368,117.017,117.017,0,0,1,8.035-15.746c.074-.135-.142-.23-.216-.1-2.446,4.021-4.926,8.035-6.981,12.272a65.291,65.291,0,0,0-2.926,7.285,112.178,112.178,0,0,1,3.947-15.543c0-.041-.054-.074-.068-.034a53.151,53.151,0,0,0-4.1,16.219h0q-.75,2.25-1.392,4.548c-1.825,6.474-3.426,13.009-4.906,19.6a69.674,69.674,0,0,1,1.115-12.84c0-.1-.128-.122-.155,0a40.759,40.759,0,0,0-1.115,13.563q-.838,3.737-1.642,7.494c-1.135,5.332-2.534,10.765-3.2,16.178a.109.109,0,0,0,.216.034c.791-2.92,1.27-5.947,1.919-8.9s1.352-5.927,2.027-8.88c1-4.3,2.027-8.6,3.129-12.887a22.838,22.838,0,0,1,3.142-4.284c1.135-1.446,2.277-2.9,3.379-4.366a66.471,66.471,0,0,0,5.568-8.616C120.165,352.71,120.063,352.669,120.023,352.73Z" transform="translate(-67.913 -294.875)" fill="#263238"/>
        <path id="Path_48362" data-name="Path 48362" d="M126.845,355.359a60.141,60.141,0,0,0-6.575,10.454c0,.047.047.095.081.047,2.21-3.467,4.386-6.967,6.6-10.441C126.987,355.359,126.893,355.305,126.845,355.359Z" transform="translate(-74.242 -302.451)" fill="#263238"/>
        <path id="Path_48363" data-name="Path 48363" d="M55.512,333.859c1.5,2.581,3.21,5.683,2.568,8.785-.405,1.96-1.845,3.555-2.1,5.555-.581,4.42,3.818,7.339,7.008,9.427,7.947,5.217,18.841,9.86,20.274,20.5.054.379.676.284.676-.081a.292.292,0,0,0,0-.074s.041,0,.041-.061a40.906,40.906,0,0,0-.162-16.26,51.964,51.964,0,0,0-6.406-15.239c-4.791-8.157-9.853-16.509-17.084-22.767-2.027-1.73-6.082-4.839-7.69-.939C51.085,326.513,53.674,330.71,55.512,333.859Z" transform="translate(-52.16 -291.264)" fill="#ffa726"/>
        <path id="Path_48364" data-name="Path 48364" d="M67.835,360.276c5.271,5.7,13.644,8.9,18.179,15.286a64.158,64.158,0,0,0-13.968-26.241.205.205,0,0,1,.291-.291,51.82,51.82,0,0,1,11.414,16.53,73.9,73.9,0,0,0-4.92-12.57.136.136,0,0,1,.237-.135,47.931,47.931,0,0,1,5.3,14.131c5.974,14.462,6.528,31.424,5.278,46.67,0,.216-.351.223-.345,0,.345-12.015.149-24.234-2.7-35.965-.061-.25-.128-.487-.189-.737-4.933-6.873-13.272-10.063-18.631-16.591C67.693,360.3,67.781,360.215,67.835,360.276Z" transform="translate(-57.212 -300.387)" fill="#263238"/>
        <path id="Path_48365" data-name="Path 48365" d="M65.978,358.436c2.771,2.534,5.487,5.129,8.258,7.67,0,0,0,.074-.041.047a40.138,40.138,0,0,1-8.38-7.555.115.115,0,0,1,.162-.162Z" transform="translate(-56.578 -303.446)" fill="#263238"/>
        <path id="Path_48366" data-name="Path 48366" d="M65.359,342.178a86.817,86.817,0,0,0,8.272,11.36c.041.047,0,.108-.068.068a40.041,40.041,0,0,1-8.353-11.367.088.088,0,0,1,.149-.061Z" transform="translate(-56.391 -298.177)" fill="#263238"/>
        <path id="Path_48367" data-name="Path 48367" d="M83.85,444.967h24.22l-3.264-32.587H87.58Z" transform="translate(-62.434 -320.945)" fill="#455a64"/>
        <path id="Path_48368" data-name="Path 48368" d="M88.47,417.678h18.368l-.534-5.3H89.078Z" transform="translate(-63.932 -320.945)" fill="#263238"/>
        <rect id="Rectangle_6644" data-name="Rectangle 6644" width="22.706" height="5.204" transform="translate(44.879 93.03) rotate(180)" fill="#455a64"/>
      </g>
      <g id="freepik--speech-bubble--inject-2" transform="translate(234.127 9.369)">
        <path id="Path_48369" data-name="Path 48369" d="M431.312,80.54a14.739,14.739,0,0,1-24.633,9.333l-7.38,1.081,3.69-6.379a14.746,14.746,0,1,1,28.322-4.055Z" transform="translate(-398.834 -64.101)" fill="#fff"/>
        <path id="Path_48370" data-name="Path 48370" d="M431.088,80.463a14.867,14.867,0,0,1-2.973,7.481,13.561,13.561,0,0,1-2.892,2.852,14.435,14.435,0,0,1-3.555,1.98,14.629,14.629,0,0,1-3.974.946,13.813,13.813,0,0,1-2.027.041,12.981,12.981,0,0,1-2.027-.21,14.922,14.922,0,0,1-7.3-3.6l.176.054-7.366,1.129-.541.081.277-.466,3.669-6.393v.25a14.908,14.908,0,0,1,.852-13.164,15.089,15.089,0,0,1,4.622-4.913,14.867,14.867,0,0,1,6.292-2.365,14.89,14.89,0,0,1,16.766,16.3Zm0,0a14.6,14.6,0,0,0-22.8-13.55,15.1,15.1,0,0,0-4.413,4.812A14.5,14.5,0,0,0,402,77.963a14.7,14.7,0,0,0,1.034,6.427l.054.135-.068.115-3.717,6.366-.264-.385,7.386-1.034h.1l.074.068a14.536,14.536,0,0,0,7.062,3.636,13.153,13.153,0,0,0,2.027.243,14.246,14.246,0,0,0,5.954-.872,13.856,13.856,0,0,0,3.561-1.919,16.609,16.609,0,0,0,1.554-1.3,15.806,15.806,0,0,0,1.352-1.521,14.779,14.779,0,0,0,2.974-7.461Z" transform="translate(-398.61 -64.023)" fill="#263238"/>
        <path id="Path_48371" data-name="Path 48371" d="M419.4,90.506l-6.3-6.379,2.115-2.088,3.676,3.724,7.643-11.982,2.507,1.6Z" transform="translate(-403.308 -67.187)" fill="#377dff"/>
      </g>
    </g>
  </g>
</svg>
