<svg xmlns="http://www.w3.org/2000/svg" width="146.238" height="27.041" viewBox="0 0 146.238 27.041">
  <g id="Group_14191" data-name="Group 14191" transform="translate(-612.518 -2151.479)">
    <g id="Group_10306" data-name="Group 10306" transform="translate(615.002 2146.824)">
      <path id="Path_21028" data-name="Path 21028" d="M-384.984,274.753a1.76,1.76,0,0,1-.614,1.351,2.549,2.549,0,0,1-1.842.491h-.86l.246,1.351h1.105a4.415,4.415,0,0,0,1.351-.246,2.955,2.955,0,0,0,.982-.737,4.978,4.978,0,0,0,.614-1.105,5.223,5.223,0,0,0,.246-1.351V270.7h-1.351v4.053Z" transform="translate(480.967 -253.629)"/>
      <path id="Path_21029" data-name="Path 21029" d="M-384.818,267.8a1.745,1.745,0,0,0-.737.246c-.246.246-.246.368-.246.737a1.746,1.746,0,0,0,.246.737.9.9,0,0,0,.737.246,1.745,1.745,0,0,0,.737-.246.9.9,0,0,0,.246-.737,1.745,1.745,0,0,0-.246-.737A1.745,1.745,0,0,0-384.818,267.8Z" transform="translate(481.537 -254.291)"/>
      <rect id="Rectangle_2557" data-name="Rectangle 2557" width="1.228" height="8.351" transform="translate(99.422 12.648)"/>
      <path id="Path_21030" data-name="Path 21030" d="M-374.64,270.019c.246,0,.368-.123.614-.246a.938.938,0,0,0,.246-.614.938.938,0,0,0-.246-.614.938.938,0,0,0-.614-.246.938.938,0,0,0-.614.246.938.938,0,0,0-.246.614c0,.246.123.368.246.614A.938.938,0,0,0-374.64,270.019Z" transform="translate(483.887 -254.178)"/>
      <path id="Path_21031" data-name="Path 21031" d="M-372.74,270.019a.938.938,0,0,0,.614-.246.938.938,0,0,0,.246-.614.938.938,0,0,0-.246-.614.938.938,0,0,0-.614-.246.938.938,0,0,0-.614.246.938.938,0,0,0-.246.614c0,.246.123.368.246.614A.938.938,0,0,0-372.74,270.019Z" transform="translate(484.32 -254.178)"/>
      <path id="Path_21032" data-name="Path 21032" d="M-365.518,268.565a1.745,1.745,0,0,0,.737-.246.9.9,0,0,0,.246-.737,1.745,1.745,0,0,0-.246-.737c-.246-.246-.368-.246-.737-.246a1.746,1.746,0,0,0-.737.246c-.246.246-.246.368-.246.737a1.746,1.746,0,0,0,.246.737A1.746,1.746,0,0,0-365.518,268.565Z" transform="translate(485.939 -254.564)"/>
      <path id="Path_21033" data-name="Path 21033" d="M-360.93,269.56a3.257,3.257,0,0,0-.737-.614,2.313,2.313,0,0,0-.982-.246,1.821,1.821,0,0,0-.86.123,2.571,2.571,0,0,0-.737.491,1.565,1.565,0,0,0-.491.737,1.821,1.821,0,0,0-.123.86,2.206,2.206,0,0,0,.368,1.351,1.512,1.512,0,0,0,1.228.614h1.719a1.107,1.107,0,0,1-.123.614,1.038,1.038,0,0,1-.737.246h-3.684a1.745,1.745,0,0,1-.737-.246.743.743,0,0,1-.368-.737v-1.842h-1.351v1.719c0,.368,0,.614-.123.737a1.038,1.038,0,0,1-.737.246h-6.263a1.038,1.038,0,0,1-.737-.246,1.038,1.038,0,0,1-.246-.737v-1.719H-378v1.965a2.265,2.265,0,0,0,.491,1.6,1.677,1.677,0,0,0,1.351.491h6.877a1.577,1.577,0,0,0,1.228-.491,1.115,1.115,0,0,0,.86.368,2.394,2.394,0,0,0,.982.123h3.93a1.775,1.775,0,0,0,.86-.246,1.48,1.48,0,0,0,.614-.614,5.987,5.987,0,0,0,.368-.86,2.7,2.7,0,0,0,.123-.982v-.737a2.394,2.394,0,0,0-.123-.982A7.254,7.254,0,0,1-360.93,269.56Zm-2.088,1.965a1.335,1.335,0,0,1-.614-.123c-.246-.123-.246-.246-.246-.491a.938.938,0,0,1,.246-.614,1.038,1.038,0,0,1,.737-.246c.246,0,.368,0,.491.123l.368.368a.931.931,0,0,1,.246.491,1.107,1.107,0,0,1,.123.614Z" transform="translate(483.316 -254.086)"/>
      <path id="Path_21034" data-name="Path 21034" d="M-359.64,275.1a.938.938,0,0,0-.614.246.938.938,0,0,0-.246.614.938.938,0,0,0,.246.614.938.938,0,0,0,.614.246.938.938,0,0,0,.614-.246.938.938,0,0,0,.246-.614c0-.246-.123-.368-.246-.614S-359.395,275.1-359.64,275.1Z" transform="translate(487.307 -252.627)"/>
      <path id="Path_21035" data-name="Path 21035" d="M-356.719,273.118v.368a.451.451,0,0,1-.123.368l-.246.246c-.123,0-.246.123-.491.123h-2.088a1.317,1.317,0,0,1-.737-.246,1.174,1.174,0,0,1-.246-.86V267.1H-362v6.263a1.938,1.938,0,0,0,.614,1.6,2.084,2.084,0,0,0,1.6.491h2.579a2.034,2.034,0,0,0,1.474-.614,1.958,1.958,0,0,0,.491-1.474V271.4H-356.6v1.719Z" transform="translate(486.965 -254.451)"/>
      <path id="Path_21036" data-name="Path 21036" d="M-357.84,275.1a.938.938,0,0,0-.614.246.938.938,0,0,0-.246.614.938.938,0,0,0,.246.614.938.938,0,0,0,.614.246c.246,0,.368-.123.614-.246a.938.938,0,0,0,.246-.614c0-.246-.123-.368-.246-.614S-357.595,275.1-357.84,275.1Z" transform="translate(487.719 -252.627)"/>
      <path id="Path_21037" data-name="Path 21037" d="M-353.675,274.753a1.76,1.76,0,0,1-.614,1.351,2.549,2.549,0,0,1-1.842.491h-.368l.246,1.351h.614a4.415,4.415,0,0,0,1.351-.246,1.909,1.909,0,0,0,.982-.737,4.977,4.977,0,0,0,.614-1.105,5.224,5.224,0,0,0,.246-1.351V270.7H-353.8v4.053Z" transform="translate(488.221 -253.629)"/>
      <path id="Path_21038" data-name="Path 21038" d="M-345.682,272.607a2.57,2.57,0,0,0-.491-.737l-2.947-3.07-.86.86,2.947,3.07a.931.931,0,0,1,.246.491.451.451,0,0,1-.123.368c-.123.123-.246.123-.491.123h-4.3l.123,1.351h4.053a1.958,1.958,0,0,0,1.474-.491,1.577,1.577,0,0,0,.491-1.228A1.558,1.558,0,0,0-345.682,272.607Z" transform="translate(489.314 -254.063)"/>
    </g>
    <g id="XMLID_46_" transform="translate(69.904 2228.879)">
      <g id="XMLID_395_" transform="translate(576.31 -74.427)">
        <g id="XMLID_396_" transform="translate(0 0)">
          <path id="XMLID_403_" d="M541.822,48.252a1.469,1.469,0,0,0,1.091-.457,3.193,3.193,0,0,0,.229-.281,1.728,1.728,0,0,0,.22.281,1.463,1.463,0,0,0,1.073.457,1.4,1.4,0,0,0,1.073-.457,1.465,1.465,0,0,0,.431-1.091,1.518,1.518,0,0,0-2.577-1.073,1.628,1.628,0,0,0-.22.281,1.391,1.391,0,0,0-.229-.281,1.54,1.54,0,0,0-2.613,1.091,1.551,1.551,0,0,0,.431,1.091A1.522,1.522,0,0,0,541.822,48.252Z" transform="translate(-534.459 -37.389)" fill="#1e2022"/>
          <path id="XMLID_402_" d="M512.227-34.693a1.136,1.136,0,0,0-.9.387,1.346,1.346,0,0,0-.352.941,5.413,5.413,0,0,0,.194,1.152,5.5,5.5,0,0,1,.194,1.152c0,.924-.66,1.381-1.979,1.381h-1.531a4.809,4.809,0,0,1-3.36-1.548c-1.249-1.24-2.085-2.067-2.516-2.507q-2.3-2.23-3.958-3.571a.634.634,0,0,1-.273-.493c0-.185.114-.317.334-.413a49.415,49.415,0,0,1,7.081-2.155c.774-.176,1.17-.6,1.17-1.24,0-.862-.5-1.293-1.513-1.293a2.739,2.739,0,0,0-.607.079,28.646,28.646,0,0,0-8.093,2.876,2.486,2.486,0,0,0-1.144,2.3,2.525,2.525,0,0,0,.255,1.24,16.262,16.262,0,0,0,2.956,2.956c1.487,1.284,2.234,2.155,2.234,2.613q0,.924-1.9,1.108c-.273.026-1.3.035-3.088.035h-.8q-1.781,0-2.058-1.451c-.106-.537-.176-.88-.194-1a.9.9,0,0,0-.915-.581c-.413,0-.73.264-.959.792a11.154,11.154,0,0,1-.721,1.478c-.792.994-2.876,1.487-6.237,1.487h-1.636q-3.431,0-4.706-.8a1.841,1.841,0,0,1-.862-1.663,4.814,4.814,0,0,1,.141-.976,5.545,5.545,0,0,0,.141-.976.86.86,0,0,0-.976-.976c-.607,0-1.091.528-1.407,1.583a7.836,7.836,0,0,0-.343,2.313q0,4.618,7.873,4.609,7.574,0,9.36-2.366a3.012,3.012,0,0,0,3.017,1.636h.941a18.93,18.93,0,0,0,4.821-.422,3.56,3.56,0,0,0,2.639-2.7,6.563,6.563,0,0,0,5.507,3.123h1.2a4.6,4.6,0,0,0,3.466-1.293,4.856,4.856,0,0,0,1.249-3.527C513.933-33.6,513.361-34.693,512.227-34.693Z" transform="translate(-473.9 42.962)" fill="#1e2022"/>
          <path id="XMLID_401_" d="M838.66,161.4a1.469,1.469,0,0,0-1.073.449,1.542,1.542,0,0,0-.387.66,1.526,1.526,0,0,0-1.46-1.108,1.551,1.551,0,0,0-1.091.431,1.441,1.441,0,0,0-.449,1.073,1.547,1.547,0,0,0,1.539,1.548,1.391,1.391,0,0,0,1.073-.457.444.444,0,1,1,.757,0,1.508,1.508,0,0,0,2.164,0,1.48,1.48,0,0,0,.449-1.091,1.414,1.414,0,0,0-.449-1.073A1.524,1.524,0,0,0,838.66,161.4Z" transform="translate(-802.506 -143.367)" fill="#1e2022"/>
          <path id="XMLID_397_" d="M959.412-33.194a2.619,2.619,0,0,0-2.349-1.293,3.52,3.52,0,0,0-2.516,1.363c-.176.194-.6.765-1.258,1.715a2.833,2.833,0,0,1-.871.88,2.474,2.474,0,0,1-1.179.229H950.9c-1.4,0-2.085-.862-2.085-2.56v-8.955c0-1.188-.457-1.786-1.363-1.786a1.19,1.19,0,0,0-1.056.572,2.063,2.063,0,0,0-.3,1.214l.308,8.453a12.874,12.874,0,0,0,.651,4.3c.581,1.249,1.759,1.865,3.536,1.865h.976a3.365,3.365,0,0,0,2.481-1.02,3.688,3.688,0,0,0,2.973,1.372,2.713,2.713,0,0,0,2.287-1.144,3.964,3.964,0,0,0,.792-2.5A4.689,4.689,0,0,0,959.412-33.194Zm-2.454,3.774a2.136,2.136,0,0,1-.959-.264c-.413-.22-.607-.449-.607-.713a1.343,1.343,0,0,1,.519-.985,1.56,1.56,0,0,1,1.029-.466.944.944,0,0,1,.827.484,1.762,1.762,0,0,1,.264.976C958.022-29.737,957.67-29.42,956.957-29.42Z" transform="translate(-904.557 43.6)" fill="#1e2022"/>
        </g>
      </g>
      <g id="XMLID_45_" transform="translate(542.614 -77.4)">
        <g id="XMLID_58_" transform="translate(0 0)">
          <circle id="XMLID_62_" cx="13.52" cy="13.52" r="13.52" fill="#0091ea"/>
          <g id="XMLID_59_" transform="translate(4.996 7.328)">
            <path id="XMLID_61_" d="M1217.519,10.492A75.809,75.809,0,0,1,1205.5,5.9a4.8,4.8,0,0,0-4.794,4.451,1.24,1.24,0,0,0-.009.185v5.427a1.2,1.2,0,0,0,1.205,1.205h.026a1.2,1.2,0,0,0,1.205-1.205V10.712h.009a2.393,2.393,0,0,1,4.785,0h.009v4.433a1.2,1.2,0,0,0,1.205,1.205h.026a1.2,1.2,0,0,0,1.205-1.205V10.7a2.393,2.393,0,0,1,4.785.018h.009v5.26a1.188,1.188,0,0,0,1.188,1.188h.026a1.188,1.188,0,0,0,1.188-1.188V10.615A.155.155,0,0,1,1217.519,10.492Z" transform="translate(-1200.7 -5.9)" fill="#fff"/>
            <path id="XMLID_60_" d="M1262.974,139.009c-.053-.088-.229.088-.229.088a5.7,5.7,0,0,1-6.967,0s-.176-.185-.229-.088c-.07.106.035.273.035.273a4.679,4.679,0,0,0,7.354,0C1262.947,139.282,1263.044,139.115,1262.974,139.009Z" transform="translate(-1250.702 -127.275)" fill="#fff"/>
          </g>
        </g>
      </g>
    </g>
  </g>
</svg>
